{
.appVersion = "926";
copyright = "Copyright (c) 26.12.2011, Johan Aakerlund (aajohan@gmail.com), with Reserved Font Name \"Comfortaa\". This Font Software is licensed under the SIL Open Font License, Version 1.1. http://scripts.sil.org/OFL";
customParameters = (
{
name = glyphOrder;
value = (
.notdef,
NULL,
uni000D,
space,
exclam,
quotedbl,
numbersign,
dollar,
percent,
ampersand,
quotesingle,
parenleft,
parenright,
asterisk,
plus,
comma,
hyphen,
period,
slash,
zero,
one,
two,
three,
four,
five,
six,
seven,
eight,
nine,
colon,
semicolon,
less,
equal,
greater,
question,
at,
A,
B,
C,
D,
E,
F,
G,
H,
I,
J,
K,
L,
M,
N,
O,
P,
Q,
R,
S,
T,
U,
V,
W,
X,
Y,
Z,
bracketleft,
backslash,
bracketright,
asciicircum,
underscore,
grave,
a,
b,
c,
d,
e,
f,
g,
h,
i,
j,
k,
l,
m,
n,
o,
p,
q,
r,
s,
t,
u,
v,
w,
x,
y,
z,
braceleft,
bar,
braceright,
asciitilde,
exclamdown,
cent,
sterling,
currency,
yen,
brokenbar,
section,
dieresis,
copyright,
ordfeminine,
guillemotleft,
logicalnot,
registered,
macron,
degree,
plusminus,
uni00B2,
uni00B3,
acute,
uni00B5,
paragraph,
periodcentered,
cedilla,
uni00B9,
ordmasculine,
guillemotright,
onequarter,
onehalf,
threequarters,
questiondown,
Agrave,
Aacute,
Acircumflex,
Atilde,
Adieresis,
Aring,
AE,
Ccedilla,
Egrave,
Eacute,
Ecircumflex,
Edieresis,
Igrave,
Iacute,
Icircumflex,
Idieresis,
Eth,
Ntilde,
Ograve,
Oacute,
Ocircumflex,
Otilde,
Odieresis,
multiply,
Oslash,
Ugrave,
Uacute,
Ucircumflex,
Udieresis,
Yacute,
Thorn,
germandbls,
agrave,
aacute,
acircumflex,
atilde,
adieresis,
aring,
ae,
ccedilla,
egrave,
eacute,
ecircumflex,
edieresis,
igrave,
iacute,
icircumflex,
idieresis,
eth,
ntilde,
ograve,
oacute,
ocircumflex,
otilde,
odieresis,
divide,
oslash,
ugrave,
uacute,
ucircumflex,
udieresis,
yacute,
thorn,
ydieresis,
dotlessi,
circumflex,
caron,
uni02C9,
breve,
dotaccent,
ring,
ogonek,
tilde,
hungarumlaut,
uni0326,
endash,
emdash,
quoteleft,
quoteright,
quotesinglbase,
quotedblleft,
quotedblright,
quotedblbase,
dagger,
daggerdbl,
bullet,
ellipsis,

glyphs = (
{
glyphname = .notdef;
lastChange = "2016-08-01 02:10:43 +0000";
layers = (
{
layerId = "4B9C72B8-8622-4F9C-A154-BF8DEE7D8E25";
paths = (
{
closed = 1;
nodes = (
"1173 0 OFFCURVE",
"1200 27 OFFCURVE",
"1200 60 CURVE SMOOTH",
"1200 1540 LINE SMOOTH",
"1200 1573 OFFCURVE",
"1173 1600 OFFCURVE",
"1140 1600 CURVE SMOOTH",
"140 1600 LINE SMOOTH",
"107 1600 OFFCURVE",
"80 1573 OFFCURVE",
"80 1540 CURVE SMOOTH",
"80 60 LINE SMOOTH",
"80 27 OFFCURVE",
"107 0 OFFCURVE",
"140 0 CURVE SMOOTH",
"1140 0 LINE SMOOTH"
);
},
{
closed = 1;
nodes = (
"1080 1480 LINE",
"1080 120 LINE",
"200 120 LINE",
"200 1480 LINE"
);
},
{
closed = 1;
nodes = (
"400 1173 OFFCURVE",
"507 1280 OFFCURVE",
"640 1280 CURVE SMOOTH",
"773 1280 OFFCURVE",
"880 1173 OFFCURVE",
"880 1040 CURVE SMOOTH",
"880 973 OFFCURVE",
"857 917 OFFCURVE",
"810 870 CURVE",
"686 755 LINE",
"615 684 OFFCURVE",
"580 599 OFFCURVE",
"580 500 CURVE SMOOTH",
"580 467 OFFCURVE",
"607 440 OFFCURVE",
"640 440 CURVE SMOOTH",
"673 440 OFFCURVE",
"700 467 OFFCURVE",
"700 500 CURVE SMOOTH",
"700 567 OFFCURVE",
"724 623 OFFCURVE",
"771 670 CURVE SMOOTH",
"894 785 LINE SMOOTH",
"965 856 OFFCURVE",
"1000 941 OFFCURVE",
"1000 1040 CURVE SMOOTH",
"1000 1239 OFFCURVE",
"839 1400 OFFCURVE",
"640 1400 CURVE SMOOTH",
"441 1400 OFFCURVE",
"280 1239 OFFCURVE",
"280 1040 CURVE SMOOTH",
"280 1007 OFFCURVE",
"307 980 OFFCURVE",
"340 980 CURVE SMOOTH",
"373 980 OFFCURVE",
"400 1007 OFFCURVE",
"400 1040 CURVE SMOOTH"
);
},
{
closed = 1;
nodes = (
"730 341 OFFCURVE",
"691 380 OFFCURVE",
"640 380 CURVE SMOOTH",
"591 380 OFFCURVE",
"550 341 OFFCURVE",
"550 290 CURVE SMOOTH",
"550 241 OFFCURVE",
"591 200 OFFCURVE",
"640 200 CURVE SMOOTH",
"691 200 OFFCURVE",
"730 241 OFFCURVE",
"730 290 CURVE SMOOTH"
);
}
);
width = 1280;
}
);
note = "\012    .notdef\012  ";
},
{
color = 4;
glyphname = exclam;
lastChange = "2016-08-01 02:22:36 +0000";
layers = (
{
layerId = "4B9C72B8-8622-4F9C-A154-BF8DEE7D8E25";
paths = (
{
closed = 1;
nodes = (
"120 356 OFFCURVE",
"156 320 OFFCURVE",
"200 320 CURVE SMOOTH",
"244 320 OFFCURVE",
"280 356 OFFCURVE",
"280 399 CURVE SMOOTH",
"280 1520 LINE SMOOTH",
"280 1564 OFFCURVE",
"244 1600 OFFCURVE",
"200 1600 CURVE SMOOTH",
"156 1600 OFFCURVE",
"120 1564 OFFCURVE",
"120 1520 CURVE SMOOTH",
"120 399 LINE SMOOTH"
);
},
{
closed = 1;
nodes = (
"320 187 OFFCURVE",
"267 240 OFFCURVE",
"200 240 CURVE SMOOTH",
"133 240 OFFCURVE",
"80 187 OFFCURVE",
"80 120 CURVE SMOOTH",
"80 53 OFFCURVE",
"133 0 OFFCURVE",
"200 0 CURVE SMOOTH",
"267 0 OFFCURVE",
"320 53 OFFCURVE",
"320 120 CURVE SMOOTH"
);
}
);
width = 400;
}
);
note = "\012    exclam\012  ";
unicode = 0021;
},
{
color = 4;
glyphname = quotedbl;
lastChange = "2016-08-01 02:22:36 +0000";
layers = (
{
layerId = "4B9C72B8-8622-4F9C-A154-BF8DEE7D8E25";
paths = (
{
closed = 1;
nodes = (
"240 1520 LINE SMOOTH",
"240 1564 OFFCURVE",
"204 1600 OFFCURVE",
"160 1600 CURVE SMOOTH",
"116 1600 OFFCURVE",
"80 1564 OFFCURVE",
"80 1520 CURVE SMOOTH",
"80 1512 LINE",
"100 1220 LINE",
"100 1187 OFFCURVE",
"127 1160 OFFCURVE",
"160 1160 CURVE SMOOTH",
"193 1160 OFFCURVE",
"220 1187 OFFCURVE",
"220 1220 CURVE",
"240 1512 LINE"
);
},
{
closed = 1;
nodes = (
"480 1520 LINE SMOOTH",
"480 1564 OFFCURVE",
"444 1600 OFFCURVE",
"400 1600 CURVE SMOOTH",
"356 1600 OFFCURVE",
"320 1564 OFFCURVE",
"320 1520 CURVE SMOOTH",
"320 1512 LINE",
"340 1220 LINE",
"340 1187 OFFCURVE",
"367 1160 OFFCURVE",
"400 1160 CURVE SMOOTH",
"433 1160 OFFCURVE",
"460 1187 OFFCURVE",
"460 1220 CURVE",
"480 1512 LINE"
);
}
);
width = 560;
}
);
note = "\012    quotedbl\012  ";
unicode = 0022;
},
{
color = 4;
glyphname = numbersign;
lastChange = "2016-08-01 02:22:36 +0000";
layers = (
{
layerId = "4B9C72B8-8622-4F9C-A154-BF8DEE7D8E25";
paths = (
{
closed = 1;
nodes = (
"700 480 LINE",
"629 80 LINE SMOOTH",
"621 36 OFFCURVE",
"651 0 OFFCURVE",
"695 0 CURVE SMOOTH",
"739 0 OFFCURVE",
"781 36 OFFCURVE",
"789 80 CURVE SMOOTH",
"860 480 LINE",
"1020 480 LINE SMOOTH",
"1064 480 OFFCURVE",
"1106 516 OFFCURVE",
"1114 560 CURVE SMOOTH",
"1122 604 OFFCURVE",
"1092 640 OFFCURVE",
"1048 640 CURVE SMOOTH",
"888 640 LINE",
"944 960 LINE",
"1104 960 LINE SMOOTH",
"1148 960 OFFCURVE",
"1191 996 OFFCURVE",
"1198 1040 CURVE",
"1199 1045 OFFCURVE",
"1199 1050 OFFCURVE",
"1199 1055 CURVE SMOOTH",
"1199 1087 OFFCURVE",
"1177 1120 OFFCURVE",
"1133 1120 CURVE SMOOTH",
"973 1120 LINE",
"1043 1520 LINE SMOOTH",
"1051 1564 OFFCURVE",
"1021 1600 OFFCURVE",
"977 1600 CURVE SMOOTH",
"933 1600 OFFCURVE",
"891 1564 OFFCURVE",
"883 1520 CURVE SMOOTH",
"813 1120 LINE",
"573 1120 LINE",
"643 1520 LINE SMOOTH",
"651 1564 OFFCURVE",
"621 1600 OFFCURVE",
"577 1600 CURVE SMOOTH",
"533 1600 OFFCURVE",
"491 1564 OFFCURVE",
"483 1520 CURVE SMOOTH",
"413 1120 LINE",
"253 1120 LINE SMOOTH",
"209 1120 OFFCURVE",
"166 1084 OFFCURVE",
"158 1040 CURVE SMOOTH",
"151 996 OFFCURVE",
"180 960 OFFCURVE",
"224 960 CURVE SMOOTH",
"384 960 LINE",
"328 640 LINE",
"168 640 LINE SMOOTH",
"124 640 OFFCURVE",
"82 604 OFFCURVE",
"74 560 CURVE SMOOTH",
"73 555 OFFCURVE",
"73 550 OFFCURVE",
"73 545 CURVE SMOOTH",
"73 513 OFFCURVE",
"96 480 OFFCURVE",
"140 480 CURVE SMOOTH",
"300 480 LINE",
"229 80 LINE SMOOTH",
"221 36 OFFCURVE",
"251 0 OFFCURVE",
"295 0 CURVE SMOOTH",
"339 0 OFFCURVE",
"381 36 OFFCURVE",
"389 80 CURVE SMOOTH",
"460 480 LINE"
);
},
{
closed = 1;
nodes = (
"728 640 LINE",
"488 640 LINE",
"544 960 LINE",
"784 960 LINE"
);
}
);
width = 1280;
}
);
note = "\012    numbersign\012  ";
unicode = 0023;
},
{
color = 4;
glyphname = dollar;
lastChange = "2016-08-01 02:22:36 +0000";
layers = (
{
layerId = "4B9C72B8-8622-4F9C-A154-BF8DEE7D8E25";
paths = (
{
closed = 1;
nodes = (
"480 -124 OFFCURVE",
"516 -160 OFFCURVE",
"560 -160 CURVE SMOOTH",
"604 -160 OFFCURVE",
"640 -124 OFFCURVE",
"640 -80 CURVE SMOOTH",
"640 20 LINE",
"701 39 OFFCURVE",
"758 70 OFFCURVE",
"811 115 CURVE SMOOTH",
"912 200 OFFCURVE",
"967 309 OFFCURVE",
"978 441 CURVE SMOOTH",
"979 456 OFFCURVE",
"980 472 OFFCURVE",
"980 487 CURVE SMOOTH",
"980 714 OFFCURVE",
"816 889 OFFCURVE",
"640 940 CURVE",
"640 1424 LINE",
"679 1411 OFFCURVE",
"713 1387 OFFCURVE",
"742 1353 CURVE SMOOTH",
"751 1342 OFFCURVE",
"758 1332 OFFCURVE",
"765 1321 CURVE",
"768 1315 OFFCURVE",
"773 1309 OFFCURVE",
"779 1304 CURVE",
"794 1288 OFFCURVE",
"813 1280 OFFCURVE",
"835 1280 CURVE SMOOTH",
"879 1280 OFFCURVE",
"915 1316 OFFCURVE",
"915 1360 CURVE SMOOTH",
"915 1392 OFFCURVE",
"893 1422 OFFCURVE",
"864 1457 CURVE SMOOTH",
"803 1528 OFFCURVE",
"729 1573 OFFCURVE",
"640 1590 CURVE",
"640 1680 LINE SMOOTH",
"640 1724 OFFCURVE",
"604 1760 OFFCURVE",
"560 1760 CURVE SMOOTH",
"516 1760 OFFCURVE",
"480 1724 OFFCURVE",
"480 1680 CURVE SMOOTH",
"480 1591 LINE",
"349 1566 OFFCURVE",
"179 1451 OFFCURVE",
"160 1231 CURVE SMOOTH",
"143 1010 OFFCURVE",
"301 840 OFFCURVE",
"480 805 CURVE",
"480 161 LINE",
"387 168 OFFCURVE",
"313 206 OFFCURVE",
"256 274 CURVE",
"245 285 OFFCURVE",
"236 297 OFFCURVE",
"228 310 CURVE",
"211 335 OFFCURVE",
"189 347 OFFCURVE",
"160 347 CURVE SMOOTH",
"116 347 OFFCURVE",
"80 311 OFFCURVE",
"80 267 CURVE SMOOTH",
"80 249 OFFCURVE",
"85 233 OFFCURVE",
"96 219 CURVE",
"107 202 OFFCURVE",
"120 185 OFFCURVE",
"134 170 CURVE",
"219 69 OFFCURVE",
"328 13 OFFCURVE",
"460 2 CURVE",
"467 1 OFFCURVE",
"473 1 OFFCURVE",
"480 1 CURVE",
"480 -80 LINE SMOOTH"
);
},
{
closed = 1;
nodes = (
"440 984 OFFCURVE",
"406 1008 OFFCURVE",
"377 1043 CURVE SMOOTH",
"290 1144 OFFCURVE",
"303 1294 OFFCURVE",
"404 1381 CURVE SMOOTH",
"427 1401 OFFCURVE",
"453 1416 OFFCURVE",
"480 1425 CURVE",
"480 971 LINE"
);
},
{
closed = 1;
nodes = (
"679 750 OFFCURVE",
"714 723 OFFCURVE",
"745 688 CURVE SMOOTH",
"858 553 OFFCURVE",
"842 350 OFFCURVE",
"707 237 CURVE",
"686 218 OFFCURVE",
"663 203 OFFCURVE",
"640 192 CURVE",
"640 769 LINE"
);
}
);
width = 1060;
}
);
note = "\012    dollar\012  ";
unicode = 0024;
},
{
color = 4;
glyphname = percent;
lastChange = "2016-08-01 02:22:36 +0000";
layers = (
{
layerId = "4B9C72B8-8622-4F9C-A154-BF8DEE7D8E25";
paths = (
{
closed = 1;
nodes = (
"880 1421 OFFCURVE",
"701 1600 OFFCURVE",
"480 1600 CURVE SMOOTH",
"259 1600 OFFCURVE",
"80 1421 OFFCURVE",
"80 1200 CURVE SMOOTH",
"80 979 OFFCURVE",
"259 800 OFFCURVE",
"480 800 CURVE SMOOTH",
"701 800 OFFCURVE",
"880 979 OFFCURVE",
"880 1200 CURVE SMOOTH"
);
},
{
closed = 1;
nodes = (
"342 0 OFFCURVE",
"362 9 OFFCURVE",
"381 27 CURVE",
"1504 1472 LINE SMOOTH",
"1515 1486 OFFCURVE",
"1520 1502 OFFCURVE",
"1520 1520 CURVE SMOOTH",
"1520 1564 OFFCURVE",
"1484 1600 OFFCURVE",
"1440 1600 CURVE SMOOTH",
"1415 1600 OFFCURVE",
"1394 1589 OFFCURVE",
"1375 1567 CURVE",
"260 134 LINE",
"247 119 OFFCURVE",
"240 101 OFFCURVE",
"240 80 CURVE SMOOTH",
"240 36 OFFCURVE",
"276 0 OFFCURVE",
"320 0 CURVE SMOOTH"
);
},
{
closed = 1;
nodes = (
"612 1440 OFFCURVE",
"720 1332 OFFCURVE",
"720 1200 CURVE SMOOTH",
"720 1068 OFFCURVE",
"612 960 OFFCURVE",
"480 960 CURVE SMOOTH",
"348 960 OFFCURVE",
"240 1068 OFFCURVE",
"240 1200 CURVE SMOOTH",
"240 1332 OFFCURVE",
"348 1440 OFFCURVE",
"480 1440 CURVE SMOOTH"
);
},
{
closed = 1;
nodes = (
"880 179 OFFCURVE",
"1059 0 OFFCURVE",
"1280 0 CURVE SMOOTH",
"1501 0 OFFCURVE",
"1680 179 OFFCURVE",
"1680 400 CURVE SMOOTH",
"1680 621 OFFCURVE",
"1501 800 OFFCURVE",
"1280 800 CURVE SMOOTH",
"1059 800 OFFCURVE",
"880 621 OFFCURVE",
"880 400 CURVE SMOOTH"
);
},
{
closed = 1;
nodes = (
"1412 640 OFFCURVE",
"1520 532 OFFCURVE",
"1520 400 CURVE SMOOTH",
"1520 268 OFFCURVE",
"1412 160 OFFCURVE",
"1280 160 CURVE SMOOTH",
"1148 160 OFFCURVE",
"1040 268 OFFCURVE",
"1040 400 CURVE SMOOTH",
"1040 532 OFFCURVE",
"1148 640 OFFCURVE",
"1280 640 CURVE SMOOTH"
);
}
);
width = 1760;
}
);
note = "\012    percent\012  ";
unicode = 0025;
},
{
color = 4;
glyphname = ampersand;
lastChange = "2016-08-01 02:22:36 +0000";
layers = (
{
layerId = "4B9C72B8-8622-4F9C-A154-BF8DEE7D8E25";
paths = (
{
closed = 1;
nodes = (
"831 1039 OFFCURVE",
"880 1134 OFFCURVE",
"880 1240 CURVE SMOOTH",
"880 1439 OFFCURVE",
"719 1600 OFFCURVE",
"520 1600 CURVE SMOOTH",
"321 1600 OFFCURVE",
"160 1439 OFFCURVE",
"160 1240 CURVE SMOOTH",
"160 1141 OFFCURVE",
"195 1056 OFFCURVE",
"265 985 CURVE SMOOTH",
"375 874 LINE",
"269 791 LINE SMOOTH",
"143 692 OFFCURVE",
"80 581 OFFCURVE",
"80 460 CURVE SMOOTH",
"80 191 OFFCURVE",
"277 0 OFFCURVE",
"520 0 CURVE SMOOTH",
"641 0 OFFCURVE",
"745 43 OFFCURVE",
"831 129 CURVE SMOOTH",
"970 277 LINE",
"1224 22 LINE SMOOTH",
"1240 7 OFFCURVE",
"1259 0 OFFCURVE",
"1280 0 CURVE SMOOTH",
"1324 0 OFFCURVE",
"1360 36 OFFCURVE",
"1360 80 CURVE SMOOTH",
"1360 101 OFFCURVE",
"1353 119 OFFCURVE",
"1338 134 CURVE SMOOTH",
"1080 395 LINE",
"1260 586 LINE",
"1273 601 OFFCURVE",
"1280 619 OFFCURVE",
"1280 640 CURVE SMOOTH",
"1280 684 OFFCURVE",
"1244 720 OFFCURVE",
"1200 720 CURVE SMOOTH",
"1178 720 OFFCURVE",
"1159 712 OFFCURVE",
"1144 697 CURVE SMOOTH",
"967 508 LINE",
"613 863 LINE",
"734 955 LINE"
);
},
{
closed = 1;
nodes = (
"339 1138 OFFCURVE",
"320 1185 OFFCURVE",
"320 1240 CURVE SMOOTH",
"320 1351 OFFCURVE",
"409 1440 OFFCURVE",
"520 1440 CURVE SMOOTH",
"631 1440 OFFCURVE",
"720 1351 OFFCURVE",
"720 1240 CURVE SMOOTH",
"720 1178 OFFCURVE",
"687 1121 OFFCURVE",
"621 1068 CURVE SMOOTH",
"502 974 LINE",
"378 1099 LINE SMOOTH"
);
},
{
closed = 1;
nodes = (
"663 187 OFFCURVE",
"597 160 OFFCURVE",
"520 160 CURVE SMOOTH",
"365 160 OFFCURVE",
"240 279 OFFCURVE",
"240 460 CURVE SMOOTH",
"240 537 OFFCURVE",
"284 610 OFFCURVE",
"372 678 CURVE SMOOTH",
"485 764 LINE",
"857 391 LINE",
"718 242 LINE SMOOTH"
);
}
);
width = 1440;
}
);
note = "\012    ampersand\012  ";
unicode = 0026;
},
{
color = 4;
glyphname = quotesingle;
lastChange = "2016-08-01 02:22:36 +0000";
layers = (
{
layerId = "4B9C72B8-8622-4F9C-A154-BF8DEE7D8E25";
paths = (
{
closed = 1;
nodes = (
"240 1520 LINE SMOOTH",
"240 1564 OFFCURVE",
"204 1600 OFFCURVE",
"160 1600 CURVE SMOOTH",
"116 1600 OFFCURVE",
"80 1564 OFFCURVE",
"80 1520 CURVE SMOOTH",
"80 1512 LINE",
"100 1220 LINE",
"100 1187 OFFCURVE",
"127 1160 OFFCURVE",
"160 1160 CURVE SMOOTH",
"193 1160 OFFCURVE",
"220 1187 OFFCURVE",
"220 1220 CURVE",
"240 1512 LINE"
);
}
);
width = 320;
}
);
note = "\012    quotesingle\012  ";
unicode = 0027;
},
{
color = 4;
glyphname = parenleft;
lastChange = "2016-08-01 02:22:36 +0000";
layers = (
{
layerId = "4B9C72B8-8622-4F9C-A154-BF8DEE7D8E25";
paths = (
{
closed = 1;
nodes = (
"161 1219 OFFCURVE",
"80 891 OFFCURVE",
"80 562 CURVE SMOOTH",
"80 233 OFFCURVE",
"161 -96 OFFCURVE",
"323 -426 CURVE SMOOTH",
"328 -437 OFFCURVE",
"334 -447 OFFCURVE",
"342 -456 CURVE",
"358 -472 OFFCURVE",
"377 -480 OFFCURVE",
"399 -480 CURVE SMOOTH",
"443 -480 OFFCURVE",
"479 -444 OFFCURVE",
"479 -400 CURVE SMOOTH",
"479 -385 OFFCURVE",
"475 -371 OFFCURVE",
"468 -359 CURVE",
"315 -52 OFFCURVE",
"238 254 OFFCURVE",
"238 561 CURVE SMOOTH",
"238 866 OFFCURVE",
"314 1172 OFFCURVE",
"466 1477 CURVE SMOOTH",
"473 1490 OFFCURVE",
"478 1504 OFFCURVE",
"479 1520 CURVE",
"479 1564 OFFCURVE",
"443 1600 OFFCURVE",
"399 1600 CURVE SMOOTH",
"355 1600 OFFCURVE",
"331 1568 OFFCURVE",
"323 1547 CURVE"
);
}
);
width = 560;
}
);
note = "\012    parenleft\012  ";
unicode = 0028;
},
{
color = 4;
glyphname = parenright;
lastChange = "2016-08-01 02:22:36 +0000";
layers = (
{
layerId = "4B9C72B8-8622-4F9C-A154-BF8DEE7D8E25";
paths = (
{
closed = 1;
nodes = (
"228 1568 OFFCURVE",
"204 1600 OFFCURVE",
"160 1600 CURVE SMOOTH",
"116 1600 OFFCURVE",
"80 1564 OFFCURVE",
"80 1520 CURVE",
"81 1504 OFFCURVE",
"86 1490 OFFCURVE",
"93 1477 CURVE SMOOTH",
"245 1172 OFFCURVE",
"321 866 OFFCURVE",
"321 561 CURVE SMOOTH",
"321 254 OFFCURVE",
"244 -52 OFFCURVE",
"91 -359 CURVE",
"84 -371 OFFCURVE",
"80 -385 OFFCURVE",
"80 -400 CURVE SMOOTH",
"80 -444 OFFCURVE",
"116 -480 OFFCURVE",
"160 -480 CURVE SMOOTH",
"182 -480 OFFCURVE",
"201 -472 OFFCURVE",
"217 -456 CURVE",
"224 -447 OFFCURVE",
"231 -437 OFFCURVE",
"236 -426 CURVE SMOOTH",
"399 -96 OFFCURVE",
"480 233 OFFCURVE",
"480 562 CURVE SMOOTH",
"480 891 OFFCURVE",
"399 1219 OFFCURVE",
"236 1547 CURVE"
);
}
);
width = 560;
}
);
note = "\012    parenright\012  ";
unicode = 0029;
},
{
color = 4;
glyphname = asterisk;
lastChange = "2016-08-01 02:22:36 +0000";
layers = (
{
layerId = "4B9C72B8-8622-4F9C-A154-BF8DEE7D8E25";
paths = (
{
closed = 1;
nodes = (
"193 1154 OFFCURVE",
"186 1148 OFFCURVE",
"180 1140 CURVE SMOOTH",
"167 1123 OFFCURVE",
"161 1103 OFFCURVE",
"164 1081 CURVE SMOOTH",
"169 1037 OFFCURVE",
"207 1011 OFFCURVE",
"242 1011 CURVE SMOOTH",
"271 1011 OFFCURVE",
"293 1021 OFFCURVE",
"306 1042 CURVE",
"312 1049 OFFCURVE",
"316 1057 OFFCURVE",
"319 1066 CURVE",
"392 1247 LINE",
"464 1066 LINE",
"467 1057 OFFCURVE",
"471 1049 OFFCURVE",
"477 1042 CURVE",
"490 1025 OFFCURVE",
"508 1015 OFFCURVE",
"530 1012 CURVE",
"555 1011 OFFCURVE",
"574 1017 OFFCURVE",
"589 1028 CURVE SMOOTH",
"624 1055 OFFCURVE",
"630 1105 OFFCURVE",
"603 1140 CURVE SMOOTH",
"597 1148 OFFCURVE",
"590 1154 OFFCURVE",
"583 1159 CURVE SMOOTH",
"422 1271 LINE",
"618 1279 LINE",
"627 1280 OFFCURVE",
"636 1281 OFFCURVE",
"645 1284 CURVE SMOOTH",
"666 1291 OFFCURVE",
"681 1305 OFFCURVE",
"690 1325 CURVE SMOOTH",
"695 1336 OFFCURVE",
"698 1348 OFFCURVE",
"698 1359 CURVE SMOOTH",
"698 1368 OFFCURVE",
"696 1377 OFFCURVE",
"693 1386 CURVE SMOOTH",
"678 1429 OFFCURVE",
"632 1450 OFFCURVE",
"591 1435 CURVE SMOOTH",
"582 1432 OFFCURVE",
"574 1427 OFFCURVE",
"567 1422 CURVE SMOOTH",
"409 1304 LINE",
"467 1493 LINE SMOOTH",
"470 1502 OFFCURVE",
"471 1511 OFFCURVE",
"471 1520 CURVE SMOOTH",
"471 1564 OFFCURVE",
"435 1600 OFFCURVE",
"391 1600 CURVE SMOOTH",
"347 1600 OFFCURVE",
"311 1564 OFFCURVE",
"311 1520 CURVE SMOOTH",
"311 1511 OFFCURVE",
"312 1502 OFFCURVE",
"315 1493 CURVE SMOOTH",
"373 1305 LINE",
"216 1422 LINE SMOOTH",
"209 1427 OFFCURVE",
"201 1432 OFFCURVE",
"192 1435 CURVE SMOOTH",
"151 1450 OFFCURVE",
"105 1429 OFFCURVE",
"90 1386 CURVE SMOOTH",
"87 1377 OFFCURVE",
"85 1369 OFFCURVE",
"85 1360 CURVE SMOOTH",
"85 1336 OFFCURVE",
"98 1299 OFFCURVE",
"139 1284 CURVE SMOOTH",
"148 1281 OFFCURVE",
"157 1280 OFFCURVE",
"166 1279 CURVE",
"361 1271 LINE",
"200 1159 LINE SMOOTH"
);
}
);
width = 780;
}
);
note = "\012    asterisk\012  ";
unicode = 002A;
},
{
color = 4;
glyphname = plus;
lastChange = "2016-08-01 02:22:36 +0000";
layers = (
{
layerId = "4B9C72B8-8622-4F9C-A154-BF8DEE7D8E25";
paths = (
{
closed = 1;
nodes = (
"160 880 LINE SMOOTH",
"116 880 OFFCURVE",
"80 844 OFFCURVE",
"80 800 CURVE SMOOTH",
"80 756 OFFCURVE",
"116 720 OFFCURVE",
"160 720 CURVE SMOOTH",
"480 720 LINE",
"480 400 LINE SMOOTH",
"480 356 OFFCURVE",
"516 320 OFFCURVE",
"560 320 CURVE SMOOTH",
"604 320 OFFCURVE",
"640 356 OFFCURVE",
"640 400 CURVE SMOOTH",
"640 720 LINE",
"960 720 LINE SMOOTH",
"1004 720 OFFCURVE",
"1040 756 OFFCURVE",
"1040 800 CURVE SMOOTH",
"1040 844 OFFCURVE",
"1004 880 OFFCURVE",
"960 880 CURVE SMOOTH",
"640 880 LINE",
"640 1200 LINE SMOOTH",
"640 1244 OFFCURVE",
"604 1280 OFFCURVE",
"560 1280 CURVE SMOOTH",
"516 1280 OFFCURVE",
"480 1244 OFFCURVE",
"480 1200 CURVE SMOOTH",
"480 880 LINE"
);
}
);
width = 1120;
}
);
note = "\012    plus\012  ";
unicode = 002B;
},
{
color = 4;
glyphname = comma;
lastChange = "2016-08-01 02:22:36 +0000";
layers = (
{
layerId = "4B9C72B8-8622-4F9C-A154-BF8DEE7D8E25";
paths = (
{
closed = 1;
nodes = (
"176 -28 OFFCURVE",
"184 -86 OFFCURVE",
"137 -138 CURVE",
"126 -149 OFFCURVE",
"120 -163 OFFCURVE",
"120 -180 CURVE SMOOTH",
"120 -213 OFFCURVE",
"147 -240 OFFCURVE",
"180 -240 CURVE SMOOTH",
"203 -240 OFFCURVE",
"221 -229 OFFCURVE",
"233 -208 CURVE",
"291 -120 OFFCURVE",
"320 -11 OFFCURVE",
"320 120 CURVE SMOOTH",
"320 187 OFFCURVE",
"267 240 OFFCURVE",
"200 240 CURVE SMOOTH",
"133 240 OFFCURVE",
"80 187 OFFCURVE",
"80 120 CURVE SMOOTH",
"80 87 OFFCURVE",
"92 58 OFFCURVE",
"115 35 CURVE SMOOTH"
);
}
);
width = 400;
}
);
note = "\012    comma\012  ";
unicode = 002C;
},
{
color = 4;
glyphname = hyphen;
lastChange = "2016-08-01 02:22:36 +0000";
layers = (
{
layerId = "4B9C72B8-8622-4F9C-A154-BF8DEE7D8E25";
paths = (
{
closed = 1;
nodes = (
"684 480 OFFCURVE",
"720 516 OFFCURVE",
"720 560 CURVE SMOOTH",
"720 604 OFFCURVE",
"684 640 OFFCURVE",
"640 640 CURVE SMOOTH",
"160 640 LINE SMOOTH",
"116 640 OFFCURVE",
"80 604 OFFCURVE",
"80 560 CURVE SMOOTH",
"80 516 OFFCURVE",
"116 480 OFFCURVE",
"160 480 CURVE SMOOTH",
"640 480 LINE SMOOTH"
);
}
);
width = 800;
}
);
note = "\012    hyphen\012  ";
unicode = 002D;
},
{
color = 4;
glyphname = period;
lastChange = "2016-08-01 02:22:36 +0000";
layers = (
{
layerId = "4B9C72B8-8622-4F9C-A154-BF8DEE7D8E25";
paths = (
{
closed = 1;
nodes = (
"320 187 OFFCURVE",
"267 240 OFFCURVE",
"200 240 CURVE SMOOTH",
"133 240 OFFCURVE",
"80 187 OFFCURVE",
"80 120 CURVE SMOOTH",
"80 53 OFFCURVE",
"133 0 OFFCURVE",
"200 0 CURVE SMOOTH",
"267 0 OFFCURVE",
"320 53 OFFCURVE",
"320 120 CURVE SMOOTH"
);
}
);
width = 400;
}
);
note = "\012    period\012  ";
unicode = 002E;
},
{
color = 4;
glyphname = slash;
lastChange = "2016-08-01 02:22:36 +0000";
layers = (
{
layerId = "4B9C72B8-8622-4F9C-A154-BF8DEE7D8E25";
paths = (
{
closed = 1;
nodes = (
"737 1570 OFFCURVE",
"731 1562 OFFCURVE",
"727 1554 CURVE",
"87 -46 LINE",
"82 -57 OFFCURVE",
"80 -68 OFFCURVE",
"80 -80 CURVE SMOOTH",
"80 -124 OFFCURVE",
"116 -160 OFFCURVE",
"160 -160 CURVE SMOOTH",
"182 -160 OFFCURVE",
"201 -152 OFFCURVE",
"217 -136 CURVE SMOOTH",
"224 -129 OFFCURVE",
"229 -122 OFFCURVE",
"233 -114 CURVE",
"873 1486 LINE",
"878 1497 OFFCURVE",
"880 1508 OFFCURVE",
"880 1520 CURVE SMOOTH",
"880 1564 OFFCURVE",
"844 1600 OFFCURVE",
"800 1600 CURVE SMOOTH",
"778 1600 OFFCURVE",
"759 1592 OFFCURVE",
"744 1577 CURVE SMOOTH"
);
}
);
width = 960;
}
);
note = "\012    slash\012  ";
unicode = 002F;
},
{
color = 4;
glyphname = zero;
lastChange = "2016-08-01 02:22:36 +0000";
layers = (
{
layerId = "4B9C72B8-8622-4F9C-A154-BF8DEE7D8E25";
paths = (
{
closed = 1;
nodes = (
"80 480 OFFCURVE",
"146 252 OFFCURVE",
"277 117 CURVE SMOOTH",
"355 39 OFFCURVE",
"449 0 OFFCURVE",
"560 0 CURVE SMOOTH",
"671 0 OFFCURVE",
"765 39 OFFCURVE",
"843 117 CURVE SMOOTH",
"974 252 OFFCURVE",
"1040 480 OFFCURVE",
"1040 800 CURVE SMOOTH",
"1040 1120 OFFCURVE",
"974 1348 OFFCURVE",
"843 1483 CURVE SMOOTH",
"765 1561 OFFCURVE",
"671 1600 OFFCURVE",
"560 1600 CURVE SMOOTH",
"449 1600 OFFCURVE",
"355 1561 OFFCURVE",
"277 1483 CURVE SMOOTH",
"146 1348 OFFCURVE",
"80 1120 OFFCURVE",
"80 800 CURVE SMOOTH"
);
},
{
closed = 1;
nodes = (
"626 1440 OFFCURVE",
"683 1416 OFFCURVE",
"730 1369 CURVE",
"830 1256 OFFCURVE",
"880 1067 OFFCURVE",
"880 800 CURVE SMOOTH",
"880 533 OFFCURVE",
"830 344 OFFCURVE",
"730 231 CURVE",
"683 184 OFFCURVE",
"626 160 OFFCURVE",
"560 160 CURVE SMOOTH",
"494 160 OFFCURVE",
"437 184 OFFCURVE",
"390 231 CURVE",
"290 344 OFFCURVE",
"240 533 OFFCURVE",
"240 800 CURVE SMOOTH",
"240 1067 OFFCURVE",
"290 1256 OFFCURVE",
"390 1369 CURVE",
"437 1416 OFFCURVE",
"494 1440 OFFCURVE",
"560 1440 CURVE SMOOTH"
);
}
);
width = 1120;
}
);
note = "\012    zero\012  ";
unicode = 0030;
},
{
color = 4;
glyphname = one;
lastChange = "2016-08-01 02:22:36 +0000";
layers = (
{
layerId = "4B9C72B8-8622-4F9C-A154-BF8DEE7D8E25";
paths = (
{
closed = 1;
nodes = (
"480 1564 OFFCURVE",
"444 1600 OFFCURVE",
"400 1600 CURVE SMOOTH",
"389 1600 OFFCURVE",
"380 1598 OFFCURVE",
"371 1595 CURVE SMOOTH",
"131 1515 LINE",
"121 1511 OFFCURVE",
"112 1505 OFFCURVE",
"104 1497 CURVE SMOOTH",
"88 1481 OFFCURVE",
"80 1462 OFFCURVE",
"80 1440 CURVE SMOOTH",
"80 1396 OFFCURVE",
"116 1360 OFFCURVE",
"160 1360 CURVE SMOOTH",
"171 1360 OFFCURVE",
"181 1362 OFFCURVE",
"191 1366 CURVE",
"320 1409 LINE",
"320 80 LINE SMOOTH",
"320 36 OFFCURVE",
"356 0 OFFCURVE",
"400 0 CURVE SMOOTH",
"444 0 OFFCURVE",
"480 36 OFFCURVE",
"480 80 CURVE SMOOTH",
"480 1520 LINE SMOOTH"
);
}
);
width = 560;
}
);
note = "\012    one\012  ";
unicode = 0031;
},
{
color = 4;
glyphname = two;
lastChange = "2016-08-01 02:22:36 +0000";
layers = (
{
layerId = "4B9C72B8-8622-4F9C-A154-BF8DEE7D8E25";
paths = (
{
closed = 1;
nodes = (
"899 780 LINE",
"993 874 OFFCURVE",
"1040 987 OFFCURVE",
"1040 1120 CURVE SMOOTH",
"1040 1385 OFFCURVE",
"825 1600 OFFCURVE",
"560 1600 CURVE SMOOTH",
"295 1600 OFFCURVE",
"80 1385 OFFCURVE",
"80 1120 CURVE SMOOTH",
"80 1076 OFFCURVE",
"116 1040 OFFCURVE",
"160 1040 CURVE SMOOTH",
"204 1040 OFFCURVE",
"240 1076 OFFCURVE",
"240 1120 CURVE SMOOTH",
"240 1297 OFFCURVE",
"383 1440 OFFCURVE",
"560 1440 CURVE SMOOTH",
"737 1440 OFFCURVE",
"880 1297 OFFCURVE",
"880 1120 CURVE SMOOTH",
"880 1031 OFFCURVE",
"849 956 OFFCURVE",
"786 893 CURVE",
"103 137 LINE SMOOTH",
"88 121 OFFCURVE",
"80 102 OFFCURVE",
"80 80 CURVE SMOOTH",
"80 36 OFFCURVE",
"116 0 OFFCURVE",
"160 0 CURVE SMOOTH",
"960 0 LINE SMOOTH",
"1004 0 OFFCURVE",
"1040 36 OFFCURVE",
"1040 80 CURVE SMOOTH",
"1040 124 OFFCURVE",
"1004 160 OFFCURVE",
"960 160 CURVE SMOOTH",
"341 160 LINE"
);
}
);
width = 1120;
}
);
note = "\012    two\012  ";
unicode = 0032;
},
{
color = 4;
glyphname = three;
lastChange = "2016-08-01 02:22:36 +0000";
layers = (
{
layerId = "4B9C72B8-8622-4F9C-A154-BF8DEE7D8E25";
paths = (
{
closed = 1;
nodes = (
"737 800 OFFCURVE",
"880 657 OFFCURVE",
"880 480 CURVE SMOOTH",
"880 303 OFFCURVE",
"737 160 OFFCURVE",
"560 160 CURVE SMOOTH",
"383 160 OFFCURVE",
"240 303 OFFCURVE",
"240 480 CURVE SMOOTH",
"240 524 OFFCURVE",
"204 560 OFFCURVE",
"160 560 CURVE SMOOTH",
"116 560 OFFCURVE",
"80 524 OFFCURVE",
"80 480 CURVE SMOOTH",
"80 215 OFFCURVE",
"295 0 OFFCURVE",
"560 0 CURVE SMOOTH",
"825 0 OFFCURVE",
"1040 215 OFFCURVE",
"1040 480 CURVE SMOOTH",
"1040 613 OFFCURVE",
"993 726 OFFCURVE",
"900 820 CURVE SMOOTH",
"873 847 OFFCURVE",
"844 870 OFFCURVE",
"813 889 CURVE",
"911 979 OFFCURVE",
"960 1083 OFFCURVE",
"960 1200 CURVE SMOOTH",
"960 1421 OFFCURVE",
"781 1600 OFFCURVE",
"560 1600 CURVE SMOOTH",
"339 1600 OFFCURVE",
"160 1421 OFFCURVE",
"160 1200 CURVE SMOOTH",
"160 1156 OFFCURVE",
"196 1120 OFFCURVE",
"240 1120 CURVE SMOOTH",
"284 1120 OFFCURVE",
"320 1156 OFFCURVE",
"320 1200 CURVE SMOOTH",
"320 1332 OFFCURVE",
"428 1440 OFFCURVE",
"560 1440 CURVE SMOOTH",
"692 1440 OFFCURVE",
"800 1332 OFFCURVE",
"800 1200 CURVE SMOOTH",
"800 1068 OFFCURVE",
"692 960 OFFCURVE",
"560 960 CURVE SMOOTH",
"516 960 OFFCURVE",
"480 924 OFFCURVE",
"480 880 CURVE SMOOTH",
"480 836 OFFCURVE",
"516 800 OFFCURVE",
"560 800 CURVE SMOOTH"
);
}
);
width = 1120;
}
);
note = "\012    three\012  ";
unicode = 0033;
},
{
color = 4;
glyphname = four;
lastChange = "2016-08-01 02:22:36 +0000";
layers = (
{
layerId = "4B9C72B8-8622-4F9C-A154-BF8DEE7D8E25";
paths = (
{
closed = 1;
nodes = (
"800 80 LINE SMOOTH",
"800 36 OFFCURVE",
"836 0 OFFCURVE",
"880 0 CURVE SMOOTH",
"924 0 OFFCURVE",
"960 36 OFFCURVE",
"960 80 CURVE SMOOTH",
"960 400 LINE",
"1120 400 LINE SMOOTH",
"1164 400 OFFCURVE",
"1200 436 OFFCURVE",
"1200 480 CURVE SMOOTH",
"1200 524 OFFCURVE",
"1164 560 OFFCURVE",
"1120 560 CURVE SMOOTH",
"960 560 LINE",
"960 1520 LINE SMOOTH",
"960 1564 OFFCURVE",
"924 1600 OFFCURVE",
"880 1600 CURVE SMOOTH",
"851 1600 OFFCURVE",
"830 1589 OFFCURVE",
"815 1567 CURVE SMOOTH",
"95 527 LINE SMOOTH",
"85 513 OFFCURVE",
"80 497 OFFCURVE",
"80 480 CURVE SMOOTH",
"80 436 OFFCURVE",
"116 400 OFFCURVE",
"160 400 CURVE SMOOTH",
"800 400 LINE"
);
},
{
closed = 1;
nodes = (
"800 1264 LINE",
"800 560 LINE",
"313 560 LINE"
);
}
);
width = 1280;
}
);
note = "\012    four\012  ";
unicode = 0034;
},
{
color = 4;
glyphname = five;
lastChange = "2016-08-01 02:22:36 +0000";
layers = (
{
layerId = "4B9C72B8-8622-4F9C-A154-BF8DEE7D8E25";
paths = (
{
closed = 1;
nodes = (
"196 1600 OFFCURVE",
"160 1564 OFFCURVE",
"160 1520 CURVE SMOOTH",
"160 960 LINE SMOOTH",
"160 916 OFFCURVE",
"196 880 OFFCURVE",
"240 880 CURVE SMOOTH",
"600 880 LINE SMOOTH",
"799 880 OFFCURVE",
"960 719 OFFCURVE",
"960 520 CURVE SMOOTH",
"960 321 OFFCURVE",
"799 160 OFFCURVE",
"600 160 CURVE SMOOTH",
"401 160 OFFCURVE",
"240 321 OFFCURVE",
"240 520 CURVE SMOOTH",
"240 564 OFFCURVE",
"204 600 OFFCURVE",
"160 600 CURVE SMOOTH",
"116 600 OFFCURVE",
"80 564 OFFCURVE",
"80 520 CURVE SMOOTH",
"80 233 OFFCURVE",
"313 0 OFFCURVE",
"600 0 CURVE SMOOTH",
"887 0 OFFCURVE",
"1120 233 OFFCURVE",
"1120 520 CURVE SMOOTH",
"1120 807 OFFCURVE",
"887 1040 OFFCURVE",
"600 1040 CURVE SMOOTH",
"320 1040 LINE",
"320 1440 LINE",
"960 1440 LINE SMOOTH",
"1004 1440 OFFCURVE",
"1040 1476 OFFCURVE",
"1040 1520 CURVE SMOOTH",
"1040 1564 OFFCURVE",
"1004 1600 OFFCURVE",
"960 1600 CURVE SMOOTH",
"240 1600 LINE SMOOTH"
);
}
);
width = 1200;
}
);
note = "\012    five\012  ";
unicode = 0035;
},
{
color = 4;
glyphname = six;
lastChange = "2016-08-01 02:22:36 +0000";
layers = (
{
layerId = "4B9C72B8-8622-4F9C-A154-BF8DEE7D8E25";
paths = (
{
closed = 1;
nodes = (
"796 1491 OFFCURVE",
"800 1505 OFFCURVE",
"800 1520 CURVE SMOOTH",
"800 1564 OFFCURVE",
"764 1600 OFFCURVE",
"720 1600 CURVE SMOOTH",
"698 1600 OFFCURVE",
"679 1592 OFFCURVE",
"664 1577 CURVE SMOOTH",
"657 1570 OFFCURVE",
"652 1563 OFFCURVE",
"648 1556 CURVE SMOOTH",
"157 742 LINE",
"106 665 OFFCURVE",
"80 578 OFFCURVE",
"80 480 CURVE SMOOTH",
"80 215 OFFCURVE",
"295 0 OFFCURVE",
"560 0 CURVE SMOOTH",
"825 0 OFFCURVE",
"1040 215 OFFCURVE",
"1040 480 CURVE SMOOTH",
"1040 745 OFFCURVE",
"825 960 OFFCURVE",
"560 960 CURVE SMOOTH",
"529 960 OFFCURVE",
"500 957 OFFCURVE",
"471 952 CURVE",
"789 1479 LINE SMOOTH"
);
},
{
closed = 1;
nodes = (
"880 303 OFFCURVE",
"737 160 OFFCURVE",
"560 160 CURVE SMOOTH",
"383 160 OFFCURVE",
"240 303 OFFCURVE",
"240 480 CURVE SMOOTH",
"240 657 OFFCURVE",
"383 800 OFFCURVE",
"560 800 CURVE SMOOTH",
"737 800 OFFCURVE",
"880 657 OFFCURVE",
"880 480 CURVE SMOOTH"
);
}
);
width = 1120;
}
);
note = "\012    six\012  ";
unicode = 0036;
},
{
color = 4;
glyphname = seven;
lastChange = "2016-08-01 02:22:36 +0000";
layers = (
{
layerId = "4B9C72B8-8622-4F9C-A154-BF8DEE7D8E25";
paths = (
{
closed = 1;
nodes = (
"222 29 OFFCURVE",
"227 36 OFFCURVE",
"232 45 CURVE SMOOTH",
"1028 1477 LINE",
"1036 1490 OFFCURVE",
"1040 1504 OFFCURVE",
"1040 1520 CURVE SMOOTH",
"1040 1564 OFFCURVE",
"1004 1600 OFFCURVE",
"960 1600 CURVE SMOOTH",
"160 1600 LINE SMOOTH",
"116 1600 OFFCURVE",
"80 1564 OFFCURVE",
"80 1520 CURVE SMOOTH",
"80 1476 OFFCURVE",
"116 1440 OFFCURVE",
"160 1440 CURVE SMOOTH",
"825 1440 LINE",
"96 128 LINE",
"85 112 OFFCURVE",
"80 96 OFFCURVE",
"80 80 CURVE SMOOTH",
"80 36 OFFCURVE",
"116 0 OFFCURVE",
"160 0 CURVE SMOOTH",
"182 0 OFFCURVE",
"201 8 OFFCURVE",
"217 24 CURVE SMOOTH"
);
}
);
width = 1120;
}
);
note = "\012    seven\012  ";
unicode = 0037;
},
{
color = 4;
glyphname = eight;
lastChange = "2016-08-01 02:22:36 +0000";
layers = (
{
layerId = "4B9C72B8-8622-4F9C-A154-BF8DEE7D8E25";
paths = (
{
closed = 1;
nodes = (
"276 870 OFFCURVE",
"248 847 OFFCURVE",
"221 820 CURVE SMOOTH",
"127 726 OFFCURVE",
"80 613 OFFCURVE",
"80 480 CURVE SMOOTH",
"80 215 OFFCURVE",
"295 0 OFFCURVE",
"560 0 CURVE SMOOTH",
"825 0 OFFCURVE",
"1040 215 OFFCURVE",
"1040 480 CURVE SMOOTH",
"1040 613 OFFCURVE",
"993 726 OFFCURVE",
"900 820 CURVE SMOOTH",
"873 847 OFFCURVE",
"844 870 OFFCURVE",
"813 889 CURVE",
"823 898 OFFCURVE",
"833 907 OFFCURVE",
"843 917 CURVE SMOOTH",
"921 995 OFFCURVE",
"960 1089 OFFCURVE",
"960 1200 CURVE SMOOTH",
"960 1421 OFFCURVE",
"781 1600 OFFCURVE",
"560 1600 CURVE SMOOTH",
"339 1600 OFFCURVE",
"160 1421 OFFCURVE",
"160 1200 CURVE SMOOTH",
"160 1089 OFFCURVE",
"199 995 OFFCURVE",
"277 917 CURVE SMOOTH",
"287 907 OFFCURVE",
"297 898 OFFCURVE",
"307 889 CURVE"
);
},
{
closed = 1;
nodes = (
"692 1440 OFFCURVE",
"800 1332 OFFCURVE",
"800 1200 CURVE SMOOTH",
"800 1068 OFFCURVE",
"692 960 OFFCURVE",
"560 960 CURVE SMOOTH",
"428 960 OFFCURVE",
"320 1068 OFFCURVE",
"320 1200 CURVE SMOOTH",
"320 1332 OFFCURVE",
"428 1440 OFFCURVE",
"560 1440 CURVE SMOOTH"
);
},
{
closed = 1;
nodes = (
"737 800 OFFCURVE",
"880 657 OFFCURVE",
"880 480 CURVE SMOOTH",
"880 303 OFFCURVE",
"737 160 OFFCURVE",
"560 160 CURVE SMOOTH",
"383 160 OFFCURVE",
"240 303 OFFCURVE",
"240 480 CURVE SMOOTH",
"240 657 OFFCURVE",
"383 800 OFFCURVE",
"560 800 CURVE SMOOTH"
);
}
);
width = 1120;
}
);
note = "\012    eight\012  ";
unicode = 0038;
},
{
color = 4;
glyphname = nine;
lastChange = "2016-08-01 02:22:36 +0000";
layers = (
{
layerId = "4B9C72B8-8622-4F9C-A154-BF8DEE7D8E25";
paths = (
{
closed = 1;
nodes = (
"324 109 OFFCURVE",
"320 95 OFFCURVE",
"320 80 CURVE SMOOTH",
"320 36 OFFCURVE",
"356 0 OFFCURVE",
"400 0 CURVE SMOOTH",
"422 0 OFFCURVE",
"441 8 OFFCURVE",
"457 24 CURVE SMOOTH",
"463 30 OFFCURVE",
"468 37 OFFCURVE",
"472 44 CURVE SMOOTH",
"963 858 LINE",
"1014 935 OFFCURVE",
"1040 1022 OFFCURVE",
"1040 1120 CURVE SMOOTH",
"1040 1385 OFFCURVE",
"825 1600 OFFCURVE",
"560 1600 CURVE SMOOTH",
"295 1600 OFFCURVE",
"80 1385 OFFCURVE",
"80 1120 CURVE SMOOTH",
"80 855 OFFCURVE",
"295 640 OFFCURVE",
"560 640 CURVE SMOOTH",
"591 640 OFFCURVE",
"620 643 OFFCURVE",
"649 648 CURVE",
"331 121 LINE SMOOTH"
);
},
{
closed = 1;
nodes = (
"240 1297 OFFCURVE",
"383 1440 OFFCURVE",
"560 1440 CURVE SMOOTH",
"737 1440 OFFCURVE",
"880 1297 OFFCURVE",
"880 1120 CURVE SMOOTH",
"880 943 OFFCURVE",
"737 800 OFFCURVE",
"560 800 CURVE SMOOTH",
"383 800 OFFCURVE",
"240 943 OFFCURVE",
"240 1120 CURVE SMOOTH"
);
}
);
width = 1120;
}
);
note = "\012    nine\012  ";
unicode = 0039;
},
{
color = 4;
glyphname = colon;
lastChange = "2016-08-01 02:22:36 +0000";
layers = (
{
layerId = "4B9C72B8-8622-4F9C-A154-BF8DEE7D8E25";
paths = (
{
closed = 1;
nodes = (
"320 1068 OFFCURVE",
"267 1121 OFFCURVE",
"200 1121 CURVE SMOOTH",
"133 1121 OFFCURVE",
"80 1068 OFFCURVE",
"80 1001 CURVE SMOOTH",
"80 934 OFFCURVE",
"133 881 OFFCURVE",
"200 881 CURVE SMOOTH",
"267 881 OFFCURVE",
"320 934 OFFCURVE",
"320 1001 CURVE SMOOTH"
);
},
{
closed = 1;
nodes = (
"320 187 OFFCURVE",
"267 240 OFFCURVE",
"200 240 CURVE SMOOTH",
"133 240 OFFCURVE",
"80 187 OFFCURVE",
"80 120 CURVE SMOOTH",
"80 53 OFFCURVE",
"133 0 OFFCURVE",
"200 0 CURVE SMOOTH",
"267 0 OFFCURVE",
"320 53 OFFCURVE",
"320 120 CURVE SMOOTH"
);
}
);
width = 400;
}
);
note = "\012    colon\012  ";
unicode = 003A;
},
{
color = 4;
glyphname = semicolon;
lastChange = "2016-08-01 02:22:36 +0000";
layers = (
{
layerId = "4B9C72B8-8622-4F9C-A154-BF8DEE7D8E25";
paths = (
{
closed = 1;
nodes = (
"320 1068 OFFCURVE",
"267 1121 OFFCURVE",
"200 1121 CURVE SMOOTH",
"133 1121 OFFCURVE",
"80 1068 OFFCURVE",
"80 1001 CURVE SMOOTH",
"80 934 OFFCURVE",
"133 881 OFFCURVE",
"200 881 CURVE SMOOTH",
"267 881 OFFCURVE",
"320 934 OFFCURVE",
"320 1001 CURVE SMOOTH"
);
},
{
closed = 1;
nodes = (
"176 -28 OFFCURVE",
"184 -86 OFFCURVE",
"137 -138 CURVE",
"126 -149 OFFCURVE",
"120 -163 OFFCURVE",
"120 -180 CURVE SMOOTH",
"120 -213 OFFCURVE",
"147 -240 OFFCURVE",
"180 -240 CURVE SMOOTH",
"201 -240 OFFCURVE",
"218 -229 OFFCURVE",
"233 -208 CURVE",
"291 -120 OFFCURVE",
"320 -11 OFFCURVE",
"320 120 CURVE SMOOTH",
"320 187 OFFCURVE",
"267 240 OFFCURVE",
"200 240 CURVE SMOOTH",
"133 240 OFFCURVE",
"80 187 OFFCURVE",
"80 120 CURVE SMOOTH",
"80 87 OFFCURVE",
"92 58 OFFCURVE",
"115 35 CURVE SMOOTH"
);
}
);
width = 400;
}
);
note = "\012    semicolon\012  ";
unicode = 003B;
},
{
color = 4;
glyphname = less;
lastChange = "2016-08-01 02:22:36 +0000";
layers = (
{
layerId = "4B9C72B8-8622-4F9C-A154-BF8DEE7D8E25";
paths = (
{
closed = 1;
nodes = (
"95 773 OFFCURVE",
"80 749 OFFCURVE",
"80 720 CURVE SMOOTH",
"80 691 OFFCURVE",
"95 667 OFFCURVE",
"124 648 CURVE",
"920 170 LINE SMOOTH",
"932 163 OFFCURVE",
"945 160 OFFCURVE",
"960 160 CURVE SMOOTH",
"1004 160 OFFCURVE",
"1040 196 OFFCURVE",
"1040 240 CURVE SMOOTH",
"1040 269 OFFCURVE",
"1026 292 OFFCURVE",
"999 310 CURVE",
"315 720 LINE",
"999 1130 LINE",
"1026 1148 OFFCURVE",
"1040 1171 OFFCURVE",
"1040 1200 CURVE SMOOTH",
"1040 1244 OFFCURVE",
"1004 1280 OFFCURVE",
"960 1280 CURVE SMOOTH",
"945 1280 OFFCURVE",
"932 1277 OFFCURVE",
"920 1270 CURVE SMOOTH",
"124 792 LINE"
);
}
);
width = 1120;
}
);
note = "\012    less\012  ";
unicode = 003C;
},
{
color = 4;
glyphname = equal;
lastChange = "2016-08-01 02:22:36 +0000";
layers = (
{
layerId = "4B9C72B8-8622-4F9C-A154-BF8DEE7D8E25";
paths = (
{
closed = 1;
nodes = (
"924 880 OFFCURVE",
"960 916 OFFCURVE",
"960 960 CURVE SMOOTH",
"960 1004 OFFCURVE",
"924 1040 OFFCURVE",
"880 1040 CURVE SMOOTH",
"160 1040 LINE SMOOTH",
"116 1040 OFFCURVE",
"80 1004 OFFCURVE",
"80 960 CURVE SMOOTH",
"80 916 OFFCURVE",
"116 880 OFFCURVE",
"160 880 CURVE SMOOTH",
"880 880 LINE SMOOTH"
);
},
{
closed = 1;
nodes = (
"116 560 OFFCURVE",
"80 524 OFFCURVE",
"80 480 CURVE SMOOTH",
"80 436 OFFCURVE",
"116 400 OFFCURVE",
"160 399 CURVE SMOOTH",
"880 399 LINE SMOOTH",
"924 400 OFFCURVE",
"960 436 OFFCURVE",
"960 480 CURVE SMOOTH",
"960 524 OFFCURVE",
"924 560 OFFCURVE",
"880 560 CURVE SMOOTH",
"160 560 LINE SMOOTH"
);
}
);
width = 1040;
}
);
note = "\012    equal\012  ";
unicode = 003D;
},
{
color = 4;
glyphname = greater;
lastChange = "2016-08-01 02:22:36 +0000";
layers = (
{
layerId = "4B9C72B8-8622-4F9C-A154-BF8DEE7D8E25";
paths = (
{
closed = 1;
nodes = (
"1040 749 OFFCURVE",
"1025 773 OFFCURVE",
"996 792 CURVE",
"200 1270 LINE SMOOTH",
"188 1277 OFFCURVE",
"175 1280 OFFCURVE",
"160 1280 CURVE SMOOTH",
"116 1280 OFFCURVE",
"80 1244 OFFCURVE",
"80 1200 CURVE SMOOTH",
"80 1171 OFFCURVE",
"94 1148 OFFCURVE",
"121 1130 CURVE",
"805 720 LINE",
"121 310 LINE",
"94 292 OFFCURVE",
"80 269 OFFCURVE",
"80 240 CURVE SMOOTH",
"80 196 OFFCURVE",
"116 160 OFFCURVE",
"160 160 CURVE SMOOTH",
"175 160 OFFCURVE",
"188 163 OFFCURVE",
"200 170 CURVE SMOOTH",
"996 648 LINE",
"1025 667 OFFCURVE",
"1040 691 OFFCURVE",
"1040 720 CURVE SMOOTH"
);
}
);
width = 1120;
}
);
note = "\012    greater\012  ";
unicode = 003E;
},
{
color = 4;
glyphname = question;
lastChange = "2016-08-01 02:22:36 +0000";
layers = (
{
layerId = "4B9C72B8-8622-4F9C-A154-BF8DEE7D8E25";
paths = (
{
closed = 1;
nodes = (
"240 1297 OFFCURVE",
"383 1440 OFFCURVE",
"560 1440 CURVE SMOOTH",
"737 1440 OFFCURVE",
"880 1297 OFFCURVE",
"880 1120 CURVE SMOOTH",
"880 1031 OFFCURVE",
"849 956 OFFCURVE",
"786 893 CURVE",
"621 740 LINE",
"527 646 OFFCURVE",
"480 533 OFFCURVE",
"480 400 CURVE SMOOTH",
"480 356 OFFCURVE",
"516 320 OFFCURVE",
"560 320 CURVE SMOOTH",
"604 320 OFFCURVE",
"640 356 OFFCURVE",
"640 400 CURVE SMOOTH",
"640 489 OFFCURVE",
"671 564 OFFCURVE",
"734 627 CURVE",
"899 780 LINE",
"993 874 OFFCURVE",
"1040 987 OFFCURVE",
"1040 1120 CURVE SMOOTH",
"1040 1385 OFFCURVE",
"825 1600 OFFCURVE",
"560 1600 CURVE SMOOTH",
"295 1600 OFFCURVE",
"80 1385 OFFCURVE",
"80 1120 CURVE SMOOTH",
"80 1076 OFFCURVE",
"116 1040 OFFCURVE",
"160 1040 CURVE SMOOTH",
"204 1040 OFFCURVE",
"240 1076 OFFCURVE",
"240 1120 CURVE SMOOTH"
);
},
{
closed = 1;
nodes = (
"680 187 OFFCURVE",
"627 240 OFFCURVE",
"560 240 CURVE SMOOTH",
"493 240 OFFCURVE",
"440 187 OFFCURVE",
"440 120 CURVE SMOOTH",
"440 53 OFFCURVE",
"493 0 OFFCURVE",
"560 0 CURVE SMOOTH",
"627 0 OFFCURVE",
"680 53 OFFCURVE",
"680 120 CURVE SMOOTH"
);
}
);
width = 1120;
}
);
note = "\012    question\012  ";
unicode = 003F;
},
{
color = 4;
glyphname = at;
lastChange = "2016-08-01 02:22:36 +0000";
layers = (
{
layerId = "4B9C72B8-8622-4F9C-A154-BF8DEE7D8E25";
paths = (
{
closed = 1;
nodes = (
"1520 2 OFFCURVE",
"1600 -80 OFFCURVE",
"1760 -80 CURVE SMOOTH",
"2027 -80 OFFCURVE",
"2160 133 OFFCURVE",
"2160 560 CURVE SMOOTH",
"2160 1135 OFFCURVE",
"1695 1600 OFFCURVE",
"1120 1600 CURVE SMOOTH",
"545 1600 OFFCURVE",
"80 1135 OFFCURVE",
"80 560 CURVE SMOOTH",
"80 -15 OFFCURVE",
"545 -480 OFFCURVE",
"1120 -480 CURVE SMOOTH",
"1276 -480 OFFCURVE",
"1420 -450 OFFCURVE",
"1551 -390 CURVE",
"1561 -386 OFFCURVE",
"1570 -380 OFFCURVE",
"1579 -371 CURVE SMOOTH",
"1594 -356 OFFCURVE",
"1602 -337 OFFCURVE",
"1602 -315 CURVE SMOOTH",
"1602 -271 OFFCURVE",
"1566 -235 OFFCURVE",
"1522 -235 CURVE SMOOTH",
"1507 -235 OFFCURVE",
"1494 -239 OFFCURVE",
"1482 -246 CURVE",
"1371 -295 OFFCURVE",
"1251 -320 OFFCURVE",
"1120 -320 CURVE SMOOTH",
"633 -320 OFFCURVE",
"240 73 OFFCURVE",
"240 560 CURVE SMOOTH",
"240 1047 OFFCURVE",
"633 1440 OFFCURVE",
"1120 1440 CURVE SMOOTH",
"1607 1440 OFFCURVE",
"2000 1047 OFFCURVE",
"2000 560 CURVE SMOOTH",
"2000 240 OFFCURVE",
"1920 80 OFFCURVE",
"1760 80 CURVE SMOOTH",
"1707 80 OFFCURVE",
"1680 107 OFFCURVE",
"1680 160 CURVE SMOOTH",
"1680 560 LINE SMOOTH",
"1680 869 OFFCURVE",
"1429 1120 OFFCURVE",
"1120 1120 CURVE SMOOTH",
"811 1120 OFFCURVE",
"560 869 OFFCURVE",
"560 560 CURVE SMOOTH",
"560 251 OFFCURVE",
"811 0 OFFCURVE",
"1120 0 CURVE SMOOTH",
"1275 0 OFFCURVE",
"1408 56 OFFCURVE",
"1520 167 CURVE"
);
},
{
closed = 1;
nodes = (
"1341 960 OFFCURVE",
"1520 781 OFFCURVE",
"1520 560 CURVE SMOOTH",
"1520 339 OFFCURVE",
"1341 160 OFFCURVE",
"1120 160 CURVE SMOOTH",
"899 160 OFFCURVE",
"720 339 OFFCURVE",
"720 560 CURVE SMOOTH",
"720 781 OFFCURVE",
"899 960 OFFCURVE",
"1120 960 CURVE SMOOTH"
);
}
);
width = 2240;
}
);
note = "\012    at\012  ";
unicode = 0040;
},
{
color = 4;
glyphname = A;
lastChange = "2016-08-01 02:22:36 +0000";
layers = (
{
layerId = "4B9C72B8-8622-4F9C-A154-BF8DEE7D8E25";
paths = (
{
closed = 1;
nodes = (
"1206 49 LINE",
"1210 40 OFFCURVE",
"1216 31 OFFCURVE",
"1224 23 CURVE SMOOTH",
"1239 8 OFFCURVE",
"1258 0 OFFCURVE",
"1280 0 CURVE SMOOTH",
"1324 0 OFFCURVE",
"1360 36 OFFCURVE",
"1360 80 CURVE SMOOTH",
"1360 93 OFFCURVE",
"1358 104 OFFCURVE",
"1353 114 CURVE",
"797 1544 LINE",
"789 1568 OFFCURVE",
"764 1600 OFFCURVE",
"720 1600 CURVE SMOOTH",
"676 1600 OFFCURVE",
"651 1568 OFFCURVE",
"643 1544 CURVE",
"87 114 LINE",
"82 104 OFFCURVE",
"80 93 OFFCURVE",
"80 80 CURVE SMOOTH",
"80 36 OFFCURVE",
"116 0 OFFCURVE",
"160 0 CURVE SMOOTH",
"182 0 OFFCURVE",
"201 8 OFFCURVE",
"217 23 CURVE",
"224 31 OFFCURVE",
"230 40 OFFCURVE",
"234 49 CURVE",
"433 560 LINE",
"1007 560 LINE"
);
},
{
closed = 1;
nodes = (
"720 1299 LINE",
"945 720 LINE",
"495 720 LINE"
);
}
);
width = 1440;
}
);
note = "\012    A\012  ";
unicode = 0041;
},
{
color = 4;
glyphname = B;
lastChange = "2016-08-01 02:22:36 +0000";
layers = (
{
layerId = "4B9C72B8-8622-4F9C-A154-BF8DEE7D8E25";
paths = (
{
closed = 1;
nodes = (
"116 1600 OFFCURVE",
"80 1564 OFFCURVE",
"80 1520 CURVE SMOOTH",
"80 80 LINE SMOOTH",
"80 36 OFFCURVE",
"116 0 OFFCURVE",
"160 0 CURVE SMOOTH",
"560 0 LINE SMOOTH",
"825 0 OFFCURVE",
"1040 215 OFFCURVE",
"1040 480 CURVE SMOOTH",
"1040 613 OFFCURVE",
"993 726 OFFCURVE",
"900 820 CURVE SMOOTH",
"858 861 OFFCURVE",
"812 894 OFFCURVE",
"763 917 CURVE",
"841 995 OFFCURVE",
"880 1089 OFFCURVE",
"880 1200 CURVE SMOOTH",
"880 1421 OFFCURVE",
"701 1600 OFFCURVE",
"480 1600 CURVE SMOOTH",
"160 1600 LINE SMOOTH"
);
},
{
closed = 1;
nodes = (
"612 1440 OFFCURVE",
"720 1332 OFFCURVE",
"720 1200 CURVE SMOOTH",
"720 1068 OFFCURVE",
"612 960 OFFCURVE",
"480 960 CURVE SMOOTH",
"240 960 LINE",
"240 1440 LINE",
"480 1440 LINE SMOOTH"
);
},
{
closed = 1;
nodes = (
"737 800 OFFCURVE",
"880 657 OFFCURVE",
"880 480 CURVE SMOOTH",
"880 303 OFFCURVE",
"737 160 OFFCURVE",
"560 160 CURVE SMOOTH",
"240 160 LINE",
"240 800 LINE",
"560 800 LINE SMOOTH"
);
}
);
width = 1120;
}
);
note = "\012    B\012  ";
unicode = 0042;
},
{
color = 4;
glyphname = C;
lastChange = "2016-08-01 02:22:36 +0000";
layers = (
{
layerId = "4B9C72B8-8622-4F9C-A154-BF8DEE7D8E25";
paths = (
{
closed = 1;
nodes = (
"1309 314 OFFCURVE",
"1293 309 OFFCURVE",
"1280 300 CURVE",
"1166 207 OFFCURVE",
"1033 160 OFFCURVE",
"880 160 CURVE SMOOTH",
"527 160 OFFCURVE",
"240 447 OFFCURVE",
"240 800 CURVE SMOOTH",
"240 1153 OFFCURVE",
"527 1440 OFFCURVE",
"880 1440 CURVE SMOOTH",
"1031 1440 OFFCURVE",
"1162 1395 OFFCURVE",
"1275 1304 CURVE",
"1291 1288 OFFCURVE",
"1310 1280 OFFCURVE",
"1332 1280 CURVE SMOOTH",
"1376 1280 OFFCURVE",
"1412 1316 OFFCURVE",
"1412 1360 CURVE SMOOTH",
"1412 1382 OFFCURVE",
"1404 1401 OFFCURVE",
"1389 1417 CURVE",
"1240 1539 OFFCURVE",
"1071 1600 OFFCURVE",
"880 1600 CURVE SMOOTH",
"439 1600 OFFCURVE",
"80 1241 OFFCURVE",
"80 800 CURVE SMOOTH",
"80 359 OFFCURVE",
"439 0 OFFCURVE",
"880 0 CURVE SMOOTH",
"1067 0 OFFCURVE",
"1234 59 OFFCURVE",
"1383 178 CURVE",
"1398 193 OFFCURVE",
"1406 212 OFFCURVE",
"1406 234 CURVE SMOOTH",
"1406 278 OFFCURVE",
"1370 314 OFFCURVE",
"1326 314 CURVE SMOOTH"
);
}
);
width = 1480;
}
);
note = "\012    C\012  ";
unicode = 0043;
},
{
color = 4;
glyphname = D;
lastChange = "2016-08-01 02:22:36 +0000";
layers = (
{
layerId = "4B9C72B8-8622-4F9C-A154-BF8DEE7D8E25";
paths = (
{
closed = 1;
nodes = (
"116 1600 OFFCURVE",
"80 1564 OFFCURVE",
"80 1520 CURVE SMOOTH",
"80 80 LINE SMOOTH",
"80 36 OFFCURVE",
"116 0 OFFCURVE",
"160 0 CURVE SMOOTH",
"480 0 LINE SMOOTH",
"921 0 OFFCURVE",
"1280 359 OFFCURVE",
"1280 800 CURVE SMOOTH",
"1280 1241 OFFCURVE",
"921 1600 OFFCURVE",
"480 1600 CURVE SMOOTH",
"160 1600 LINE SMOOTH"
);
},
{
closed = 1;
nodes = (
"240 1440 LINE",
"480 1440 LINE SMOOTH",
"833 1440 OFFCURVE",
"1120 1153 OFFCURVE",
"1120 800 CURVE SMOOTH",
"1120 447 OFFCURVE",
"833 160 OFFCURVE",
"480 160 CURVE SMOOTH",
"240 160 LINE"
);
}
);
width = 1360;
}
);
note = "\012    D\012  ";
unicode = 0044;
},
{
color = 4;
glyphname = E;
lastChange = "2016-08-01 02:22:36 +0000";
layers = (
{
layerId = "4B9C72B8-8622-4F9C-A154-BF8DEE7D8E25";
paths = (
{
closed = 1;
nodes = (
"116 1600 OFFCURVE",
"80 1564 OFFCURVE",
"80 1520 CURVE SMOOTH",
"80 80 LINE SMOOTH",
"80 36 OFFCURVE",
"116 0 OFFCURVE",
"160 0 CURVE SMOOTH",
"1120 0 LINE SMOOTH",
"1164 0 OFFCURVE",
"1200 36 OFFCURVE",
"1200 80 CURVE SMOOTH",
"1200 124 OFFCURVE",
"1164 160 OFFCURVE",
"1120 160 CURVE SMOOTH",
"240 160 LINE",
"240 720 LINE",
"880 720 LINE SMOOTH",
"924 720 OFFCURVE",
"960 756 OFFCURVE",
"960 800 CURVE SMOOTH",
"960 844 OFFCURVE",
"924 880 OFFCURVE",
"880 880 CURVE SMOOTH",
"240 880 LINE",
"240 1440 LINE",
"1120 1440 LINE SMOOTH",
"1164 1440 OFFCURVE",
"1200 1476 OFFCURVE",
"1200 1520 CURVE SMOOTH",
"1200 1564 OFFCURVE",
"1164 1600 OFFCURVE",
"1120 1600 CURVE SMOOTH",
"160 1600 LINE SMOOTH"
);
}
);
width = 1280;
}
);
note = "\012    E\012  ";
unicode = 0045;
},
{
color = 4;
glyphname = F;
lastChange = "2016-08-01 02:22:36 +0000";
layers = (
{
layerId = "4B9C72B8-8622-4F9C-A154-BF8DEE7D8E25";
paths = (
{
closed = 1;
nodes = (
"116 1600 OFFCURVE",
"80 1564 OFFCURVE",
"80 1520 CURVE SMOOTH",
"80 80 LINE SMOOTH",
"80 36 OFFCURVE",
"116 0 OFFCURVE",
"160 0 CURVE SMOOTH",
"204 0 OFFCURVE",
"240 36 OFFCURVE",
"240 80 CURVE SMOOTH",
"240 720 LINE",
"880 720 LINE SMOOTH",
"924 720 OFFCURVE",
"960 756 OFFCURVE",
"960 800 CURVE SMOOTH",
"960 844 OFFCURVE",
"924 880 OFFCURVE",
"880 880 CURVE SMOOTH",
"240 880 LINE",
"240 1440 LINE",
"1120 1440 LINE SMOOTH",
"1164 1440 OFFCURVE",
"1200 1476 OFFCURVE",
"1200 1520 CURVE SMOOTH",
"1200 1564 OFFCURVE",
"1164 1600 OFFCURVE",
"1120 1600 CURVE SMOOTH",
"160 1600 LINE SMOOTH"
);
}
);
width = 1280;
}
);
note = "\012    F\012  ";
unicode = 0046;
},
{
color = 4;
glyphname = G;
lastChange = "2016-08-01 02:22:36 +0000";
layers = (
{
layerId = "4B9C72B8-8622-4F9C-A154-BF8DEE7D8E25";
paths = (
{
closed = 1;
nodes = (
"1406 764 OFFCURVE",
"1370 800 OFFCURVE",
"1327 800 CURVE SMOOTH",
"930 800 LINE SMOOTH",
"886 800 OFFCURVE",
"850 764 OFFCURVE",
"850 720 CURVE SMOOTH",
"850 676 OFFCURVE",
"886 640 OFFCURVE",
"930 640 CURVE SMOOTH",
"1246 640 LINE",
"1246 274 LINE",
"1140 198 OFFCURVE",
"1018 160 OFFCURVE",
"880 160 CURVE SMOOTH",
"527 160 OFFCURVE",
"240 447 OFFCURVE",
"240 800 CURVE SMOOTH",
"240 1153 OFFCURVE",
"527 1440 OFFCURVE",
"880 1440 CURVE SMOOTH",
"1031 1440 OFFCURVE",
"1162 1395 OFFCURVE",
"1275 1304 CURVE",
"1291 1288 OFFCURVE",
"1310 1280 OFFCURVE",
"1332 1280 CURVE SMOOTH",
"1376 1280 OFFCURVE",
"1412 1316 OFFCURVE",
"1412 1360 CURVE SMOOTH",
"1412 1382 OFFCURVE",
"1404 1401 OFFCURVE",
"1389 1417 CURVE",
"1240 1539 OFFCURVE",
"1071 1600 OFFCURVE",
"880 1600 CURVE SMOOTH",
"439 1600 OFFCURVE",
"80 1241 OFFCURVE",
"80 800 CURVE SMOOTH",
"80 359 OFFCURVE",
"439 0 OFFCURVE",
"880 0 CURVE SMOOTH",
"1067 0 OFFCURVE",
"1234 59 OFFCURVE",
"1383 178 CURVE",
"1398 193 OFFCURVE",
"1406 212 OFFCURVE",
"1406 234 CURVE SMOOTH",
"1406 720 LINE SMOOTH"
);
}
);
width = 1500;
}
);
note = "\012    G\012  ";
unicode = 0047;
},
{
color = 4;
glyphname = H;
lastChange = "2016-08-01 02:22:36 +0000";
layers = (
{
layerId = "4B9C72B8-8622-4F9C-A154-BF8DEE7D8E25";
paths = (
{
closed = 1;
nodes = (
"80 36 OFFCURVE",
"116 0 OFFCURVE",
"160 0 CURVE SMOOTH",
"204 0 OFFCURVE",
"240 36 OFFCURVE",
"240 80 CURVE SMOOTH",
"240 720 LINE",
"1040 720 LINE",
"1040 80 LINE SMOOTH",
"1040 36 OFFCURVE",
"1076 0 OFFCURVE",
"1120 0 CURVE SMOOTH",
"1164 0 OFFCURVE",
"1200 36 OFFCURVE",
"1200 80 CURVE SMOOTH",
"1200 1520 LINE SMOOTH",
"1200 1564 OFFCURVE",
"1164 1600 OFFCURVE",
"1120 1600 CURVE SMOOTH",
"1076 1600 OFFCURVE",
"1040 1564 OFFCURVE",
"1040 1520 CURVE SMOOTH",
"1040 880 LINE",
"240 880 LINE",
"240 1520 LINE SMOOTH",
"240 1564 OFFCURVE",
"204 1600 OFFCURVE",
"160 1600 CURVE SMOOTH",
"116 1600 OFFCURVE",
"80 1564 OFFCURVE",
"80 1520 CURVE SMOOTH",
"80 80 LINE SMOOTH"
);
}
);
width = 1280;
}
);
note = "\012    H\012  ";
unicode = 0048;
},
{
color = 4;
glyphname = I;
lastChange = "2016-08-01 02:22:36 +0000";
layers = (
{
layerId = "4B9C72B8-8622-4F9C-A154-BF8DEE7D8E25";
paths = (
{
closed = 1;
nodes = (
"160 36 OFFCURVE",
"196 0 OFFCURVE",
"240 0 CURVE SMOOTH",
"284 0 OFFCURVE",
"320 36 OFFCURVE",
"320 80 CURVE SMOOTH",
"320 1520 LINE SMOOTH",
"320 1564 OFFCURVE",
"284 1600 OFFCURVE",
"240 1600 CURVE SMOOTH",
"196 1600 OFFCURVE",
"160 1564 OFFCURVE",
"160 1520 CURVE SMOOTH",
"160 80 LINE SMOOTH"
);
}
);
width = 480;
}
);
note = "\012    I\012  ";
unicode = 0049;
},
{
color = 4;
glyphname = J;
lastChange = "2016-08-01 02:22:36 +0000";
layers = (
{
layerId = "4B9C72B8-8622-4F9C-A154-BF8DEE7D8E25";
paths = (
{
closed = 1;
nodes = (
"80 215 OFFCURVE",
"295 0 OFFCURVE",
"560 0 CURVE SMOOTH",
"825 0 OFFCURVE",
"1040 215 OFFCURVE",
"1040 480 CURVE SMOOTH",
"1040 1520 LINE SMOOTH",
"1040 1564 OFFCURVE",
"1004 1600 OFFCURVE",
"960 1600 CURVE SMOOTH",
"916 1600 OFFCURVE",
"880 1564 OFFCURVE",
"880 1520 CURVE SMOOTH",
"880 480 LINE SMOOTH",
"880 303 OFFCURVE",
"737 160 OFFCURVE",
"560 160 CURVE SMOOTH",
"383 160 OFFCURVE",
"240 303 OFFCURVE",
"240 480 CURVE SMOOTH",
"240 524 OFFCURVE",
"204 560 OFFCURVE",
"160 560 CURVE SMOOTH",
"116 560 OFFCURVE",
"80 524 OFFCURVE",
"80 480 CURVE SMOOTH"
);
}
);
width = 1120;
}
);
note = "\012    J\012  ";
unicode = 004A;
},
{
color = 4;
glyphname = K;
lastChange = "2016-08-01 02:22:36 +0000";
layers = (
{
layerId = "4B9C72B8-8622-4F9C-A154-BF8DEE7D8E25";
paths = (
{
closed = 1;
nodes = (
"80 36 OFFCURVE",
"116 0 OFFCURVE",
"160 0 CURVE SMOOTH",
"204 0 OFFCURVE",
"240 36 OFFCURVE",
"240 80 CURVE SMOOTH",
"240 606 LINE",
"420 786 LINE",
"974 34 LINE SMOOTH",
"990 11 OFFCURVE",
"1013 0 OFFCURVE",
"1042 0 CURVE SMOOTH",
"1074 0 OFFCURVE",
"1120 27 OFFCURVE",
"1120 83 CURVE SMOOTH",
"1120 99 OFFCURVE",
"1115 114 OFFCURVE",
"1105 128 CURVE SMOOTH",
"535 901 LINE",
"1097 1463 LINE SMOOTH",
"1112 1479 OFFCURVE",
"1120 1498 OFFCURVE",
"1120 1520 CURVE SMOOTH",
"1120 1564 OFFCURVE",
"1084 1600 OFFCURVE",
"1040 1600 CURVE SMOOTH",
"1018 1600 OFFCURVE",
"998 1592 OFFCURVE",
"981 1575 CURVE SMOOTH",
"240 834 LINE",
"240 1520 LINE SMOOTH",
"240 1564 OFFCURVE",
"204 1600 OFFCURVE",
"160 1600 CURVE SMOOTH",
"116 1600 OFFCURVE",
"80 1564 OFFCURVE",
"80 1520 CURVE SMOOTH",
"80 80 LINE SMOOTH"
);
}
);
width = 1200;
}
);
note = "\012    K\012  ";
unicode = 004B;
},
{
color = 4;
glyphname = L;
lastChange = "2016-08-01 02:22:36 +0000";
layers = (
{
layerId = "4B9C72B8-8622-4F9C-A154-BF8DEE7D8E25";
paths = (
{
closed = 1;
nodes = (
"80 36 OFFCURVE",
"116 0 OFFCURVE",
"160 0 CURVE SMOOTH",
"1040 0 LINE SMOOTH",
"1084 0 OFFCURVE",
"1120 36 OFFCURVE",
"1120 80 CURVE SMOOTH",
"1120 124 OFFCURVE",
"1084 160 OFFCURVE",
"1040 160 CURVE SMOOTH",
"240 160 LINE",
"240 1520 LINE SMOOTH",
"240 1564 OFFCURVE",
"204 1600 OFFCURVE",
"160 1600 CURVE SMOOTH",
"116 1600 OFFCURVE",
"80 1564 OFFCURVE",
"80 1520 CURVE SMOOTH",
"80 80 LINE SMOOTH"
);
}
);
width = 1200;
}
);
note = "\012    L\012  ";
unicode = 004C;
},
{
color = 4;
glyphname = M;
lastChange = "2016-08-01 02:22:36 +0000";
layers = (
{
layerId = "4B9C72B8-8622-4F9C-A154-BF8DEE7D8E25";
paths = (
{
closed = 1;
nodes = (
"822 16 OFFCURVE",
"847 0 OFFCURVE",
"880 0 CURVE SMOOTH",
"912 0 OFFCURVE",
"935 13 OFFCURVE",
"949 39 CURVE SMOOTH",
"1520 1181 LINE",
"1520 80 LINE SMOOTH",
"1520 36 OFFCURVE",
"1556 0 OFFCURVE",
"1600 0 CURVE SMOOTH",
"1644 0 OFFCURVE",
"1680 36 OFFCURVE",
"1680 80 CURVE SMOOTH",
"1680 1520 LINE SMOOTH",
"1680 1564 OFFCURVE",
"1644 1600 OFFCURVE",
"1600 1600 CURVE SMOOTH",
"1568 1600 OFFCURVE",
"1544 1586 OFFCURVE",
"1529 1558 CURVE SMOOTH",
"880 259 LINE",
"231 1558 LINE SMOOTH",
"216 1586 OFFCURVE",
"192 1600 OFFCURVE",
"160 1600 CURVE SMOOTH",
"116 1600 OFFCURVE",
"80 1564 OFFCURVE",
"80 1520 CURVE SMOOTH",
"80 80 LINE SMOOTH",
"80 36 OFFCURVE",
"116 0 OFFCURVE",
"160 0 CURVE SMOOTH",
"204 0 OFFCURVE",
"240 36 OFFCURVE",
"240 80 CURVE SMOOTH",
"240 1181 LINE",
"806 49 LINE SMOOTH"
);
}
);
width = 1760;
}
);
note = "\012    M\012  ";
unicode = 004D;
},
{
color = 4;
glyphname = N;
lastChange = "2016-08-01 02:22:36 +0000";
layers = (
{
layerId = "4B9C72B8-8622-4F9C-A154-BF8DEE7D8E25";
paths = (
{
closed = 1;
nodes = (
"1220 26 LINE",
"1237 9 OFFCURVE",
"1257 0 OFFCURVE",
"1280 0 CURVE SMOOTH",
"1324 0 OFFCURVE",
"1360 36 OFFCURVE",
"1360 80 CURVE SMOOTH",
"1360 1520 LINE SMOOTH",
"1360 1564 OFFCURVE",
"1324 1600 OFFCURVE",
"1280 1600 CURVE SMOOTH",
"1236 1600 OFFCURVE",
"1200 1564 OFFCURVE",
"1200 1520 CURVE SMOOTH",
"1200 313 LINE",
"222 1571 LINE",
"205 1590 OFFCURVE",
"184 1600 OFFCURVE",
"160 1600 CURVE SMOOTH",
"116 1600 OFFCURVE",
"80 1564 OFFCURVE",
"80 1520 CURVE SMOOTH",
"80 80 LINE SMOOTH",
"80 36 OFFCURVE",
"116 0 OFFCURVE",
"160 0 CURVE SMOOTH",
"204 0 OFFCURVE",
"240 36 OFFCURVE",
"240 80 CURVE SMOOTH",
"240 1286 LINE"
);
}
);
width = 1440;
}
);
note = "\012    N\012  ";
unicode = 004E;
},
{
color = 4;
glyphname = O;
lastChange = "2016-08-01 02:22:36 +0000";
layers = (
{
layerId = "4B9C72B8-8622-4F9C-A154-BF8DEE7D8E25";
paths = (
{
closed = 1;
nodes = (
"1680 1241 OFFCURVE",
"1321 1600 OFFCURVE",
"880 1600 CURVE SMOOTH",
"439 1600 OFFCURVE",
"80 1241 OFFCURVE",
"80 800 CURVE SMOOTH",
"80 359 OFFCURVE",
"439 0 OFFCURVE",
"880 0 CURVE SMOOTH",
"1321 0 OFFCURVE",
"1680 359 OFFCURVE",
"1680 800 CURVE SMOOTH"
);
},
{
closed = 1;
nodes = (
"1233 1440 OFFCURVE",
"1520 1153 OFFCURVE",
"1520 800 CURVE SMOOTH",
"1520 447 OFFCURVE",
"1233 160 OFFCURVE",
"880 160 CURVE SMOOTH",
"527 160 OFFCURVE",
"240 447 OFFCURVE",
"240 800 CURVE SMOOTH",
"240 1153 OFFCURVE",
"527 1440 OFFCURVE",
"880 1440 CURVE SMOOTH"
);
}
);
width = 1760;
}
);
note = "\012    O\012  ";
unicode = 004F;
},
{
color = 4;
glyphname = P;
lastChange = "2016-08-01 02:22:36 +0000";
layers = (
{
layerId = "4B9C72B8-8622-4F9C-A154-BF8DEE7D8E25";
paths = (
{
closed = 1;
nodes = (
"116 1600 OFFCURVE",
"80 1564 OFFCURVE",
"80 1520 CURVE SMOOTH",
"80 80 LINE SMOOTH",
"80 36 OFFCURVE",
"116 0 OFFCURVE",
"160 0 CURVE SMOOTH",
"204 0 OFFCURVE",
"240 36 OFFCURVE",
"240 80 CURVE SMOOTH",
"240 560 LINE",
"480 560 LINE SMOOTH",
"767 560 OFFCURVE",
"1000 793 OFFCURVE",
"1000 1080 CURVE SMOOTH",
"1000 1367 OFFCURVE",
"767 1600 OFFCURVE",
"480 1600 CURVE SMOOTH",
"160 1600 LINE SMOOTH"
);
},
{
closed = 1;
nodes = (
"679 1440 OFFCURVE",
"840 1279 OFFCURVE",
"840 1080 CURVE SMOOTH",
"840 881 OFFCURVE",
"679 720 OFFCURVE",
"480 720 CURVE SMOOTH",
"240 720 LINE",
"240 1440 LINE",
"480 1440 LINE SMOOTH"
);
}
);
width = 1080;
}
);
note = "\012    P\012  ";
unicode = 0050;
},
{
color = 4;
glyphname = Q;
lastChange = "2016-08-01 02:22:36 +0000";
layers = (
{
layerId = "4B9C72B8-8622-4F9C-A154-BF8DEE7D8E25";
paths = (
{
closed = 1;
nodes = (
"1559 8 OFFCURVE",
"1578 0 OFFCURVE",
"1600 0 CURVE SMOOTH",
"1644 0 OFFCURVE",
"1680 36 OFFCURVE",
"1680 80 CURVE SMOOTH",
"1680 101 OFFCURVE",
"1673 120 OFFCURVE",
"1658 136 CURVE SMOOTH",
"1500 294 LINE",
"1620 438 OFFCURVE",
"1680 607 OFFCURVE",
"1680 800 CURVE SMOOTH",
"1680 1241 OFFCURVE",
"1321 1600 OFFCURVE",
"880 1600 CURVE SMOOTH",
"439 1600 OFFCURVE",
"80 1241 OFFCURVE",
"80 800 CURVE SMOOTH",
"80 359 OFFCURVE",
"439 0 OFFCURVE",
"880 0 CURVE SMOOTH",
"1073 0 OFFCURVE",
"1242 60 OFFCURVE",
"1386 180 CURVE",
"1542 24 LINE SMOOTH"
);
},
{
closed = 1;
nodes = (
"1160 205 OFFCURVE",
"1029 160 OFFCURVE",
"880 160 CURVE SMOOTH",
"527 160 OFFCURVE",
"240 447 OFFCURVE",
"240 800 CURVE SMOOTH",
"240 1153 OFFCURVE",
"527 1440 OFFCURVE",
"880 1440 CURVE SMOOTH",
"1233 1440 OFFCURVE",
"1520 1153 OFFCURVE",
"1520 800 CURVE SMOOTH",
"1520 651 OFFCURVE",
"1475 520 OFFCURVE",
"1386 408 CURVE",
"1217 577 LINE SMOOTH",
"1201 592 OFFCURVE",
"1182 600 OFFCURVE",
"1160 600 CURVE SMOOTH",
"1116 600 OFFCURVE",
"1080 564 OFFCURVE",
"1080 520 CURVE SMOOTH",
"1080 498 OFFCURVE",
"1088 479 OFFCURVE",
"1103 463 CURVE SMOOTH",
"1272 294 LINE"
);
}
);
width = 1760;
}
);
note = "\012    Q\012  ";
unicode = 0051;
},
{
color = 4;
glyphname = R;
lastChange = "2016-08-01 02:22:36 +0000";
layers = (
{
layerId = "4B9C72B8-8622-4F9C-A154-BF8DEE7D8E25";
paths = (
{
closed = 1;
nodes = (
"116 1600 OFFCURVE",
"80 1564 OFFCURVE",
"80 1520 CURVE SMOOTH",
"80 80 LINE SMOOTH",
"80 36 OFFCURVE",
"116 0 OFFCURVE",
"160 0 CURVE SMOOTH",
"204 0 OFFCURVE",
"240 36 OFFCURVE",
"240 80 CURVE SMOOTH",
"240 640 LINE",
"560 640 LINE SMOOTH",
"572 640 OFFCURVE",
"584 640 OFFCURVE",
"595 641 CURVE",
"970 41 LINE SMOOTH",
"988 14 OFFCURVE",
"1011 0 OFFCURVE",
"1040 0 CURVE SMOOTH",
"1084 0 OFFCURVE",
"1120 36 OFFCURVE",
"1120 80 CURVE SMOOTH",
"1120 97 OFFCURVE",
"1116 111 OFFCURVE",
"1107 124 CURVE",
"759 682 LINE",
"810 705 OFFCURVE",
"857 738 OFFCURVE",
"900 781 CURVE SMOOTH",
"993 874 OFFCURVE",
"1040 987 OFFCURVE",
"1040 1120 CURVE SMOOTH",
"1040 1385 OFFCURVE",
"825 1600 OFFCURVE",
"560 1600 CURVE SMOOTH",
"160 1600 LINE SMOOTH"
);
},
{
closed = 1;
nodes = (
"737 1440 OFFCURVE",
"880 1297 OFFCURVE",
"880 1120 CURVE SMOOTH",
"880 943 OFFCURVE",
"737 800 OFFCURVE",
"560 800 CURVE SMOOTH",
"240 800 LINE",
"240 1440 LINE",
"560 1440 LINE SMOOTH"
);
}
);
width = 1200;
}
);
note = "\012    R\012  ";
unicode = 0052;
},
{
color = 4;
glyphname = S;
lastChange = "2016-08-01 02:22:36 +0000";
layers = (
{
layerId = "4B9C72B8-8622-4F9C-A154-BF8DEE7D8E25";
paths = (
{
closed = 1;
nodes = (
"619 785 OFFCURVE",
"696 743 OFFCURVE",
"745 688 CURVE SMOOTH",
"858 553 OFFCURVE",
"842 351 OFFCURVE",
"707 237 CURVE SMOOTH",
"572 123 OFFCURVE",
"369 138 OFFCURVE",
"256 274 CURVE",
"245 285 OFFCURVE",
"236 297 OFFCURVE",
"228 310 CURVE",
"211 335 OFFCURVE",
"189 347 OFFCURVE",
"160 347 CURVE SMOOTH",
"116 347 OFFCURVE",
"80 311 OFFCURVE",
"80 267 CURVE SMOOTH",
"80 249 OFFCURVE",
"85 233 OFFCURVE",
"96 219 CURVE",
"107 202 OFFCURVE",
"120 185 OFFCURVE",
"134 170 CURVE SMOOTH",
"237 57 OFFCURVE",
"361 0 OFFCURVE",
"504 0 CURVE SMOOTH",
"733 0 OFFCURVE",
"957 177 OFFCURVE",
"978 441 CURVE SMOOTH",
"979 456 OFFCURVE",
"980 472 OFFCURVE",
"980 487 CURVE SMOOTH",
"980 600 OFFCURVE",
"942 702 OFFCURVE",
"867 791 CURVE SMOOTH",
"794 874 OFFCURVE",
"688 930 OFFCURVE",
"549 961 CURVE",
"470 982 OFFCURVE",
"412 1009 OFFCURVE",
"377 1043 CURVE",
"290 1144 OFFCURVE",
"303 1295 OFFCURVE",
"404 1381 CURVE SMOOTH",
"505 1467 OFFCURVE",
"655 1454 OFFCURVE",
"742 1353 CURVE",
"779 1304 LINE SMOOTH",
"791 1288 OFFCURVE",
"810 1280 OFFCURVE",
"835 1280 CURVE SMOOTH",
"879 1280 OFFCURVE",
"915 1316 OFFCURVE",
"915 1360 CURVE SMOOTH",
"915 1392 OFFCURVE",
"893 1422 OFFCURVE",
"864 1457 CURVE",
"777 1552 OFFCURVE",
"676 1600 OFFCURVE",
"560 1600 CURVE SMOOTH",
"462 1600 OFFCURVE",
"375 1568 OFFCURVE",
"300 1503 CURVE SMOOTH",
"132 1360 OFFCURVE",
"111 1107 OFFCURVE",
"254 939 CURVE",
"326 872 OFFCURVE",
"413 830 OFFCURVE",
"514 812 CURVE"
);
}
);
width = 1060;
}
);
note = "\012    S\012  ";
unicode = 0053;
},
{
color = 4;
glyphname = T;
lastChange = "2016-08-01 02:22:36 +0000";
layers = (
{
layerId = "4B9C72B8-8622-4F9C-A154-BF8DEE7D8E25";
paths = (
{
closed = 1;
nodes = (
"600 80 LINE SMOOTH",
"600 36 OFFCURVE",
"636 0 OFFCURVE",
"680 0 CURVE SMOOTH",
"724 0 OFFCURVE",
"760 36 OFFCURVE",
"760 80 CURVE SMOOTH",
"760 1440 LINE",
"1200 1440 LINE SMOOTH",
"1244 1440 OFFCURVE",
"1280 1476 OFFCURVE",
"1280 1520 CURVE SMOOTH",
"1280 1564 OFFCURVE",
"1244 1600 OFFCURVE",
"1200 1600 CURVE SMOOTH",
"160 1600 LINE SMOOTH",
"116 1600 OFFCURVE",
"80 1564 OFFCURVE",
"80 1520 CURVE SMOOTH",
"80 1476 OFFCURVE",
"116 1440 OFFCURVE",
"160 1440 CURVE SMOOTH",
"600 1440 LINE"
);
}
);
width = 1360;
}
);
note = "\012    T\012  ";
unicode = 0054;
},
{
color = 4;
glyphname = U;
lastChange = "2016-08-01 02:22:36 +0000";
layers = (
{
layerId = "4B9C72B8-8622-4F9C-A154-BF8DEE7D8E25";
paths = (
{
closed = 1;
nodes = (
"80 251 OFFCURVE",
"331 0 OFFCURVE",
"640 0 CURVE SMOOTH",
"949 0 OFFCURVE",
"1200 251 OFFCURVE",
"1200 560 CURVE SMOOTH",
"1200 1520 LINE SMOOTH",
"1200 1564 OFFCURVE",
"1164 1600 OFFCURVE",
"1120 1600 CURVE SMOOTH",
"1076 1600 OFFCURVE",
"1040 1564 OFFCURVE",
"1040 1520 CURVE SMOOTH",
"1040 560 LINE SMOOTH",
"1040 339 OFFCURVE",
"861 160 OFFCURVE",
"640 160 CURVE SMOOTH",
"419 160 OFFCURVE",
"240 339 OFFCURVE",
"240 560 CURVE SMOOTH",
"240 1520 LINE SMOOTH",
"240 1564 OFFCURVE",
"204 1600 OFFCURVE",
"160 1600 CURVE SMOOTH",
"116 1600 OFFCURVE",
"80 1564 OFFCURVE",
"80 1520 CURVE SMOOTH",
"80 560 LINE SMOOTH"
);
}
);
width = 1280;
}
);
note = "\012    U\012  ";
unicode = 0055;
},
{
color = 4;
glyphname = V;
lastChange = "2016-08-01 02:22:36 +0000";
layers = (
{
layerId = "4B9C72B8-8622-4F9C-A154-BF8DEE7D8E25";
paths = (
{
closed = 1;
nodes = (
"784 31 OFFCURVE",
"789 39 OFFCURVE",
"793 50 CURVE SMOOTH",
"1350 1475 LINE",
"1357 1490 OFFCURVE",
"1360 1505 OFFCURVE",
"1360 1520 CURVE SMOOTH",
"1360 1564 OFFCURVE",
"1324 1600 OFFCURVE",
"1280 1600 CURVE SMOOTH",
"1245 1600 OFFCURVE",
"1220 1585 OFFCURVE",
"1207 1554 CURVE SMOOTH",
"720 301 LINE",
"233 1554 LINE SMOOTH",
"220 1585 OFFCURVE",
"195 1600 OFFCURVE",
"160 1600 CURVE SMOOTH",
"116 1600 OFFCURVE",
"80 1564 OFFCURVE",
"80 1520 CURVE SMOOTH",
"80 1505 OFFCURVE",
"83 1490 OFFCURVE",
"90 1475 CURVE",
"647 50 LINE SMOOTH",
"651 39 OFFCURVE",
"657 31 OFFCURVE",
"664 24 CURVE SMOOTH",
"679 8 OFFCURVE",
"698 0 OFFCURVE",
"720 0 CURVE SMOOTH",
"742 0 OFFCURVE",
"761 8 OFFCURVE",
"777 24 CURVE SMOOTH"
);
}
);
width = 1440;
}
);
note = "\012    V\012  ";
unicode = 0056;
},
{
color = 4;
glyphname = W;
lastChange = "2016-08-01 02:22:36 +0000";
layers = (
{
layerId = "4B9C72B8-8622-4F9C-A154-BF8DEE7D8E25";
paths = (
{
closed = 1;
nodes = (
"893 1567 OFFCURVE",
"887 1557 OFFCURVE",
"884 1547 CURVE SMOOTH",
"560 379 LINE",
"236 1547 LINE",
"228 1568 OFFCURVE",
"204 1600 OFFCURVE",
"160 1600 CURVE SMOOTH",
"116 1600 OFFCURVE",
"80 1564 OFFCURVE",
"80 1520 CURVE SMOOTH",
"80 1509 OFFCURVE",
"82 1497 OFFCURVE",
"86 1485 CURVE",
"479 66 LINE SMOOTH",
"488 34 OFFCURVE",
"516 0 OFFCURVE",
"560 0 CURVE SMOOTH",
"604 0 OFFCURVE",
"631 34 OFFCURVE",
"642 67 CURVE",
"960 1218 LINE",
"1279 66 LINE SMOOTH",
"1288 34 OFFCURVE",
"1316 0 OFFCURVE",
"1360 0 CURVE SMOOTH",
"1404 0 OFFCURVE",
"1431 34 OFFCURVE",
"1442 67 CURVE",
"1834 1485 LINE",
"1838 1497 OFFCURVE",
"1840 1509 OFFCURVE",
"1840 1520 CURVE SMOOTH",
"1840 1564 OFFCURVE",
"1804 1600 OFFCURVE",
"1760 1600 CURVE SMOOTH",
"1716 1600 OFFCURVE",
"1692 1568 OFFCURVE",
"1684 1547 CURVE",
"1360 379 LINE",
"1036 1547 LINE",
"1028 1568 OFFCURVE",
"1004 1600 OFFCURVE",
"960 1600 CURVE SMOOTH",
"938 1600 OFFCURVE",
"919 1592 OFFCURVE",
"904 1577 CURVE"
);
}
);
width = 1920;
}
);
note = "\012    W\012  ";
unicode = 0057;
},
{
color = 4;
glyphname = X;
lastChange = "2016-08-01 02:22:36 +0000";
layers = (
{
layerId = "4B9C72B8-8622-4F9C-A154-BF8DEE7D8E25";
paths = (
{
closed = 1;
nodes = (
"207 1589 OFFCURVE",
"185 1600 OFFCURVE",
"160 1600 CURVE SMOOTH",
"116 1600 OFFCURVE",
"80 1564 OFFCURVE",
"80 1520 CURVE SMOOTH",
"80 1503 OFFCURVE",
"85 1487 OFFCURVE",
"94 1474 CURVE",
"618 800 LINE",
"97 130 LINE SMOOTH",
"86 115 OFFCURVE",
"80 99 OFFCURVE",
"80 80 CURVE SMOOTH",
"80 36 OFFCURVE",
"116 0 OFFCURVE",
"160 0 CURVE SMOOTH",
"185 0 OFFCURVE",
"206 9 OFFCURVE",
"221 28 CURVE SMOOTH",
"720 669 LINE",
"1219 28 LINE SMOOTH",
"1234 9 OFFCURVE",
"1255 0 OFFCURVE",
"1280 0 CURVE SMOOTH",
"1324 0 OFFCURVE",
"1360 36 OFFCURVE",
"1360 80 CURVE SMOOTH",
"1360 99 OFFCURVE",
"1354 115 OFFCURVE",
"1343 130 CURVE SMOOTH",
"822 800 LINE",
"1346 1474 LINE",
"1355 1487 OFFCURVE",
"1360 1503 OFFCURVE",
"1360 1520 CURVE SMOOTH",
"1360 1564 OFFCURVE",
"1324 1600 OFFCURVE",
"1280 1600 CURVE SMOOTH",
"1255 1600 OFFCURVE",
"1233 1589 OFFCURVE",
"1214 1566 CURVE SMOOTH",
"720 931 LINE",
"226 1566 LINE SMOOTH"
);
}
);
width = 1440;
}
);
note = "\012    X\012  ";
unicode = 0058;
},
{
color = 4;
glyphname = Y;
lastChange = "2016-08-01 02:22:36 +0000";
layers = (
{
layerId = "4B9C72B8-8622-4F9C-A154-BF8DEE7D8E25";
paths = (
{
closed = 1;
nodes = (
"1187 1475 LINE SMOOTH",
"1196 1488 OFFCURVE",
"1200 1503 OFFCURVE",
"1200 1520 CURVE SMOOTH",
"1200 1564 OFFCURVE",
"1164 1600 OFFCURVE",
"1120 1600 CURVE SMOOTH",
"1093 1600 OFFCURVE",
"1071 1589 OFFCURVE",
"1055 1567 CURVE",
"640 945 LINE",
"225 1567 LINE",
"209 1589 OFFCURVE",
"187 1600 OFFCURVE",
"160 1600 CURVE SMOOTH",
"116 1600 OFFCURVE",
"80 1564 OFFCURVE",
"80 1520 CURVE SMOOTH",
"80 1503 OFFCURVE",
"84 1488 OFFCURVE",
"93 1475 CURVE SMOOTH",
"560 776 LINE",
"560 80 LINE SMOOTH",
"560 36 OFFCURVE",
"596 0 OFFCURVE",
"640 0 CURVE SMOOTH",
"684 0 OFFCURVE",
"720 36 OFFCURVE",
"720 80 CURVE SMOOTH",
"720 776 LINE"
);
}
);
width = 1280;
}
);
note = "\012    Y\012  ";
unicode = 0059;
},
{
color = 4;
glyphname = Z;
lastChange = "2016-08-01 02:22:36 +0000";
layers = (
{
layerId = "4B9C72B8-8622-4F9C-A154-BF8DEE7D8E25";
paths = (
{
closed = 1;
nodes = (
"97 130 LINE SMOOTH",
"86 115 OFFCURVE",
"80 99 OFFCURVE",
"80 80 CURVE SMOOTH",
"80 36 OFFCURVE",
"116 0 OFFCURVE",
"160 0 CURVE SMOOTH",
"1280 0 LINE SMOOTH",
"1324 0 OFFCURVE",
"1360 36 OFFCURVE",
"1360 80 CURVE SMOOTH",
"1360 124 OFFCURVE",
"1324 160 OFFCURVE",
"1280 160 CURVE SMOOTH",
"324 160 LINE",
"1346 1474 LINE",
"1355 1487 OFFCURVE",
"1360 1503 OFFCURVE",
"1360 1520 CURVE SMOOTH",
"1360 1564 OFFCURVE",
"1324 1600 OFFCURVE",
"1280 1600 CURVE SMOOTH",
"160 1600 LINE SMOOTH",
"116 1600 OFFCURVE",
"80 1564 OFFCURVE",
"80 1520 CURVE SMOOTH",
"80 1476 OFFCURVE",
"116 1440 OFFCURVE",
"160 1440 CURVE SMOOTH",
"1116 1440 LINE"
);
}
);
width = 1440;
}
);
note = "\012    Z\012  ";
unicode = 005A;
},
{
color = 4;
glyphname = bracketleft;
lastChange = "2016-08-01 02:22:36 +0000";
layers = (
{
layerId = "4B9C72B8-8622-4F9C-A154-BF8DEE7D8E25";
paths = (
{
closed = 1;
nodes = (
"116 1600 OFFCURVE",
"80 1564 OFFCURVE",
"80 1520 CURVE SMOOTH",
"80 -400 LINE SMOOTH",
"80 -444 OFFCURVE",
"116 -480 OFFCURVE",
"160 -480 CURVE SMOOTH",
"480 -480 LINE SMOOTH",
"524 -480 OFFCURVE",
"560 -444 OFFCURVE",
"560 -400 CURVE SMOOTH",
"560 -356 OFFCURVE",
"524 -320 OFFCURVE",
"480 -320 CURVE SMOOTH",
"240 -320 LINE",
"240 1440 LINE",
"480 1440 LINE SMOOTH",
"524 1440 OFFCURVE",
"560 1476 OFFCURVE",
"560 1520 CURVE SMOOTH",
"560 1564 OFFCURVE",
"524 1600 OFFCURVE",
"480 1600 CURVE SMOOTH",
"160 1600 LINE SMOOTH"
);
}
);
width = 640;
}
);
note = "\012    bracketleft\012  ";
unicode = 005B;
},
{
color = 4;
glyphname = backslash;
lastChange = "2016-08-01 02:22:36 +0000";
layers = (
{
layerId = "4B9C72B8-8622-4F9C-A154-BF8DEE7D8E25";
paths = (
{
closed = 1;
nodes = (
"229 1562 OFFCURVE",
"224 1570 OFFCURVE",
"217 1577 CURVE SMOOTH",
"201 1592 OFFCURVE",
"182 1600 OFFCURVE",
"160 1600 CURVE SMOOTH",
"116 1600 OFFCURVE",
"80 1564 OFFCURVE",
"80 1520 CURVE SMOOTH",
"80 1508 OFFCURVE",
"82 1497 OFFCURVE",
"87 1486 CURVE",
"727 -114 LINE",
"731 -122 OFFCURVE",
"736 -129 OFFCURVE",
"743 -136 CURVE SMOOTH",
"759 -152 OFFCURVE",
"778 -160 OFFCURVE",
"800 -160 CURVE SMOOTH",
"844 -160 OFFCURVE",
"880 -124 OFFCURVE",
"880 -80 CURVE SMOOTH",
"880 -68 OFFCURVE",
"878 -57 OFFCURVE",
"873 -46 CURVE",
"233 1554 LINE"
);
}
);
width = 960;
}
);
note = "\012    backslash\012  ";
unicode = 005C;
},
{
color = 4;
glyphname = bracketright;
lastChange = "2016-08-01 02:22:36 +0000";
layers = (
{
layerId = "4B9C72B8-8622-4F9C-A154-BF8DEE7D8E25";
paths = (
{
closed = 1;
nodes = (
"560 1564 OFFCURVE",
"524 1600 OFFCURVE",
"480 1600 CURVE SMOOTH",
"160 1600 LINE SMOOTH",
"116 1600 OFFCURVE",
"80 1564 OFFCURVE",
"80 1520 CURVE SMOOTH",
"80 1476 OFFCURVE",
"116 1440 OFFCURVE",
"160 1440 CURVE SMOOTH",
"400 1440 LINE",
"400 -320 LINE",
"160 -320 LINE SMOOTH",
"116 -320 OFFCURVE",
"80 -356 OFFCURVE",
"80 -400 CURVE SMOOTH",
"80 -444 OFFCURVE",
"116 -480 OFFCURVE",
"160 -480 CURVE SMOOTH",
"480 -480 LINE SMOOTH",
"524 -480 OFFCURVE",
"560 -444 OFFCURVE",
"560 -400 CURVE SMOOTH",
"560 1520 LINE SMOOTH"
);
}
);
width = 640;
}
);
note = "\012    bracketright\012  ";
unicode = 005D;
},
{
color = 4;
glyphname = asciicircum;
lastChange = "2016-08-01 02:22:36 +0000";
layers = (
{
layerId = "4B9C72B8-8622-4F9C-A154-BF8DEE7D8E25";
paths = (
{
closed = 1;
nodes = (
"752 970 OFFCURVE",
"773 960 OFFCURVE",
"800 960 CURVE SMOOTH",
"844 960 OFFCURVE",
"880 996 OFFCURVE",
"880 1040 CURVE SMOOTH",
"880 1055 OFFCURVE",
"876 1069 OFFCURVE",
"869 1081 CURVE",
"545 1567 LINE SMOOTH",
"530 1589 OFFCURVE",
"509 1600 OFFCURVE",
"480 1600 CURVE SMOOTH",
"451 1600 OFFCURVE",
"430 1589 OFFCURVE",
"415 1567 CURVE SMOOTH",
"91 1081 LINE",
"84 1069 OFFCURVE",
"80 1055 OFFCURVE",
"80 1040 CURVE SMOOTH",
"80 996 OFFCURVE",
"116 960 OFFCURVE",
"160 960 CURVE SMOOTH",
"187 960 OFFCURVE",
"208 970 OFFCURVE",
"224 991 CURVE",
"480 1375 LINE",
"736 991 LINE"
);
}
);
width = 960;
}
);
note = "\012    asciicircum\012  ";
unicode = 005E;
},
{
color = 4;
glyphname = underscore;
lastChange = "2016-08-01 02:22:36 +0000";
layers = (
{
layerId = "4B9C72B8-8622-4F9C-A154-BF8DEE7D8E25";
paths = (
{
closed = 1;
nodes = (
"1004 -160 OFFCURVE",
"1040 -124 OFFCURVE",
"1040 -80 CURVE SMOOTH",
"1040 -36 OFFCURVE",
"1004 0 OFFCURVE",
"960 0 CURVE SMOOTH",
"0 0 LINE SMOOTH",
"-44 0 OFFCURVE",
"-80 -36 OFFCURVE",
"-80 -80 CURVE SMOOTH",
"-80 -124 OFFCURVE",
"-44 -160 OFFCURVE",
"0 -160 CURVE SMOOTH",
"960 -160 LINE SMOOTH"
);
}
);
width = 960;
}
);
note = "\012    underscore\012  ";
unicode = 005F;
},
{
color = 4;
glyphname = grave;
lastChange = "2016-08-01 02:22:36 +0000";
layers = (
{
layerId = "4B9C72B8-8622-4F9C-A154-BF8DEE7D8E25";
paths = (
{
closed = 1;
nodes = (
"80 1499 OFFCURVE",
"87 1480 OFFCURVE",
"102 1464 CURVE SMOOTH",
"345 1221 LINE SMOOTH",
"360 1207 OFFCURVE",
"379 1200 OFFCURVE",
"400 1200 CURVE SMOOTH",
"444 1200 OFFCURVE",
"480 1236 OFFCURVE",
"480 1280 CURVE SMOOTH",
"480 1301 OFFCURVE",
"473 1319 OFFCURVE",
"460 1334 CURVE",
"217 1577 LINE SMOOTH",
"201 1592 OFFCURVE",
"182 1600 OFFCURVE",
"160 1600 CURVE SMOOTH",
"116 1600 OFFCURVE",
"80 1564 OFFCURVE",
"80 1520 CURVE SMOOTH"
);
}
);
width = 560;
}
);
note = "\012    grave\012  ";
unicode = 0060;
},
{
color = 4;
glyphname = a;
lastChange = "2016-08-01 02:22:36 +0000";
layers = (
{
layerId = "4B9C72B8-8622-4F9C-A154-BF8DEE7D8E25";
paths = (
{
closed = 1;
nodes = (
"1040 36 OFFCURVE",
"1076 0 OFFCURVE",
"1120 0 CURVE SMOOTH",
"1164 0 OFFCURVE",
"1200 36 OFFCURVE",
"1200 80 CURVE SMOOTH",
"1200 560 LINE SMOOTH",
"1200 869 OFFCURVE",
"949 1120 OFFCURVE",
"640 1120 CURVE SMOOTH",
"331 1120 OFFCURVE",
"80 869 OFFCURVE",
"80 560 CURVE SMOOTH",
"80 251 OFFCURVE",
"331 0 OFFCURVE",
"640 0 CURVE SMOOTH",
"795 0 OFFCURVE",
"928 56 OFFCURVE",
"1040 168 CURVE",
"1040 80 LINE SMOOTH"
);
},
{
closed = 1;
nodes = (
"861 960 OFFCURVE",
"1040 781 OFFCURVE",
"1040 560 CURVE SMOOTH",
"1040 339 OFFCURVE",
"861 160 OFFCURVE",
"640 160 CURVE SMOOTH",
"419 160 OFFCURVE",
"240 339 OFFCURVE",
"240 560 CURVE SMOOTH",
"240 781 OFFCURVE",
"419 960 OFFCURVE",
"640 960 CURVE SMOOTH"
);
}
);
width = 1280;
}
);
note = "\012    a\012  ";
unicode = 0061;
},
{
color = 4;
glyphname = b;
lastChange = "2016-08-01 02:22:36 +0000";
layers = (
{
layerId = "4B9C72B8-8622-4F9C-A154-BF8DEE7D8E25";
paths = (
{
closed = 1;
nodes = (
"240 1566 OFFCURVE",
"204 1602 OFFCURVE",
"160 1602 CURVE SMOOTH",
"116 1602 OFFCURVE",
"80 1566 OFFCURVE",
"80 1522 CURVE SMOOTH",
"80 560 LINE SMOOTH",
"80 251 OFFCURVE",
"331 0 OFFCURVE",
"640 0 CURVE SMOOTH",
"949 0 OFFCURVE",
"1200 251 OFFCURVE",
"1200 560 CURVE SMOOTH",
"1200 869 OFFCURVE",
"949 1120 OFFCURVE",
"640 1120 CURVE SMOOTH",
"485 1120 OFFCURVE",
"353 1065 OFFCURVE",
"244 956 CURVE SMOOTH",
"240 952 LINE",
"240 1522 LINE SMOOTH"
);
},
{
closed = 1;
nodes = (
"419 160 OFFCURVE",
"240 339 OFFCURVE",
"240 560 CURVE SMOOTH",
"240 781 OFFCURVE",
"419 960 OFFCURVE",
"640 960 CURVE SMOOTH",
"861 960 OFFCURVE",
"1040 781 OFFCURVE",
"1040 560 CURVE SMOOTH",
"1040 339 OFFCURVE",
"861 160 OFFCURVE",
"640 160 CURVE SMOOTH"
);
}
);
width = 1280;
}
);
note = "\012    b\012  ";
unicode = 0062;
},
{
color = 4;
glyphname = c;
lastChange = "2016-08-01 02:22:36 +0000";
layers = (
{
layerId = "4B9C72B8-8622-4F9C-A154-BF8DEE7D8E25";
paths = (
{
closed = 1;
nodes = (
"931 274 OFFCURVE",
"915 269 OFFCURVE",
"901 258 CURVE",
"827 193 OFFCURVE",
"740 160 OFFCURVE",
"640 160 CURVE SMOOTH",
"419 160 OFFCURVE",
"240 339 OFFCURVE",
"240 560 CURVE SMOOTH",
"240 781 OFFCURVE",
"419 960 OFFCURVE",
"640 960 CURVE SMOOTH",
"740 960 OFFCURVE",
"827 927 OFFCURVE",
"902 861 CURVE",
"917 849 OFFCURVE",
"934 843 OFFCURVE",
"953 843 CURVE SMOOTH",
"997 843 OFFCURVE",
"1033 879 OFFCURVE",
"1033 923 CURVE SMOOTH",
"1033 948 OFFCURVE",
"1024 968 OFFCURVE",
"1005 985 CURVE SMOOTH",
"902 1075 OFFCURVE",
"780 1120 OFFCURVE",
"640 1120 CURVE SMOOTH",
"331 1120 OFFCURVE",
"80 869 OFFCURVE",
"80 560 CURVE SMOOTH",
"80 251 OFFCURVE",
"331 0 OFFCURVE",
"640 0 CURVE SMOOTH",
"780 0 OFFCURVE",
"902 45 OFFCURVE",
"1005 135 CURVE",
"1022 152 OFFCURVE",
"1030 172 OFFCURVE",
"1030 194 CURVE SMOOTH",
"1030 238 OFFCURVE",
"994 274 OFFCURVE",
"950 274 CURVE SMOOTH"
);
}
);
width = 1120;
}
);
note = "\012    c\012  ";
unicode = 0063;
},
{
color = 4;
glyphname = d;
lastChange = "2016-08-01 02:22:36 +0000";
layers = (
{
layerId = "4B9C72B8-8622-4F9C-A154-BF8DEE7D8E25";
paths = (
{
closed = 1;
nodes = (
"1036 956 LINE SMOOTH",
"927 1065 OFFCURVE",
"795 1120 OFFCURVE",
"640 1120 CURVE SMOOTH",
"331 1120 OFFCURVE",
"80 869 OFFCURVE",
"80 560 CURVE SMOOTH",
"80 251 OFFCURVE",
"331 0 OFFCURVE",
"640 0 CURVE SMOOTH",
"949 0 OFFCURVE",
"1200 251 OFFCURVE",
"1200 560 CURVE SMOOTH",
"1200 1522 LINE SMOOTH",
"1200 1566 OFFCURVE",
"1164 1602 OFFCURVE",
"1120 1602 CURVE SMOOTH",
"1076 1602 OFFCURVE",
"1040 1566 OFFCURVE",
"1040 1522 CURVE SMOOTH",
"1040 952 LINE"
);
},
{
closed = 1;
nodes = (
"1040 339 OFFCURVE",
"861 160 OFFCURVE",
"640 160 CURVE SMOOTH",
"419 160 OFFCURVE",
"240 339 OFFCURVE",
"240 560 CURVE SMOOTH",
"240 781 OFFCURVE",
"419 960 OFFCURVE",
"640 960 CURVE SMOOTH",
"861 960 OFFCURVE",
"1040 781 OFFCURVE",
"1040 560 CURVE SMOOTH"
);
}
);
width = 1280;
}
);
note = "\012    d\012  ";
unicode = 0064;
},
{
color = 4;
glyphname = e;
lastChange = "2016-08-01 02:22:36 +0000";
layers = (
{
layerId = "4B9C72B8-8622-4F9C-A154-BF8DEE7D8E25";
paths = (
{
closed = 1;
nodes = (
"929 272 OFFCURVE",
"913 266 OFFCURVE",
"898 255 CURVE",
"826 192 OFFCURVE",
"740 160 OFFCURVE",
"640 160 CURVE SMOOTH",
"419 160 OFFCURVE",
"276 327 OFFCURVE",
"247 480 CURVE",
"1120 480 LINE SMOOTH",
"1164 480 OFFCURVE",
"1200 516 OFFCURVE",
"1200 560 CURVE SMOOTH",
"1200 869 OFFCURVE",
"949 1120 OFFCURVE",
"640 1120 CURVE SMOOTH",
"331 1120 OFFCURVE",
"80 869 OFFCURVE",
"80 560 CURVE SMOOTH",
"80 251 OFFCURVE",
"331 0 OFFCURVE",
"640 0 CURVE SMOOTH",
"780 0 OFFCURVE",
"902 45 OFFCURVE",
"1005 135 CURVE",
"1020 151 OFFCURVE",
"1028 170 OFFCURVE",
"1028 192 CURVE SMOOTH",
"1028 236 OFFCURVE",
"992 272 OFFCURVE",
"948 272 CURVE SMOOTH"
);
},
{
closed = 1;
nodes = (
"276 793 OFFCURVE",
"419 960 OFFCURVE",
"640 960 CURVE SMOOTH",
"861 960 OFFCURVE",
"1004 793 OFFCURVE",
"1033 640 CURVE",
"247 640 LINE"
);
}
);
width = 1280;
}
);
note = "\012    e\012  ";
unicode = 0065;
},
{
color = 4;
glyphname = f;
lastChange = "2016-08-01 02:22:36 +0000";
layers = (
{
layerId = "4B9C72B8-8622-4F9C-A154-BF8DEE7D8E25";
paths = (
{
closed = 1;
nodes = (
"400 1600 OFFCURVE",
"240 1440 OFFCURVE",
"240 1120 CURVE SMOOTH",
"240 1060 LINE",
"160 1060 LINE SMOOTH",
"116 1060 OFFCURVE",
"80 1024 OFFCURVE",
"80 980 CURVE SMOOTH",
"80 936 OFFCURVE",
"116 900 OFFCURVE",
"160 900 CURVE SMOOTH",
"240 900 LINE",
"240 80 LINE SMOOTH",
"240 36 OFFCURVE",
"276 0 OFFCURVE",
"320 0 CURVE SMOOTH",
"364 0 OFFCURVE",
"400 36 OFFCURVE",
"400 80 CURVE SMOOTH",
"400 900 LINE",
"641 900 LINE SMOOTH",
"685 900 OFFCURVE",
"721 936 OFFCURVE",
"721 980 CURVE SMOOTH",
"721 1024 OFFCURVE",
"685 1060 OFFCURVE",
"641 1060 CURVE SMOOTH",
"400 1060 LINE",
"400 1120 LINE SMOOTH",
"400 1333 OFFCURVE",
"507 1440 OFFCURVE",
"720 1440 CURVE SMOOTH",
"764 1440 OFFCURVE",
"800 1476 OFFCURVE",
"800 1520 CURVE SMOOTH",
"800 1564 OFFCURVE",
"764 1600 OFFCURVE",
"720 1600 CURVE SMOOTH"
);
}
);
width = 800;
}
);
note = "\012    f\012  ";
unicode = 0066;
},
{
color = 4;
glyphname = g;
lastChange = "2016-08-01 02:22:36 +0000";
layers = (
{
layerId = "4B9C72B8-8622-4F9C-A154-BF8DEE7D8E25";
paths = (
{
closed = 1;
nodes = (
"1040 -63 OFFCURVE",
"1013 -127 OFFCURVE",
"960 -191 CURVE",
"874 -277 OFFCURVE",
"770 -320 OFFCURVE",
"649 -320 CURVE SMOOTH",
"528 -320 OFFCURVE",
"424 -277 OFFCURVE",
"338 -191 CURVE SMOOTH",
"307 -160 OFFCURVE",
"281 -126 OFFCURVE",
"261 -90 CURVE SMOOTH",
"256 -81 OFFCURVE",
"251 -73 OFFCURVE",
"244 -66 CURVE SMOOTH",
"228 -51 OFFCURVE",
"209 -43 OFFCURVE",
"187 -43 CURVE SMOOTH",
"143 -43 OFFCURVE",
"107 -79 OFFCURVE",
"107 -123 CURVE SMOOTH",
"107 -139 OFFCURVE",
"111 -153 OFFCURVE",
"119 -165 CURVE",
"146 -215 OFFCURVE",
"182 -261 OFFCURVE",
"225 -304 CURVE SMOOTH",
"342 -421 OFFCURVE",
"483 -480 OFFCURVE",
"649 -480 CURVE SMOOTH",
"815 -480 OFFCURVE",
"957 -421 OFFCURVE",
"1074 -304 CURVE SMOOTH",
"1158 -218 OFFCURVE",
"1200 -117 OFFCURVE",
"1200 0 CURVE SMOOTH",
"1200 560 LINE SMOOTH",
"1200 869 OFFCURVE",
"949 1120 OFFCURVE",
"640 1120 CURVE SMOOTH",
"331 1120 OFFCURVE",
"80 869 OFFCURVE",
"80 560 CURVE SMOOTH",
"80 251 OFFCURVE",
"331 0 OFFCURVE",
"640 0 CURVE SMOOTH",
"795 0 OFFCURVE",
"927 55 OFFCURVE",
"1036 164 CURVE SMOOTH",
"1040 168 LINE",
"1040 0 LINE SMOOTH"
);
},
{
closed = 1;
nodes = (
"861 960 OFFCURVE",
"1040 781 OFFCURVE",
"1040 560 CURVE SMOOTH",
"1040 339 OFFCURVE",
"861 160 OFFCURVE",
"640 160 CURVE SMOOTH",
"419 160 OFFCURVE",
"240 339 OFFCURVE",
"240 560 CURVE SMOOTH",
"240 781 OFFCURVE",
"419 960 OFFCURVE",
"640 960 CURVE SMOOTH"
);
}
);
width = 1280;
}
);
note = "\012    g\012  ";
unicode = 0067;
},
{
color = 4;
glyphname = h;
lastChange = "2016-08-01 02:22:36 +0000";
layers = (
{
layerId = "4B9C72B8-8622-4F9C-A154-BF8DEE7D8E25";
paths = (
{
closed = 1;
nodes = (
"80 36 OFFCURVE",
"116 0 OFFCURVE",
"160 0 CURVE SMOOTH",
"204 0 OFFCURVE",
"240 36 OFFCURVE",
"240 80 CURVE SMOOTH",
"240 600 LINE SMOOTH",
"240 799 OFFCURVE",
"401 960 OFFCURVE",
"600 960 CURVE SMOOTH",
"799 960 OFFCURVE",
"960 799 OFFCURVE",
"960 600 CURVE SMOOTH",
"960 80 LINE SMOOTH",
"960 36 OFFCURVE",
"996 0 OFFCURVE",
"1040 0 CURVE SMOOTH",
"1084 0 OFFCURVE",
"1120 36 OFFCURVE",
"1120 80 CURVE SMOOTH",
"1120 600 LINE SMOOTH",
"1120 887 OFFCURVE",
"887 1120 OFFCURVE",
"600 1120 CURVE SMOOTH",
"460 1120 OFFCURVE",
"340 1072 OFFCURVE",
"240 975 CURVE",
"240 1520 LINE SMOOTH",
"240 1564 OFFCURVE",
"204 1600 OFFCURVE",
"160 1600 CURVE SMOOTH",
"116 1600 OFFCURVE",
"80 1564 OFFCURVE",
"80 1520 CURVE SMOOTH",
"80 80 LINE SMOOTH"
);
}
);
width = 1200;
}
);
note = "\012    h\012  ";
unicode = 0068;
},
{
color = 4;
glyphname = i;
lastChange = "2016-08-01 02:22:36 +0000";
layers = (
{
layerId = "4B9C72B8-8622-4F9C-A154-BF8DEE7D8E25";
paths = (
{
closed = 1;
nodes = (
"340 1415 OFFCURVE",
"295 1460 OFFCURVE",
"240 1460 CURVE SMOOTH",
"185 1460 OFFCURVE",
"140 1415 OFFCURVE",
"140 1360 CURVE SMOOTH",
"140 1305 OFFCURVE",
"185 1260 OFFCURVE",
"240 1260 CURVE SMOOTH",
"295 1260 OFFCURVE",
"340 1305 OFFCURVE",
"340 1360 CURVE SMOOTH"
);
},
{
closed = 1;
nodes = (
"160 36 OFFCURVE",
"196 0 OFFCURVE",
"240 0 CURVE SMOOTH",
"284 0 OFFCURVE",
"320 36 OFFCURVE",
"320 80 CURVE SMOOTH",
"320 1040 LINE SMOOTH",
"320 1084 OFFCURVE",
"284 1120 OFFCURVE",
"240 1120 CURVE SMOOTH",
"196 1120 OFFCURVE",
"160 1084 OFFCURVE",
"160 1040 CURVE SMOOTH",
"160 80 LINE SMOOTH"
);
}
);
width = 480;
}
);
note = "\012    i\012  ";
unicode = 0069;
},
{
color = 4;
glyphname = j;
lastChange = "2016-08-01 02:22:36 +0000";
layers = (
{
layerId = "4B9C72B8-8622-4F9C-A154-BF8DEE7D8E25";
paths = (
{
closed = 1;
nodes = (
"580 1415 OFFCURVE",
"535 1460 OFFCURVE",
"480 1460 CURVE SMOOTH",
"425 1460 OFFCURVE",
"380 1415 OFFCURVE",
"380 1360 CURVE SMOOTH",
"380 1305 OFFCURVE",
"425 1260 OFFCURVE",
"480 1260 CURVE SMOOTH",
"535 1260 OFFCURVE",
"580 1305 OFFCURVE",
"580 1360 CURVE SMOOTH"
);
},
{
closed = 1;
nodes = (
"400 -177 OFFCURVE",
"257 -320 OFFCURVE",
"80 -320 CURVE SMOOTH",
"36 -320 OFFCURVE",
"0 -356 OFFCURVE",
"0 -400 CURVE SMOOTH",
"0 -444 OFFCURVE",
"36 -480 OFFCURVE",
"80 -480 CURVE SMOOTH",
"345 -480 OFFCURVE",
"560 -265 OFFCURVE",
"560 0 CURVE SMOOTH",
"560 1040 LINE SMOOTH",
"560 1084 OFFCURVE",
"524 1120 OFFCURVE",
"480 1120 CURVE SMOOTH",
"436 1120 OFFCURVE",
"400 1084 OFFCURVE",
"400 1040 CURVE SMOOTH",
"400 0 LINE SMOOTH"
);
}
);
width = 656;
}
);
note = "\012    j\012  ";
unicode = 006A;
},
{
color = 4;
glyphname = k;
lastChange = "2016-08-01 02:22:36 +0000";
layers = (
{
layerId = "4B9C72B8-8622-4F9C-A154-BF8DEE7D8E25";
paths = (
{
closed = 1;
nodes = (
"240 1564 OFFCURVE",
"204 1600 OFFCURVE",
"160 1600 CURVE SMOOTH",
"116 1600 OFFCURVE",
"80 1564 OFFCURVE",
"80 1520 CURVE SMOOTH",
"80 80 LINE SMOOTH",
"80 36 OFFCURVE",
"116 0 OFFCURVE",
"160 0 CURVE SMOOTH",
"204 0 OFFCURVE",
"240 36 OFFCURVE",
"240 80 CURVE SMOOTH",
"240 477 LINE",
"405 584 LINE",
"902 24 LINE",
"919 8 OFFCURVE",
"938 0 OFFCURVE",
"960 0 CURVE SMOOTH",
"1004 0 OFFCURVE",
"1040 36 OFFCURVE",
"1040 80 CURVE SMOOTH",
"1040 101 OFFCURVE",
"1033 120 OFFCURVE",
"1018 136 CURVE SMOOTH",
"542 672 LINE",
"1006 974 LINE",
"1017 984 LINE",
"1032 999 OFFCURVE",
"1040 1018 OFFCURVE",
"1040 1040 CURVE SMOOTH",
"1040 1084 OFFCURVE",
"1004 1120 OFFCURVE",
"960 1120 CURVE SMOOTH",
"944 1120 OFFCURVE",
"930 1116 OFFCURVE",
"917 1108 CURVE SMOOTH",
"240 668 LINE",
"240 1520 LINE SMOOTH"
);
}
);
width = 1120;
}
);
note = "\012    k\012  ";
unicode = 006B;
},
{
color = 4;
glyphname = l;
lastChange = "2016-08-01 02:22:36 +0000";
layers = (
{
layerId = "4B9C72B8-8622-4F9C-A154-BF8DEE7D8E25";
paths = (
{
closed = 1;
nodes = (
"80 36 OFFCURVE",
"116 0 OFFCURVE",
"160 0 CURVE SMOOTH",
"320 0 LINE SMOOTH",
"364 0 OFFCURVE",
"400 36 OFFCURVE",
"400 80 CURVE SMOOTH",
"400 124 OFFCURVE",
"364 160 OFFCURVE",
"320 160 CURVE SMOOTH",
"240 160 LINE",
"240 1520 LINE SMOOTH",
"240 1564 OFFCURVE",
"204 1600 OFFCURVE",
"160 1600 CURVE SMOOTH",
"116 1600 OFFCURVE",
"80 1564 OFFCURVE",
"80 1520 CURVE SMOOTH",
"80 80 LINE SMOOTH"
);
}
);
width = 480;
}
);
note = "\012    l\012  ";
unicode = 006C;
},
{
color = 4;
glyphname = m;
lastChange = "2016-08-01 02:22:36 +0000";
layers = (
{
layerId = "4B9C72B8-8622-4F9C-A154-BF8DEE7D8E25";
paths = (
{
closed = 1;
nodes = (
"240 835 OFFCURVE",
"365 960 OFFCURVE",
"520 960 CURVE SMOOTH",
"675 960 OFFCURVE",
"800 835 OFFCURVE",
"800 680 CURVE SMOOTH",
"800 80 LINE SMOOTH",
"800 36 OFFCURVE",
"836 0 OFFCURVE",
"880 0 CURVE SMOOTH",
"924 0 OFFCURVE",
"960 36 OFFCURVE",
"960 80 CURVE SMOOTH",
"960 680 LINE SMOOTH",
"960 835 OFFCURVE",
"1085 960 OFFCURVE",
"1240 960 CURVE SMOOTH",
"1395 960 OFFCURVE",
"1520 835 OFFCURVE",
"1520 680 CURVE SMOOTH",
"1520 80 LINE SMOOTH",
"1520 36 OFFCURVE",
"1556 0 OFFCURVE",
"1600 0 CURVE SMOOTH",
"1644 0 OFFCURVE",
"1680 36 OFFCURVE",
"1680 80 CURVE SMOOTH",
"1680 680 LINE SMOOTH",
"1680 923 OFFCURVE",
"1483 1120 OFFCURVE",
"1240 1120 CURVE SMOOTH",
"1119 1120 OFFCURVE",
"1015 1077 OFFCURVE",
"929 991 CURVE SMOOTH",
"911 973 OFFCURVE",
"895 954 OFFCURVE",
"880 934 CURVE",
"865 954 OFFCURVE",
"849 973 OFFCURVE",
"831 991 CURVE SMOOTH",
"745 1077 OFFCURVE",
"641 1120 OFFCURVE",
"520 1120 CURVE SMOOTH",
"413 1120 OFFCURVE",
"319 1086 OFFCURVE",
"240 1019 CURVE",
"240 1040 LINE SMOOTH",
"240 1084 OFFCURVE",
"204 1120 OFFCURVE",
"160 1120 CURVE SMOOTH",
"116 1120 OFFCURVE",
"80 1084 OFFCURVE",
"80 1040 CURVE SMOOTH",
"80 80 LINE SMOOTH",
"80 36 OFFCURVE",
"116 0 OFFCURVE",
"160 0 CURVE SMOOTH",
"204 0 OFFCURVE",
"240 36 OFFCURVE",
"240 80 CURVE SMOOTH",
"240 680 LINE SMOOTH"
);
}
);
width = 1760;
}
);
note = "\012    m\012  ";
unicode = 006D;
},
{
color = 4;
glyphname = n;
lastChange = "2016-10-14 17:24:39 +0000";
layers = (
{
background = {
paths = (
{
closed = 1;
nodes = (
"1089 0 OFFCURVE",
"1125 36 OFFCURVE",
"1125 80 CURVE SMOOTH",
"1125 586 LINE SMOOTH",
"1125 900 OFFCURVE",
"906 1127 OFFCURVE",
"602 1127 CURVE SMOOTH",
"295 1127 OFFCURVE",
"73 907 OFFCURVE",
"73 603 CURVE SMOOTH",
"73 559 OFFCURVE",
"109 523 OFFCURVE",
"153 523 CURVE SMOOTH",
"197 523 OFFCURVE",
"233 559 OFFCURVE",
"233 603 CURVE SMOOTH",
"233 819 OFFCURVE",
"383 967 OFFCURVE",
"602 967 CURVE SMOOTH",
"817 967 OFFCURVE",
"965 812 OFFCURVE",
"965 586 CURVE SMOOTH",
"965 80 LINE SMOOTH",
"965 36 OFFCURVE",
"1001 0 OFFCURVE",
"1045 0 CURVE SMOOTH"
);
}
);
};
layerId = "4B9C72B8-8622-4F9C-A154-BF8DEE7D8E25";
paths = (
{
closed = 1;
nodes = (
"80 36 OFFCURVE",
"116 0 OFFCURVE",
"160 0 CURVE SMOOTH",
"204 0 OFFCURVE",
"240 36 OFFCURVE",
"240 80 CURVE SMOOTH",
"240 600 LINE SMOOTH",
"240 799 OFFCURVE",
"401 960 OFFCURVE",
"600 960 CURVE SMOOTH",
"799 960 OFFCURVE",
"960 799 OFFCURVE",
"960 600 CURVE SMOOTH",
"960 80 LINE SMOOTH",
"960 36 OFFCURVE",
"996 0 OFFCURVE",
"1040 0 CURVE SMOOTH",
"1084 0 OFFCURVE",
"1120 36 OFFCURVE",
"1120 80 CURVE SMOOTH",
"1120 600 LINE SMOOTH",
"1120 887 OFFCURVE",
"887 1120 OFFCURVE",
"600 1120 CURVE SMOOTH",
"460 1120 OFFCURVE",
"340 1072 OFFCURVE",
"240 975 CURVE",
"240 1040 LINE SMOOTH",
"240 1084 OFFCURVE",
"204 1120 OFFCURVE",
"160 1120 CURVE SMOOTH",
"116 1120 OFFCURVE",
"80 1084 OFFCURVE",
"80 1040 CURVE SMOOTH",
"80 80 LINE SMOOTH"
);
}
);
width = 1200;
},
{
associatedMasterId = "4B9C72B8-8622-4F9C-A154-BF8DEE7D8E25";
background = {
paths = (
{
closed = 0;
nodes = (
"153 603 LINE",
"153 863 OFFCURVE",
"339 1047 OFFCURVE",
"602 1047 CURVE SMOOTH",
"861 1047 OFFCURVE",
"1045 856 OFFCURVE",
"1045 586 CURVE SMOOTH",
"1045 83 LINE"
);
}
);
};
layerId = "190A980A-3C57-46E8-9E95-5C4423257B1F";
name = "Oct 14 16, 10:23";
paths = (
{
closed = 1;
nodes = (
"80 36 OFFCURVE",
"116 0 OFFCURVE",
"160 0 CURVE SMOOTH",
"204 0 OFFCURVE",
"240 36 OFFCURVE",
"240 80 CURVE SMOOTH",
"240 600 LINE SMOOTH",
"240 799 OFFCURVE",
"401 960 OFFCURVE",
"600 960 CURVE SMOOTH",
"799 960 OFFCURVE",
"960 799 OFFCURVE",
"960 600 CURVE SMOOTH",
"960 80 LINE SMOOTH",
"960 36 OFFCURVE",
"996 0 OFFCURVE",
"1040 0 CURVE SMOOTH",
"1084 0 OFFCURVE",
"1120 36 OFFCURVE",
"1120 80 CURVE SMOOTH",
"1120 600 LINE SMOOTH",
"1120 887 OFFCURVE",
"887 1120 OFFCURVE",
"600 1120 CURVE SMOOTH",
"460 1120 OFFCURVE",
"340 1072 OFFCURVE",
"240 975 CURVE",
"240 1040 LINE SMOOTH",
"240 1084 OFFCURVE",
"204 1120 OFFCURVE",
"160 1120 CURVE SMOOTH",
"116 1120 OFFCURVE",
"80 1084 OFFCURVE",
"80 1040 CURVE SMOOTH",
"80 80 LINE SMOOTH"
);
}
);
width = 1200;
}
);
note = "\012    n\012  ";
unicode = 006E;
},
{
color = 4;
glyphname = o;
lastChange = "2016-08-01 02:22:36 +0000";
layers = (
{
layerId = "4B9C72B8-8622-4F9C-A154-BF8DEE7D8E25";
paths = (
{
closed = 1;
nodes = (
"1200 869 OFFCURVE",
"949 1120 OFFCURVE",
"640 1120 CURVE SMOOTH",
"331 1120 OFFCURVE",
"80 869 OFFCURVE",
"80 560 CURVE SMOOTH",
"80 251 OFFCURVE",
"331 0 OFFCURVE",
"640 0 CURVE SMOOTH",
"949 0 OFFCURVE",
"1200 251 OFFCURVE",
"1200 560 CURVE SMOOTH"
);
},
{
closed = 1;
nodes = (
"861 960 OFFCURVE",
"1040 781 OFFCURVE",
"1040 560 CURVE SMOOTH",
"1040 339 OFFCURVE",
"861 160 OFFCURVE",
"640 160 CURVE SMOOTH",
"419 160 OFFCURVE",
"240 339 OFFCURVE",
"240 560 CURVE SMOOTH",
"240 781 OFFCURVE",
"419 960 OFFCURVE",
"640 960 CURVE SMOOTH"
);
}
);
width = 1280;
}
);
note = "\012    o\012  ";
unicode = 006F;
},
{
color = 4;
glyphname = p;
lastChange = "2016-08-01 02:22:36 +0000";
layers = (
{
layerId = "4B9C72B8-8622-4F9C-A154-BF8DEE7D8E25";
paths = (
{
closed = 1;
nodes = (
"244 164 LINE SMOOTH",
"353 55 OFFCURVE",
"485 0 OFFCURVE",
"640 0 CURVE SMOOTH",
"949 0 OFFCURVE",
"1200 251 OFFCURVE",
"1200 560 CURVE SMOOTH",
"1200 869 OFFCURVE",
"949 1120 OFFCURVE",
"640 1120 CURVE SMOOTH",
"331 1120 OFFCURVE",
"80 869 OFFCURVE",
"80 560 CURVE SMOOTH",
"80 -400 LINE SMOOTH",
"80 -444 OFFCURVE",
"116 -480 OFFCURVE",
"160 -480 CURVE SMOOTH",
"204 -480 OFFCURVE",
"240 -444 OFFCURVE",
"240 -400 CURVE SMOOTH",
"240 168 LINE"
);
},
{
closed = 1;
nodes = (
"240 781 OFFCURVE",
"419 960 OFFCURVE",
"640 960 CURVE SMOOTH",
"861 960 OFFCURVE",
"1040 781 OFFCURVE",
"1040 560 CURVE SMOOTH",
"1040 339 OFFCURVE",
"861 160 OFFCURVE",
"640 160 CURVE SMOOTH",
"419 160 OFFCURVE",
"240 339 OFFCURVE",
"240 560 CURVE SMOOTH"
);
}
);
width = 1280;
}
);
note = "\012    p\012  ";
unicode = 0070;
},
{
color = 4;
glyphname = q;
lastChange = "2016-08-01 02:22:36 +0000";
layers = (
{
layerId = "4B9C72B8-8622-4F9C-A154-BF8DEE7D8E25";
paths = (
{
closed = 1;
nodes = (
"1040 -444 OFFCURVE",
"1076 -480 OFFCURVE",
"1120 -480 CURVE SMOOTH",
"1164 -480 OFFCURVE",
"1200 -444 OFFCURVE",
"1200 -400 CURVE SMOOTH",
"1200 560 LINE SMOOTH",
"1200 869 OFFCURVE",
"949 1120 OFFCURVE",
"640 1120 CURVE SMOOTH",
"331 1120 OFFCURVE",
"80 869 OFFCURVE",
"80 560 CURVE SMOOTH",
"80 251 OFFCURVE",
"331 0 OFFCURVE",
"640 0 CURVE SMOOTH",
"795 0 OFFCURVE",
"927 55 OFFCURVE",
"1036 164 CURVE SMOOTH",
"1040 168 LINE",
"1040 -400 LINE SMOOTH"
);
},
{
closed = 1;
nodes = (
"861 960 OFFCURVE",
"1040 781 OFFCURVE",
"1040 560 CURVE SMOOTH",
"1040 339 OFFCURVE",
"861 160 OFFCURVE",
"640 160 CURVE SMOOTH",
"419 160 OFFCURVE",
"240 339 OFFCURVE",
"240 560 CURVE SMOOTH",
"240 781 OFFCURVE",
"419 960 OFFCURVE",
"640 960 CURVE SMOOTH"
);
}
);
width = 1280;
}
);
note = "\012    q\012  ";
unicode = 0071;
},
{
color = 4;
glyphname = r;
lastChange = "2016-08-01 02:22:36 +0000";
layers = (
{
layerId = "4B9C72B8-8622-4F9C-A154-BF8DEE7D8E25";
paths = (
{
closed = 1;
nodes = (
"80 36 OFFCURVE",
"116 0 OFFCURVE",
"160 0 CURVE SMOOTH",
"204 0 OFFCURVE",
"240 36 OFFCURVE",
"240 80 CURVE SMOOTH",
"240 560 LINE SMOOTH",
"240 781 OFFCURVE",
"419 960 OFFCURVE",
"640 960 CURVE SMOOTH",
"697 960 OFFCURVE",
"749 950 OFFCURVE",
"796 930 CURVE SMOOTH",
"807 925 OFFCURVE",
"818 922 OFFCURVE",
"831 922 CURVE SMOOTH",
"875 922 OFFCURVE",
"911 958 OFFCURVE",
"911 1002 CURVE SMOOTH",
"911 1046 OFFCURVE",
"879 1071 OFFCURVE",
"855 1080 CURVE",
"790 1107 OFFCURVE",
"718 1120 OFFCURVE",
"640 1120 CURVE SMOOTH",
"485 1120 OFFCURVE",
"352 1064 OFFCURVE",
"240 952 CURVE",
"240 1040 LINE SMOOTH",
"240 1084 OFFCURVE",
"204 1120 OFFCURVE",
"160 1120 CURVE SMOOTH",
"116 1120 OFFCURVE",
"80 1084 OFFCURVE",
"80 1040 CURVE SMOOTH",
"80 80 LINE SMOOTH"
);
}
);
width = 960;
}
);
note = "\012    r\012  ";
unicode = 0072;
},
{
color = 4;
glyphname = s;
lastChange = "2016-10-14 17:22:18 +0000";
layers = (
{
background = {
paths = (
{
closed = 0;
nodes = (
"905 835 LINE",
"794 969 OFFCURVE",
"688 1041 OFFCURVE",
"503 1041 CURVE SMOOTH",
"329 1041 OFFCURVE",
"182 959 OFFCURVE",
"182 799 CURVE SMOOTH",
"182 634 OFFCURVE",
"312 572 OFFCURVE",
"525 572 CURVE SMOOTH",
"758 572 OFFCURVE",
"915 522 OFFCURVE",
"915 328 CURVE SMOOTH",
"915 134 OFFCURVE",
"720 65 OFFCURVE",
"552 65 CURVE SMOOTH",
"375 65 OFFCURVE",
"269 136 OFFCURVE",
"152 249 CURVE SMOOTH"
);
}
);
};
layerId = "4B9C72B8-8622-4F9C-A154-BF8DEE7D8E25";
paths = (
{
closed = 1;
nodes = (
"801 386 OFFCURVE",
"817 364 OFFCURVE",
"819 333 CURVE",
"819 306 OFFCURVE",
"811 283 OFFCURVE",
"795 264 CURVE",
"729 195 OFFCURVE",
"641 160 OFFCURVE",
"530 160 CURVE SMOOTH",
"419 160 OFFCURVE",
"325 199 OFFCURVE",
"247 277 CURVE SMOOTH",
"241 283 OFFCURVE",
"231 293 OFFCURVE",
"218 307 CURVE SMOOTH",
"205 321 OFFCURVE",
"187 328 OFFCURVE",
"165 328 CURVE SMOOTH",
"121 328 OFFCURVE",
"85 292 OFFCURVE",
"85 248 CURVE SMOOTH",
"85 231 OFFCURVE",
"90 215 OFFCURVE",
"100 201 CURVE",
"219 67 OFFCURVE",
"362 0 OFFCURVE",
"530 0 CURVE SMOOTH",
"685 0 OFFCURVE",
"810 49 OFFCURVE",
"906 147 CURVE SMOOTH",
"955 196 OFFCURVE",
"980 254 OFFCURVE",
"980 320 CURVE SMOOTH",
"980 452 OFFCURVE",
"903 515 OFFCURVE",
"782 560 CURVE",
"290 723 LINE SMOOTH",
"259 734 OFFCURVE",
"243 756 OFFCURVE",
"241 787 CURVE",
"241 814 OFFCURVE",
"249 837 OFFCURVE",
"265 856 CURVE",
"331 925 OFFCURVE",
"419 960 OFFCURVE",
"530 960 CURVE SMOOTH",
"641 960 OFFCURVE",
"735 921 OFFCURVE",
"813 843 CURVE SMOOTH",
"819 837 OFFCURVE",
"829 827 OFFCURVE",
"842 813 CURVE SMOOTH",
"855 799 OFFCURVE",
"873 792 OFFCURVE",
"895 792 CURVE SMOOTH",
"917 792 OFFCURVE",
"936 800 OFFCURVE",
"952 816 CURVE SMOOTH",
"983 847 OFFCURVE",
"981 894 OFFCURVE",
"960 919 CURVE SMOOTH",
"841 1053 OFFCURVE",
"697 1120 OFFCURVE",
"530 1120 CURVE SMOOTH",
"375 1120 OFFCURVE",
"250 1071 OFFCURVE",
"154 973 CURVE SMOOTH",
"105 924 OFFCURVE",
"80 866 OFFCURVE",
"80 800 CURVE SMOOTH",
"80 668 OFFCURVE",
"157 605 OFFCURVE",
"278 560 CURVE",
"770 397 LINE SMOOTH"
);
}
);
width = 1060;
},
{
associatedMasterId = "4B9C72B8-8622-4F9C-A154-BF8DEE7D8E25";
background = {
paths = (
{
closed = 0;
nodes = (
"905 835 LINE",
"794 969 OFFCURVE",
"688 1041 OFFCURVE",
"503 1041 CURVE SMOOTH",
"329 1041 OFFCURVE",
"182 959 OFFCURVE",
"182 799 CURVE SMOOTH",
"182 634 OFFCURVE",
"312 572 OFFCURVE",
"525 572 CURVE SMOOTH",
"758 572 OFFCURVE",
"915 522 OFFCURVE",
"915 328 CURVE SMOOTH",
"915 134 OFFCURVE",
"720 65 OFFCURVE",
"552 65 CURVE SMOOTH",
"375 65 OFFCURVE",
"269 136 OFFCURVE",
"152 249 CURVE SMOOTH"
);
}
);
};
layerId = "8F816205-29D5-493C-8EED-66570C268EBC";
name = "Oct 14 16, 10:22";
paths = (
{
closed = 1;
nodes = (
"815.592 -15 OFFCURVE",
"995 120.049 OFFCURVE",
"995 328 CURVE SMOOTH",
"995 549.38 OFFCURVE",
"839.998 652 OFFCURVE",
"525 652 CURVE SMOOTH",
"334.84 652 OFFCURVE",
"262 697.459 OFFCURVE",
"262 799 CURVE SMOOTH",
"262 897.488 OFFCURVE",
"353.325 961 OFFCURVE",
"503 961 CURVE SMOOTH",
"646.641 961 OFFCURVE",
"733.778 916.161 OFFCURVE",
"843.035 784.397 CURVE SMOOTH",
"857.705 766.454 OFFCURVE",
"880.015 755 OFFCURVE",
"905 755 CURVE SMOOTH",
"949.183 755 OFFCURVE",
"985 790.817 OFFCURVE",
"985 835 CURVE SMOOTH",
"985 854.592 OFFCURVE",
"977.957 872.539 OFFCURVE",
"966.266 886.447 CURVE SMOOTH",
"827.563 1053.736 OFFCURVE",
"695.416 1121 OFFCURVE",
"503 1121 CURVE SMOOTH",
"265.842 1121 OFFCURVE",
"102 991.633 OFFCURVE",
"102 799 CURVE SMOOTH",
"102 597.45 OFFCURVE",
"249.81 492 OFFCURVE",
"525 492 CURVE SMOOTH",
"756.153 492 OFFCURVE",
"835 445.682 OFFCURVE",
"835 328 CURVE SMOOTH",
"835 216.206 OFFCURVE",
"727.875 145 OFFCURVE",
"552 145 CURVE SMOOTH",
"419.721 145 OFFCURVE",
"333.213 185.205 OFFCURVE",
"207.588 306.532 CURVE SMOOTH",
"193.195 320.442 OFFCURVE",
"173.597 329 OFFCURVE",
"152 329 CURVE SMOOTH",
"107.817 329 OFFCURVE",
"72 293.183 OFFCURVE",
"72 249 CURVE SMOOTH",
"72 226.369 OFFCURVE",
"81.397 205.933 OFFCURVE",
"96.502 191.381 CURVE SMOOTH",
"250.414 42.752 OFFCURVE",
"375.533 -15 OFFCURVE",
"552 -15 CURVE SMOOTH"
);
}
);
width = 1060;
}
);
note = "\012    s\012  ";
unicode = 0073;
},
{
color = 4;
glyphname = t;
lastChange = "2016-08-01 02:22:36 +0000";
layers = (
{
layerId = "4B9C72B8-8622-4F9C-A154-BF8DEE7D8E25";
paths = (
{
closed = 1;
nodes = (
"480 160 OFFCURVE",
"400 240 OFFCURVE",
"400 400 CURVE SMOOTH",
"400 960 LINE",
"561 960 LINE SMOOTH",
"605 960 OFFCURVE",
"641 996 OFFCURVE",
"641 1040 CURVE SMOOTH",
"641 1084 OFFCURVE",
"605 1120 OFFCURVE",
"561 1120 CURVE SMOOTH",
"400 1120 LINE",
"400 1520 LINE SMOOTH",
"400 1564 OFFCURVE",
"364 1600 OFFCURVE",
"320 1600 CURVE SMOOTH",
"276 1600 OFFCURVE",
"240 1564 OFFCURVE",
"240 1520 CURVE SMOOTH",
"240 1120 LINE",
"160 1120 LINE SMOOTH",
"116 1120 OFFCURVE",
"80 1084 OFFCURVE",
"80 1040 CURVE SMOOTH",
"80 996 OFFCURVE",
"116 960 OFFCURVE",
"160 960 CURVE SMOOTH",
"240 960 LINE",
"240 400 LINE SMOOTH",
"240 133 OFFCURVE",
"373 0 OFFCURVE",
"640 0 CURVE SMOOTH",
"684 0 OFFCURVE",
"720 36 OFFCURVE",
"720 80 CURVE SMOOTH",
"720 124 OFFCURVE",
"684 160 OFFCURVE",
"640 160 CURVE SMOOTH"
);
}
);
width = 800;
}
);
note = "\012    t\012  ";
unicode = 0074;
},
{
color = 4;
glyphname = u;
lastChange = "2016-08-01 02:22:36 +0000";
layers = (
{
layerId = "4B9C72B8-8622-4F9C-A154-BF8DEE7D8E25";
paths = (
{
closed = 1;
nodes = (
"1120 1084 OFFCURVE",
"1084 1120 OFFCURVE",
"1040 1120 CURVE SMOOTH",
"996 1120 OFFCURVE",
"960 1084 OFFCURVE",
"960 1040 CURVE SMOOTH",
"960 520 LINE SMOOTH",
"960 321 OFFCURVE",
"799 160 OFFCURVE",
"600 160 CURVE SMOOTH",
"401 160 OFFCURVE",
"240 321 OFFCURVE",
"240 520 CURVE SMOOTH",
"240 1040 LINE SMOOTH",
"240 1084 OFFCURVE",
"204 1120 OFFCURVE",
"160 1120 CURVE SMOOTH",
"116 1120 OFFCURVE",
"80 1084 OFFCURVE",
"80 1040 CURVE SMOOTH",
"80 520 LINE SMOOTH",
"80 233 OFFCURVE",
"313 0 OFFCURVE",
"600 0 CURVE SMOOTH",
"740 0 OFFCURVE",
"860 48 OFFCURVE",
"960 145 CURVE",
"960 80 LINE SMOOTH",
"960 36 OFFCURVE",
"996 0 OFFCURVE",
"1040 0 CURVE SMOOTH",
"1084 0 OFFCURVE",
"1120 36 OFFCURVE",
"1120 80 CURVE SMOOTH",
"1120 1040 LINE SMOOTH"
);
}
);
width = 1200;
}
);
note = "\012    u\012  ";
unicode = 0075;
},
{
color = 4;
glyphname = v;
lastChange = "2016-08-01 02:22:36 +0000";
layers = (
{
layerId = "4B9C72B8-8622-4F9C-A154-BF8DEE7D8E25";
paths = (
{
closed = 1;
nodes = (
"662 27 OFFCURVE",
"666 33 OFFCURVE",
"670 42 CURVE SMOOTH",
"1114 1009 LINE SMOOTH",
"1118 1018 OFFCURVE",
"1120 1029 OFFCURVE",
"1120 1040 CURVE SMOOTH",
"1120 1084 OFFCURVE",
"1084 1120 OFFCURVE",
"1040 1120 CURVE SMOOTH",
"1018 1120 OFFCURVE",
"999 1112 OFFCURVE",
"984 1097 CURVE",
"978 1092 OFFCURVE",
"973 1085 OFFCURVE",
"968 1076 CURVE",
"600 272 LINE",
"232 1076 LINE",
"227 1085 OFFCURVE",
"222 1092 OFFCURVE",
"217 1097 CURVE SMOOTH",
"201 1112 OFFCURVE",
"182 1120 OFFCURVE",
"160 1120 CURVE SMOOTH",
"116 1120 OFFCURVE",
"80 1084 OFFCURVE",
"80 1040 CURVE SMOOTH",
"80 1029 OFFCURVE",
"82 1018 OFFCURVE",
"86 1009 CURVE SMOOTH",
"530 42 LINE SMOOTH",
"534 33 OFFCURVE",
"538 27 OFFCURVE",
"543 23 CURVE",
"558 8 OFFCURVE",
"577 0 OFFCURVE",
"600 0 CURVE SMOOTH",
"623 0 OFFCURVE",
"642 7 OFFCURVE",
"657 22 CURVE SMOOTH"
);
}
);
width = 1200;
}
);
note = "\012    v\012  ";
unicode = 0076;
},
{
color = 4;
glyphname = w;
lastChange = "2016-08-01 02:22:36 +0000";
layers = (
{
layerId = "4B9C72B8-8622-4F9C-A154-BF8DEE7D8E25";
paths = (
{
closed = 1;
nodes = (
"734 1086 OFFCURVE",
"727 1074 OFFCURVE",
"722 1060 CURVE SMOOTH",
"480 333 LINE",
"233 1074 LINE",
"229 1082 OFFCURVE",
"224 1090 OFFCURVE",
"217 1097 CURVE SMOOTH",
"201 1112 OFFCURVE",
"182 1120 OFFCURVE",
"160 1120 CURVE SMOOTH",
"116 1120 OFFCURVE",
"80 1084 OFFCURVE",
"80 1040 CURVE SMOOTH",
"80 1029 OFFCURVE",
"82 1019 OFFCURVE",
"86 1009 CURVE",
"405 51 LINE",
"409 41 OFFCURVE",
"415 31 OFFCURVE",
"424 22 CURVE SMOOTH",
"439 7 OFFCURVE",
"458 0 OFFCURVE",
"480 0 CURVE SMOOTH",
"502 0 OFFCURVE",
"521 7 OFFCURVE",
"537 22 CURVE",
"545 31 OFFCURVE",
"551 41 OFFCURVE",
"555 51 CURVE",
"800 787 LINE",
"1045 51 LINE",
"1049 41 OFFCURVE",
"1055 31 OFFCURVE",
"1064 22 CURVE SMOOTH",
"1079 7 OFFCURVE",
"1098 0 OFFCURVE",
"1120 0 CURVE SMOOTH",
"1142 0 OFFCURVE",
"1161 7 OFFCURVE",
"1177 22 CURVE",
"1185 31 OFFCURVE",
"1191 41 OFFCURVE",
"1195 51 CURVE",
"1514 1009 LINE",
"1518 1019 OFFCURVE",
"1520 1029 OFFCURVE",
"1520 1040 CURVE SMOOTH",
"1520 1084 OFFCURVE",
"1484 1120 OFFCURVE",
"1440 1120 CURVE SMOOTH",
"1418 1120 OFFCURVE",
"1399 1112 OFFCURVE",
"1384 1097 CURVE SMOOTH",
"1377 1090 OFFCURVE",
"1371 1082 OFFCURVE",
"1367 1074 CURVE",
"1120 333 LINE",
"878 1060 LINE",
"870 1088 OFFCURVE",
"844 1120 OFFCURVE",
"800 1120 CURVE SMOOTH",
"778 1120 OFFCURVE",
"759 1112 OFFCURVE",
"744 1097 CURVE"
);
}
);
width = 1600;
}
);
note = "\012    w\012  ";
unicode = 0077;
},
{
color = 4;
glyphname = x;
lastChange = "2016-08-01 02:22:36 +0000";
layers = (
{
layerId = "4B9C72B8-8622-4F9C-A154-BF8DEE7D8E25";
paths = (
{
closed = 1;
nodes = (
"85 115 OFFCURVE",
"80 99 OFFCURVE",
"80 80 CURVE SMOOTH",
"80 36 OFFCURVE",
"116 0 OFFCURVE",
"160 0 CURVE SMOOTH",
"182 0 OFFCURVE",
"201 8 OFFCURVE",
"216 24 CURVE",
"560 436 LINE",
"904 24 LINE",
"919 8 OFFCURVE",
"938 0 OFFCURVE",
"960 0 CURVE SMOOTH",
"1004 0 OFFCURVE",
"1040 36 OFFCURVE",
"1040 80 CURVE SMOOTH",
"1040 99 OFFCURVE",
"1035 115 OFFCURVE",
"1024 129 CURVE SMOOTH",
"664 561 LINE",
"1021 988 LINE SMOOTH",
"1034 1003 OFFCURVE",
"1040 1020 OFFCURVE",
"1040 1040 CURVE SMOOTH",
"1040 1084 OFFCURVE",
"1004 1120 OFFCURVE",
"960 1120 CURVE SMOOTH",
"938 1120 OFFCURVE",
"918 1112 OFFCURVE",
"901 1095 CURVE",
"560 686 LINE",
"219 1095 LINE",
"202 1112 OFFCURVE",
"182 1120 OFFCURVE",
"160 1120 CURVE SMOOTH",
"116 1120 OFFCURVE",
"80 1084 OFFCURVE",
"80 1040 CURVE SMOOTH",
"80 1020 OFFCURVE",
"86 1003 OFFCURVE",
"99 988 CURVE SMOOTH",
"456 561 LINE",
"96 129 LINE SMOOTH"
);
}
);
width = 1120;
}
);
note = "\012    x\012  ";
unicode = 0078;
},
{
color = 4;
glyphname = y;
lastChange = "2016-08-01 02:22:36 +0000";
layers = (
{
layerId = "4B9C72B8-8622-4F9C-A154-BF8DEE7D8E25";
paths = (
{
closed = 1;
nodes = (
"282 -374 OFFCURVE",
"279 -387 OFFCURVE",
"279 -400 CURVE SMOOTH",
"279 -444 OFFCURVE",
"315 -480 OFFCURVE",
"359 -480 CURVE SMOOTH",
"381 -480 OFFCURVE",
"400 -472 OFFCURVE",
"416 -456 CURVE SMOOTH",
"425 -447 OFFCURVE",
"431 -438 OFFCURVE",
"435 -427 CURVE",
"1031 1003 LINE",
"1037 1014 OFFCURVE",
"1040 1027 OFFCURVE",
"1040 1040 CURVE SMOOTH",
"1040 1084 OFFCURVE",
"1004 1120 OFFCURVE",
"960 1120 CURVE SMOOTH",
"916 1120 OFFCURVE",
"892 1088 OFFCURVE",
"884 1067 CURVE SMOOTH",
"560 290 LINE",
"236 1067 LINE SMOOTH",
"228 1088 OFFCURVE",
"204 1120 OFFCURVE",
"160 1120 CURVE SMOOTH",
"116 1120 OFFCURVE",
"80 1084 OFFCURVE",
"80 1040 CURVE SMOOTH",
"80 1027 OFFCURVE",
"83 1014 OFFCURVE",
"89 1003 CURVE",
"473 81 LINE",
"288 -363 LINE"
);
}
);
width = 1120;
}
);
note = "\012    y\012  ";
unicode = 0079;
},
{
color = 4;
glyphname = z;
lastChange = "2016-08-01 02:22:36 +0000";
layers = (
{
layerId = "4B9C72B8-8622-4F9C-A154-BF8DEE7D8E25";
paths = (
{
closed = 1;
nodes = (
"1021 988 LINE SMOOTH",
"1034 1003 OFFCURVE",
"1040 1020 OFFCURVE",
"1040 1040 CURVE SMOOTH",
"1040 1084 OFFCURVE",
"1004 1120 OFFCURVE",
"960 1120 CURVE SMOOTH",
"160 1120 LINE SMOOTH",
"116 1120 OFFCURVE",
"80 1084 OFFCURVE",
"80 1040 CURVE SMOOTH",
"80 996 OFFCURVE",
"116 960 OFFCURVE",
"160 960 CURVE SMOOTH",
"789 960 LINE",
"96 129 LINE SMOOTH",
"85 115 OFFCURVE",
"80 99 OFFCURVE",
"80 80 CURVE SMOOTH",
"80 36 OFFCURVE",
"116 0 OFFCURVE",
"160 0 CURVE SMOOTH",
"960 0 LINE SMOOTH",
"1004 0 OFFCURVE",
"1040 36 OFFCURVE",
"1040 80 CURVE SMOOTH",
"1040 124 OFFCURVE",
"1004 160 OFFCURVE",
"960 160 CURVE SMOOTH",
"330 160 LINE"
);
}
);
width = 1120;
}
);
note = "\012    z\012  ";
unicode = 007A;
},
{
color = 4;
glyphname = braceleft;
lastChange = "2016-08-01 02:22:36 +0000";
layers = (
{
layerId = "4B9C72B8-8622-4F9C-A154-BF8DEE7D8E25";
paths = (
{
closed = 1;
nodes = (
"427 1600 OFFCURVE",
"320 1493 OFFCURVE",
"320 1280 CURVE SMOOTH",
"320 800 LINE SMOOTH",
"320 693 OFFCURVE",
"267 640 OFFCURVE",
"160 640 CURVE SMOOTH",
"116 640 OFFCURVE",
"80 604 OFFCURVE",
"80 560 CURVE SMOOTH",
"80 516 OFFCURVE",
"116 480 OFFCURVE",
"160 480 CURVE SMOOTH",
"267 480 OFFCURVE",
"320 427 OFFCURVE",
"320 320 CURVE SMOOTH",
"320 -160 LINE SMOOTH",
"320 -373 OFFCURVE",
"427 -480 OFFCURVE",
"640 -480 CURVE SMOOTH",
"684 -480 OFFCURVE",
"720 -444 OFFCURVE",
"720 -400 CURVE SMOOTH",
"720 -356 OFFCURVE",
"684 -320 OFFCURVE",
"640 -320 CURVE SMOOTH",
"533 -320 OFFCURVE",
"480 -267 OFFCURVE",
"480 -160 CURVE SMOOTH",
"480 320 LINE SMOOTH",
"480 427 OFFCURVE",
"453 507 OFFCURVE",
"400 560 CURVE",
"453 613 OFFCURVE",
"480 693 OFFCURVE",
"480 800 CURVE SMOOTH",
"480 1280 LINE SMOOTH",
"480 1387 OFFCURVE",
"533 1440 OFFCURVE",
"640 1440 CURVE SMOOTH",
"684 1440 OFFCURVE",
"720 1476 OFFCURVE",
"720 1520 CURVE SMOOTH",
"720 1564 OFFCURVE",
"684 1600 OFFCURVE",
"640 1600 CURVE SMOOTH"
);
}
);
width = 800;
}
);
note = "\012    braceleft\012  ";
unicode = 007B;
},
{
color = 4;
glyphname = bar;
lastChange = "2016-08-01 02:22:36 +0000";
layers = (
{
layerId = "4B9C72B8-8622-4F9C-A154-BF8DEE7D8E25";
paths = (
{
closed = 1;
nodes = (
"320 -444 OFFCURVE",
"356 -480 OFFCURVE",
"400 -480 CURVE SMOOTH",
"444 -480 OFFCURVE",
"480 -444 OFFCURVE",
"480 -400 CURVE SMOOTH",
"480 1520 LINE SMOOTH",
"480 1564 OFFCURVE",
"444 1600 OFFCURVE",
"400 1600 CURVE SMOOTH",
"356 1600 OFFCURVE",
"320 1564 OFFCURVE",
"320 1520 CURVE SMOOTH",
"320 -400 LINE SMOOTH"
);
}
);
width = 800;
}
);
note = "\012    bar\012  ";
unicode = 007C;
},
{
color = 4;
glyphname = braceright;
lastChange = "2016-08-01 02:22:36 +0000";
layers = (
{
layerId = "4B9C72B8-8622-4F9C-A154-BF8DEE7D8E25";
paths = (
{
closed = 1;
nodes = (
"480 1493 OFFCURVE",
"373 1600 OFFCURVE",
"160 1600 CURVE SMOOTH",
"116 1600 OFFCURVE",
"80 1564 OFFCURVE",
"80 1520 CURVE SMOOTH",
"80 1476 OFFCURVE",
"116 1440 OFFCURVE",
"160 1440 CURVE SMOOTH",
"267 1440 OFFCURVE",
"320 1387 OFFCURVE",
"320 1280 CURVE SMOOTH",
"320 800 LINE SMOOTH",
"320 693 OFFCURVE",
"347 613 OFFCURVE",
"400 560 CURVE",
"347 507 OFFCURVE",
"320 427 OFFCURVE",
"320 320 CURVE SMOOTH",
"320 -160 LINE SMOOTH",
"320 -267 OFFCURVE",
"267 -320 OFFCURVE",
"160 -320 CURVE SMOOTH",
"116 -320 OFFCURVE",
"80 -356 OFFCURVE",
"80 -400 CURVE SMOOTH",
"80 -444 OFFCURVE",
"116 -480 OFFCURVE",
"160 -480 CURVE SMOOTH",
"373 -480 OFFCURVE",
"480 -373 OFFCURVE",
"480 -160 CURVE SMOOTH",
"480 320 LINE SMOOTH",
"480 427 OFFCURVE",
"533 480 OFFCURVE",
"640 480 CURVE SMOOTH",
"684 480 OFFCURVE",
"720 516 OFFCURVE",
"720 560 CURVE SMOOTH",
"720 604 OFFCURVE",
"684 640 OFFCURVE",
"640 640 CURVE SMOOTH",
"533 640 OFFCURVE",
"480 693 OFFCURVE",
"480 800 CURVE SMOOTH",
"480 1280 LINE SMOOTH"
);
}
);
width = 800;
}
);
note = "\012    braceright\012  ";
unicode = 007D;
},
{
color = 4;
glyphname = asciitilde;
lastChange = "2016-08-01 02:22:36 +0000";
layers = (
{
layerId = "4B9C72B8-8622-4F9C-A154-BF8DEE7D8E25";
paths = (
{
closed = 1;
nodes = (
"561 710 OFFCURVE",
"594 722 OFFCURVE",
"632 722 CURVE SMOOTH",
"676 722 OFFCURVE",
"714 706 OFFCURVE",
"745 674 CURVE",
"761 659 OFFCURVE",
"780 652 OFFCURVE",
"801 652 CURVE SMOOTH",
"845 652 OFFCURVE",
"881 688 OFFCURVE",
"881 732 CURVE SMOOTH",
"881 753 OFFCURVE",
"874 772 OFFCURVE",
"859 788 CURVE SMOOTH",
"796 851 OFFCURVE",
"721 882 OFFCURVE",
"632 882 CURVE SMOOTH",
"550 882 OFFCURVE",
"479 855 OFFCURVE",
"420 802 CURVE",
"391 779 OFFCURVE",
"357 767 OFFCURVE",
"320 767 CURVE SMOOTH",
"276 767 OFFCURVE",
"238 783 OFFCURVE",
"207 815 CURVE",
"191 830 OFFCURVE",
"172 837 OFFCURVE",
"151 837 CURVE SMOOTH",
"107 837 OFFCURVE",
"71 801 OFFCURVE",
"71 757 CURVE SMOOTH",
"71 736 OFFCURVE",
"78 717 OFFCURVE",
"93 701 CURVE SMOOTH",
"156 638 OFFCURVE",
"231 607 OFFCURVE",
"320 607 CURVE SMOOTH",
"401 607 OFFCURVE",
"472 634 OFFCURVE",
"532 687 CURVE"
);
}
);
width = 960;
}
);
note = "\012    asciitilde\012  ";
unicode = 007E;
},
{
color = 4;
glyphname = exclamdown;
lastChange = "2016-08-01 02:22:36 +0000";
layers = (
{
layerId = "4B9C72B8-8622-4F9C-A154-BF8DEE7D8E25";
paths = (
{
closed = 1;
nodes = (
"267 879 OFFCURVE",
"320 932 OFFCURVE",
"320 999 CURVE SMOOTH",
"320 1066 OFFCURVE",
"267 1119 OFFCURVE",
"200 1119 CURVE SMOOTH",
"133 1119 OFFCURVE",
"80 1066 OFFCURVE",
"80 999 CURVE SMOOTH",
"80 932 OFFCURVE",
"133 879 OFFCURVE",
"200 879 CURVE SMOOTH"
);
},
{
closed = 1;
nodes = (
"120 -444 OFFCURVE",
"156 -480 OFFCURVE",
"200 -480 CURVE SMOOTH",
"244 -480 OFFCURVE",
"280 -444 OFFCURVE",
"280 -400 CURVE SMOOTH",
"280 720 LINE SMOOTH",
"280 763 OFFCURVE",
"244 799 OFFCURVE",
"200 799 CURVE SMOOTH",
"156 799 OFFCURVE",
"120 763 OFFCURVE",
"120 720 CURVE SMOOTH",
"120 -400 LINE SMOOTH"
);
}
);
width = 400;
}
);
note = "\012    exclamdown\012  ";
unicode = 00A1;
},
{
color = 4;
glyphname = cent;
lastChange = "2016-08-01 02:22:36 +0000";
layers = (
{
layerId = "4B9C72B8-8622-4F9C-A154-BF8DEE7D8E25";
paths = (
{
closed = 1;
nodes = (
"836 916 OFFCURVE",
"874 892 OFFCURVE",
"909 861 CURVE",
"924 849 OFFCURVE",
"941 843 OFFCURVE",
"960 843 CURVE SMOOTH",
"1004 843 OFFCURVE",
"1040 879 OFFCURVE",
"1040 923 CURVE SMOOTH",
"1040 948 OFFCURVE",
"1031 968 OFFCURVE",
"1012 985 CURVE SMOOTH",
"963 1027 OFFCURVE",
"911 1059 OFFCURVE",
"855 1082 CURVE",
"954 1331 LINE SMOOTH",
"970 1372 OFFCURVE",
"950 1419 OFFCURVE",
"909 1435 CURVE",
"900 1438 OFFCURVE",
"890 1440 OFFCURVE",
"880 1440 CURVE SMOOTH",
"868 1440 OFFCURVE",
"858 1438 OFFCURVE",
"849 1434 CURVE SMOOTH",
"828 1425 OFFCURVE",
"814 1411 OFFCURVE",
"805 1390 CURVE SMOOTH",
"696 1118 LINE",
"680 1119 OFFCURVE",
"664 1120 OFFCURVE",
"647 1120 CURVE SMOOTH",
"338 1120 OFFCURVE",
"87 869 OFFCURVE",
"87 560 CURVE SMOOTH",
"87 405 OFFCURVE",
"142 273 OFFCURVE",
"251 164 CURVE SMOOTH",
"266 149 OFFCURVE",
"282 134 OFFCURVE",
"298 121 CURVE",
"166 -210 LINE SMOOTH",
"150 -251 OFFCURVE",
"170 -298 OFFCURVE",
"211 -314 CURVE SMOOTH",
"221 -318 OFFCURVE",
"231 -320 OFFCURVE",
"241 -320 CURVE SMOOTH",
"252 -320 OFFCURVE",
"262 -318 OFFCURVE",
"273 -313 CURVE SMOOTH",
"293 -304 OFFCURVE",
"307 -290 OFFCURVE",
"315 -269 CURVE SMOOTH",
"438 39 LINE",
"502 13 OFFCURVE",
"572 0 OFFCURVE",
"647 0 CURVE SMOOTH",
"787 0 OFFCURVE",
"909 45 OFFCURVE",
"1012 135 CURVE",
"1029 152 OFFCURVE",
"1037 172 OFFCURVE",
"1037 194 CURVE SMOOTH",
"1037 238 OFFCURVE",
"1001 274 OFFCURVE",
"957 274 CURVE SMOOTH",
"938 274 OFFCURVE",
"922 269 OFFCURVE",
"908 258 CURVE",
"834 193 OFFCURVE",
"747 160 OFFCURVE",
"647 160 CURVE SMOOTH",
"593 160 OFFCURVE",
"543 169 OFFCURVE",
"497 188 CURVE",
"795 932 LINE"
);
},
{
closed = 1;
nodes = (
"285 357 OFFCURVE",
"247 451 OFFCURVE",
"247 560 CURVE SMOOTH",
"247 781 OFFCURVE",
"424 953 OFFCURVE",
"633 960 CURVE",
"361 280 LINE"
);
}
);
width = 1120;
}
);
note = "\012    cent\012  ";
unicode = 00A2;
},
{
color = 4;
glyphname = sterling;
lastChange = "2016-08-01 02:22:36 +0000";
layers = (
{
layerId = "4B9C72B8-8622-4F9C-A154-BF8DEE7D8E25";
paths = (
{
closed = 1;
nodes = (
"822 0 OFFCURVE",
"841 8 OFFCURVE",
"857 24 CURVE SMOOTH",
"864 31 OFFCURVE",
"870 39 OFFCURVE",
"874 48 CURVE",
"951 202 LINE",
"957 213 OFFCURVE",
"960 226 OFFCURVE",
"960 240 CURVE SMOOTH",
"960 284 OFFCURVE",
"924 320 OFFCURVE",
"880 320 CURVE SMOOTH",
"847 320 OFFCURVE",
"824 307 OFFCURVE",
"810 280 CURVE SMOOTH",
"750 160 LINE",
"356 160 LINE",
"413 325 OFFCURVE",
"440 485 OFFCURVE",
"439 640 CURVE",
"720 640 LINE SMOOTH",
"764 640 OFFCURVE",
"800 676 OFFCURVE",
"800 720 CURVE SMOOTH",
"800 764 OFFCURVE",
"764 800 OFFCURVE",
"720 800 CURVE SMOOTH",
"427 800 LINE",
"412 906 OFFCURVE",
"382 1009 OFFCURVE",
"339 1110 CURVE SMOOTH",
"326 1140 OFFCURVE",
"320 1170 OFFCURVE",
"320 1200 CURVE SMOOTH",
"320 1332 OFFCURVE",
"428 1440 OFFCURVE",
"560 1440 CURVE SMOOTH",
"626 1440 OFFCURVE",
"683 1417 OFFCURVE",
"730 1370 CURVE SMOOTH",
"748 1351 OFFCURVE",
"763 1333 OFFCURVE",
"774 1316 CURVE",
"787 1300 OFFCURVE",
"805 1292 OFFCURVE",
"830 1292 CURVE SMOOTH",
"874 1292 OFFCURVE",
"910 1328 OFFCURVE",
"910 1372 CURVE SMOOTH",
"910 1409 OFFCURVE",
"882 1444 OFFCURVE",
"843 1483 CURVE SMOOTH",
"765 1561 OFFCURVE",
"671 1600 OFFCURVE",
"560 1600 CURVE SMOOTH",
"339 1600 OFFCURVE",
"160 1421 OFFCURVE",
"160 1200 CURVE SMOOTH",
"160 1150 OFFCURVE",
"170 1100 OFFCURVE",
"191 1050 CURVE",
"190 1050 LINE",
"225 968 OFFCURVE",
"250 885 OFFCURVE",
"265 800 CURVE",
"160 800 LINE SMOOTH",
"116 800 OFFCURVE",
"80 764 OFFCURVE",
"80 720 CURVE SMOOTH",
"80 676 OFFCURVE",
"116 640 OFFCURVE",
"160 640 CURVE SMOOTH",
"279 640 LINE",
"282 470 OFFCURVE",
"244 294 OFFCURVE",
"166 112 CURVE SMOOTH",
"162 102 OFFCURVE",
"160 91 OFFCURVE",
"160 80 CURVE SMOOTH",
"160 36 OFFCURVE",
"196 0 OFFCURVE",
"240 0 CURVE SMOOTH",
"800 0 LINE SMOOTH"
);
}
);
width = 1040;
}
);
note = "\012    sterling\012  ";
unicode = 00A3;
},
{
color = 4;
glyphname = currency;
lastChange = "2016-08-01 02:22:36 +0000";
layers = (
{
layerId = "4B9C72B8-8622-4F9C-A154-BF8DEE7D8E25";
paths = (
{
closed = 1;
nodes = (
"593 1056 OFFCURVE",
"539 1070 OFFCURVE",
"480 1070 CURVE SMOOTH",
"419 1070 OFFCURVE",
"363 1055 OFFCURVE",
"314 1025 CURVE",
"245 1099 LINE",
"230 1113 OFFCURVE",
"211 1120 OFFCURVE",
"190 1120 CURVE SMOOTH",
"146 1120 OFFCURVE",
"110 1084 OFFCURVE",
"110 1040 CURVE SMOOTH",
"110 1018 OFFCURVE",
"118 999 OFFCURVE",
"134 984 CURVE",
"202 911 LINE",
"174 863 OFFCURVE",
"160 809 OFFCURVE",
"160 750 CURVE SMOOTH",
"160 688 OFFCURVE",
"175 633 OFFCURVE",
"206 584 CURVE",
"134 517 LINE",
"118 501 OFFCURVE",
"110 482 OFFCURVE",
"110 460 CURVE SMOOTH",
"110 416 OFFCURVE",
"146 380 OFFCURVE",
"190 380 CURVE SMOOTH",
"211 380 OFFCURVE",
"228 387 OFFCURVE",
"243 400 CURVE",
"320 472 LINE",
"367 444 OFFCURVE",
"421 430 OFFCURVE",
"480 430 CURVE SMOOTH",
"541 430 OFFCURVE",
"597 445 OFFCURVE",
"646 475 CURVE",
"715 401 LINE",
"716 402 LINE",
"731 387 OFFCURVE",
"749 380 OFFCURVE",
"770 380 CURVE SMOOTH",
"814 380 OFFCURVE",
"850 416 OFFCURVE",
"850 460 CURVE SMOOTH",
"850 482 OFFCURVE",
"842 501 OFFCURVE",
"827 517 CURVE SMOOTH",
"758 589 LINE",
"786 637 OFFCURVE",
"800 691 OFFCURVE",
"800 750 CURVE SMOOTH",
"800 811 OFFCURVE",
"785 867 OFFCURVE",
"755 916 CURVE",
"826 982 LINE",
"842 999 OFFCURVE",
"850 1018 OFFCURVE",
"850 1040 CURVE SMOOTH",
"850 1084 OFFCURVE",
"814 1120 OFFCURVE",
"770 1120 CURVE SMOOTH",
"748 1120 OFFCURVE",
"729 1112 OFFCURVE",
"714 1097 CURVE SMOOTH",
"641 1028 LINE"
);
},
{
closed = 1;
nodes = (
"568 910 OFFCURVE",
"640 838 OFFCURVE",
"640 750 CURVE SMOOTH",
"640 662 OFFCURVE",
"568 590 OFFCURVE",
"480 590 CURVE SMOOTH",
"392 590 OFFCURVE",
"320 662 OFFCURVE",
"320 750 CURVE SMOOTH",
"320 838 OFFCURVE",
"392 910 OFFCURVE",
"480 910 CURVE SMOOTH"
);
}
);
width = 960;
}
);
note = "\012    currency\012  ";
unicode = 00A4;
},
{
color = 4;
glyphname = yen;
lastChange = "2016-08-01 02:22:36 +0000";
layers = (
{
layerId = "4B9C72B8-8622-4F9C-A154-BF8DEE7D8E25";
paths = (
{
closed = 1;
nodes = (
"560 776 LINE",
"560 640 LINE",
"160 640 LINE SMOOTH",
"116 640 OFFCURVE",
"80 604 OFFCURVE",
"80 560 CURVE SMOOTH",
"80 516 OFFCURVE",
"116 480 OFFCURVE",
"160 480 CURVE SMOOTH",
"560 480 LINE",
"560 80 LINE SMOOTH",
"560 36 OFFCURVE",
"596 0 OFFCURVE",
"640 0 CURVE SMOOTH",
"684 0 OFFCURVE",
"720 36 OFFCURVE",
"720 80 CURVE SMOOTH",
"720 480 LINE",
"1120 480 LINE SMOOTH",
"1164 480 OFFCURVE",
"1200 516 OFFCURVE",
"1200 560 CURVE SMOOTH",
"1200 604 OFFCURVE",
"1164 640 OFFCURVE",
"1120 640 CURVE SMOOTH",
"720 640 LINE",
"720 776 LINE",
"789 880 LINE",
"1121 880 LINE SMOOTH",
"1164 880 OFFCURVE",
"1200 916 OFFCURVE",
"1200 960 CURVE SMOOTH",
"1200 1004 OFFCURVE",
"1164 1040 OFFCURVE",
"1121 1040 CURVE SMOOTH",
"896 1040 LINE",
"1187 1475 LINE SMOOTH",
"1196 1488 OFFCURVE",
"1200 1503 OFFCURVE",
"1200 1520 CURVE SMOOTH",
"1200 1564 OFFCURVE",
"1164 1600 OFFCURVE",
"1120 1600 CURVE SMOOTH",
"1093 1600 OFFCURVE",
"1071 1589 OFFCURVE",
"1055 1567 CURVE",
"640 945 LINE",
"225 1567 LINE",
"209 1589 OFFCURVE",
"187 1600 OFFCURVE",
"160 1600 CURVE SMOOTH",
"116 1600 OFFCURVE",
"80 1564 OFFCURVE",
"80 1520 CURVE SMOOTH",
"80 1503 OFFCURVE",
"84 1488 OFFCURVE",
"93 1475 CURVE SMOOTH",
"384 1040 LINE",
"160 1040 LINE SMOOTH",
"116 1040 OFFCURVE",
"80 1004 OFFCURVE",
"80 960 CURVE SMOOTH",
"80 916 OFFCURVE",
"116 880 OFFCURVE",
"160 880 CURVE SMOOTH",
"491 880 LINE"
);
}
);
width = 1280;
}
);
note = "\012    yen\012  ";
unicode = 00A5;
},
{
color = 4;
glyphname = brokenbar;
lastChange = "2016-08-01 02:22:36 +0000";
layers = (
{
layerId = "4B9C72B8-8622-4F9C-A154-BF8DEE7D8E25";
paths = (
{
closed = 1;
nodes = (
"160 916 OFFCURVE",
"196 880 OFFCURVE",
"240 880 CURVE SMOOTH",
"284 880 OFFCURVE",
"320 916 OFFCURVE",
"320 960 CURVE SMOOTH",
"320 1680 LINE SMOOTH",
"320 1724 OFFCURVE",
"284 1760 OFFCURVE",
"240 1760 CURVE SMOOTH",
"196 1760 OFFCURVE",
"160 1724 OFFCURVE",
"160 1680 CURVE SMOOTH",
"160 960 LINE SMOOTH"
);
},
{
closed = 1;
nodes = (
"320 364 OFFCURVE",
"284 400 OFFCURVE",
"240 400 CURVE SMOOTH",
"196 400 OFFCURVE",
"160 364 OFFCURVE",
"160 320 CURVE SMOOTH",
"160 -400 LINE SMOOTH",
"160 -444 OFFCURVE",
"196 -480 OFFCURVE",
"240 -480 CURVE SMOOTH",
"284 -480 OFFCURVE",
"320 -444 OFFCURVE",
"320 -400 CURVE SMOOTH",
"320 320 LINE SMOOTH"
);
}
);
width = 480;
}
);
note = "\012    brokenbar\012  ";
unicode = 00A6;
},
{
color = 4;
glyphname = section;
lastChange = "2016-08-01 02:22:36 +0000";
layers = (
{
layerId = "4B9C72B8-8622-4F9C-A154-BF8DEE7D8E25";
paths = (
{
closed = 1;
nodes = (
"612 160 OFFCURVE",
"720 52 OFFCURVE",
"720 -80 CURVE SMOOTH",
"720 -212 OFFCURVE",
"612 -320 OFFCURVE",
"480 -320 CURVE SMOOTH",
"348 -320 OFFCURVE",
"240 -212 OFFCURVE",
"240 -80 CURVE SMOOTH",
"240 -36 OFFCURVE",
"204 0 OFFCURVE",
"160 0 CURVE SMOOTH",
"116 0 OFFCURVE",
"80 -36 OFFCURVE",
"80 -80 CURVE SMOOTH",
"80 -301 OFFCURVE",
"259 -480 OFFCURVE",
"480 -480 CURVE SMOOTH",
"701 -480 OFFCURVE",
"880 -301 OFFCURVE",
"880 -80 CURVE SMOOTH",
"880 31 OFFCURVE",
"841 125 OFFCURVE",
"763 203 CURVE SMOOTH",
"750 216 OFFCURVE",
"736 229 OFFCURVE",
"721 240 CURVE",
"736 251 OFFCURVE",
"750 264 OFFCURVE",
"763 277 CURVE SMOOTH",
"841 355 OFFCURVE",
"880 449 OFFCURVE",
"880 560 CURVE SMOOTH",
"880 781 OFFCURVE",
"701 960 OFFCURVE",
"480 960 CURVE SMOOTH",
"348 960 OFFCURVE",
"240 1068 OFFCURVE",
"240 1200 CURVE SMOOTH",
"240 1332 OFFCURVE",
"348 1440 OFFCURVE",
"480 1440 CURVE SMOOTH",
"612 1440 OFFCURVE",
"720 1332 OFFCURVE",
"720 1200 CURVE SMOOTH",
"720 1156 OFFCURVE",
"756 1120 OFFCURVE",
"800 1120 CURVE SMOOTH",
"844 1120 OFFCURVE",
"880 1156 OFFCURVE",
"880 1200 CURVE SMOOTH",
"880 1421 OFFCURVE",
"701 1600 OFFCURVE",
"480 1600 CURVE SMOOTH",
"259 1600 OFFCURVE",
"80 1421 OFFCURVE",
"80 1200 CURVE SMOOTH",
"80 1089 OFFCURVE",
"119 995 OFFCURVE",
"197 917 CURVE SMOOTH",
"210 904 OFFCURVE",
"224 891 OFFCURVE",
"239 880 CURVE",
"224 869 OFFCURVE",
"210 856 OFFCURVE",
"197 843 CURVE SMOOTH",
"119 765 OFFCURVE",
"80 671 OFFCURVE",
"80 560 CURVE SMOOTH",
"80 339 OFFCURVE",
"259 160 OFFCURVE",
"480 160 CURVE SMOOTH"
);
},
{
closed = 1;
nodes = (
"612 800 OFFCURVE",
"720 692 OFFCURVE",
"720 560 CURVE SMOOTH",
"720 428 OFFCURVE",
"612 320 OFFCURVE",
"480 320 CURVE SMOOTH",
"348 320 OFFCURVE",
"240 428 OFFCURVE",
"240 560 CURVE SMOOTH",
"240 692 OFFCURVE",
"348 800 OFFCURVE",
"480 800 CURVE SMOOTH"
);
}
);
width = 960;
}
);
note = "\012    section\012  ";
unicode = 00A7;
},
{
color = 4;
glyphname = dieresis;
lastChange = "2016-08-01 02:22:36 +0000";
layers = (
{
layerId = "4B9C72B8-8622-4F9C-A154-BF8DEE7D8E25";
paths = (
{
closed = 1;
nodes = (
"339 1415 OFFCURVE",
"294 1460 OFFCURVE",
"239 1460 CURVE SMOOTH",
"184 1460 OFFCURVE",
"139 1415 OFFCURVE",
"139 1360 CURVE SMOOTH",
"139 1305 OFFCURVE",
"184 1260 OFFCURVE",
"239 1260 CURVE SMOOTH",
"294 1260 OFFCURVE",
"339 1305 OFFCURVE",
"339 1360 CURVE SMOOTH"
);
},
{
closed = 1;
nodes = (
"819 1415 OFFCURVE",
"774 1460 OFFCURVE",
"719 1460 CURVE SMOOTH",
"664 1460 OFFCURVE",
"619 1415 OFFCURVE",
"619 1360 CURVE SMOOTH",
"619 1305 OFFCURVE",
"664 1260 OFFCURVE",
"719 1260 CURVE SMOOTH",
"774 1260 OFFCURVE",
"819 1305 OFFCURVE",
"819 1360 CURVE SMOOTH"
);
}
);
width = 960;
}
);
note = "\012    dieresis\012  ";
unicode = 00A8;
},
{
color = 4;
glyphname = copyright;
lastChange = "2016-08-01 02:22:36 +0000";
layers = (
{
layerId = "4B9C72B8-8622-4F9C-A154-BF8DEE7D8E25";
paths = (
{
closed = 1;
nodes = (
"1675 1238 OFFCURVE",
"1318 1595 OFFCURVE",
"878 1595 CURVE SMOOTH",
"437 1595 OFFCURVE",
"80 1238 OFFCURVE",
"80 798 CURVE SMOOTH",
"80 357 OFFCURVE",
"437 0 OFFCURVE",
"878 0 CURVE SMOOTH",
"1318 0 OFFCURVE",
"1675 357 OFFCURVE",
"1675 798 CURVE SMOOTH"
);
},
{
closed = 1;
nodes = (
"1250 1472 OFFCURVE",
"1552 1170 OFFCURVE",
"1552 798 CURVE SMOOTH",
"1552 425 OFFCURVE",
"1250 123 OFFCURVE",
"878 123 CURVE SMOOTH",
"505 123 OFFCURVE",
"203 425 OFFCURVE",
"203 798 CURVE SMOOTH",
"203 1170 OFFCURVE",
"505 1472 OFFCURVE",
"878 1472 CURVE SMOOTH"
);
},
{
closed = 1;
nodes = (
"1171 514 OFFCURVE",
"1155 509 OFFCURVE",
"1141 498 CURVE",
"1067 433 OFFCURVE",
"980 400 OFFCURVE",
"880 400 CURVE SMOOTH",
"659 400 OFFCURVE",
"480 579 OFFCURVE",
"480 800 CURVE SMOOTH",
"480 1021 OFFCURVE",
"659 1200 OFFCURVE",
"880 1200 CURVE SMOOTH",
"980 1200 OFFCURVE",
"1067 1167 OFFCURVE",
"1142 1101 CURVE",
"1157 1089 OFFCURVE",
"1174 1083 OFFCURVE",
"1193 1083 CURVE SMOOTH",
"1237 1083 OFFCURVE",
"1273 1119 OFFCURVE",
"1273 1163 CURVE SMOOTH",
"1273 1188 OFFCURVE",
"1264 1208 OFFCURVE",
"1245 1225 CURVE SMOOTH",
"1142 1315 OFFCURVE",
"1020 1360 OFFCURVE",
"880 1360 CURVE SMOOTH",
"571 1360 OFFCURVE",
"320 1109 OFFCURVE",
"320 800 CURVE SMOOTH",
"320 491 OFFCURVE",
"571 240 OFFCURVE",
"880 240 CURVE SMOOTH",
"1020 240 OFFCURVE",
"1142 285 OFFCURVE",
"1245 375 CURVE",
"1262 392 OFFCURVE",
"1270 412 OFFCURVE",
"1270 434 CURVE SMOOTH",
"1270 478 OFFCURVE",
"1234 514 OFFCURVE",
"1190 514 CURVE SMOOTH"
);
}
);
width = 1760;
}
);
note = "\012    copyright\012  ";
unicode = 00A9;
},
{
color = 4;
glyphname = ordfeminine;
lastChange = "2016-08-01 02:22:36 +0000";
layers = (
{
layerId = "4B9C72B8-8622-4F9C-A154-BF8DEE7D8E25";
paths = (
{
closed = 1;
nodes = (
"720 836 OFFCURVE",
"756 800 OFFCURVE",
"800 800 CURVE SMOOTH",
"844 800 OFFCURVE",
"880 836 OFFCURVE",
"880 880 CURVE SMOOTH",
"880 1200 LINE SMOOTH",
"880 1421 OFFCURVE",
"701 1600 OFFCURVE",
"480 1600 CURVE SMOOTH",
"259 1600 OFFCURVE",
"80 1421 OFFCURVE",
"80 1200 CURVE SMOOTH",
"80 979 OFFCURVE",
"259 800 OFFCURVE",
"480 800 CURVE SMOOTH",
"571 800 OFFCURVE",
"651 826 OFFCURVE",
"720 879 CURVE"
);
},
{
closed = 1;
nodes = (
"612 1440 OFFCURVE",
"720 1332 OFFCURVE",
"720 1200 CURVE SMOOTH",
"720 1068 OFFCURVE",
"612 960 OFFCURVE",
"480 960 CURVE SMOOTH",
"348 960 OFFCURVE",
"240 1068 OFFCURVE",
"240 1200 CURVE SMOOTH",
"240 1332 OFFCURVE",
"348 1440 OFFCURVE",
"480 1440 CURVE SMOOTH"
);
}
);
width = 960;
}
);
note = "\012    ordfeminine\012  ";
unicode = 00AA;
},
{
color = 4;
glyphname = logicalnot;
lastChange = "2016-08-01 02:22:36 +0000";
layers = (
{
layerId = "4B9C72B8-8622-4F9C-A154-BF8DEE7D8E25";
paths = (
{
closed = 1;
nodes = (
"880 720 LINE SMOOTH",
"880 676 OFFCURVE",
"916 640 OFFCURVE",
"960 640 CURVE SMOOTH",
"1004 640 OFFCURVE",
"1040 676 OFFCURVE",
"1040 720 CURVE SMOOTH",
"1040 1040 LINE SMOOTH",
"1040 1084 OFFCURVE",
"1004 1120 OFFCURVE",
"960 1120 CURVE SMOOTH",
"160 1120 LINE SMOOTH",
"116 1120 OFFCURVE",
"80 1084 OFFCURVE",
"80 1040 CURVE SMOOTH",
"80 996 OFFCURVE",
"116 960 OFFCURVE",
"160 960 CURVE SMOOTH",
"880 960 LINE"
);
}
);
width = 1120;
}
);
note = "\012    logicalnot\012  ";
unicode = 00AC;
},
{
color = 4;
glyphname = registered;
lastChange = "2016-08-01 02:22:36 +0000";
layers = (
{
layerId = "4B9C72B8-8622-4F9C-A154-BF8DEE7D8E25";
paths = (
{
closed = 1;
nodes = (
"1675 1238 OFFCURVE",
"1318 1595 OFFCURVE",
"878 1595 CURVE SMOOTH",
"437 1595 OFFCURVE",
"80 1238 OFFCURVE",
"80 798 CURVE SMOOTH",
"80 357 OFFCURVE",
"437 0 OFFCURVE",
"878 0 CURVE SMOOTH",
"1318 0 OFFCURVE",
"1675 357 OFFCURVE",
"1675 798 CURVE SMOOTH"
);
},
{
closed = 1;
nodes = (
"1250 1472 OFFCURVE",
"1552 1170 OFFCURVE",
"1552 798 CURVE SMOOTH",
"1552 425 OFFCURVE",
"1250 123 OFFCURVE",
"878 123 CURVE SMOOTH",
"505 123 OFFCURVE",
"203 425 OFFCURVE",
"203 798 CURVE SMOOTH",
"203 1170 OFFCURVE",
"505 1472 OFFCURVE",
"878 1472 CURVE SMOOTH"
);
},
{
closed = 1;
nodes = (
"584 1322 OFFCURVE",
"560 1299 OFFCURVE",
"560 1270 CURVE SMOOTH",
"560 326 LINE SMOOTH",
"560 297 OFFCURVE",
"584 273 OFFCURVE",
"612 273 CURVE SMOOTH",
"641 273 OFFCURVE",
"665 297 OFFCURVE",
"665 326 CURVE SMOOTH",
"665 693 LINE",
"875 693 LINE SMOOTH",
"882 693 OFFCURVE",
"890 693 OFFCURVE",
"898 694 CURVE",
"1144 300 LINE SMOOTH",
"1155 282 OFFCURVE",
"1171 273 OFFCURVE",
"1190 273 CURVE SMOOTH",
"1218 273 OFFCURVE",
"1242 297 OFFCURVE",
"1242 326 CURVE SMOOTH",
"1242 337 OFFCURVE",
"1239 346 OFFCURVE",
"1233 354 CURVE",
"1005 720 LINE",
"1038 735 OFFCURVE",
"1069 757 OFFCURVE",
"1097 785 CURVE SMOOTH",
"1159 846 OFFCURVE",
"1190 921 OFFCURVE",
"1190 1008 CURVE SMOOTH",
"1190 1181 OFFCURVE",
"1048 1322 OFFCURVE",
"875 1322 CURVE SMOOTH",
"612 1322 LINE SMOOTH"
);
},
{
closed = 1;
nodes = (
"991 1217 OFFCURVE",
"1085 1124 OFFCURVE",
"1085 1008 CURVE SMOOTH",
"1085 891 OFFCURVE",
"991 798 OFFCURVE",
"875 798 CURVE SMOOTH",
"665 798 LINE",
"665 1217 LINE",
"875 1217 LINE SMOOTH"
);
}
);
width = 1760;
}
);
note = "\012    registered\012  ";
unicode = 00AE;
},
{
color = 4;
glyphname = macron;
lastChange = "2016-08-01 02:22:36 +0000";
layers = (
{
layerId = "4B9C72B8-8622-4F9C-A154-BF8DEE7D8E25";
paths = (
{
closed = 1;
nodes = (
"1004 1760 OFFCURVE",
"1040 1796 OFFCURVE",
"1040 1840 CURVE SMOOTH",
"1040 1884 OFFCURVE",
"1004 1920 OFFCURVE",
"960 1920 CURVE SMOOTH",
"160 1920 LINE SMOOTH",
"116 1920 OFFCURVE",
"80 1884 OFFCURVE",
"80 1840 CURVE SMOOTH",
"80 1796 OFFCURVE",
"116 1760 OFFCURVE",
"160 1760 CURVE SMOOTH",
"960 1760 LINE SMOOTH"
);
}
);
width = 1120;
}
);
note = "\012    macron\012  ";
unicode = 00AF;
},
{
color = 4;
glyphname = degree;
lastChange = "2016-08-01 02:22:36 +0000";
layers = (
{
layerId = "4B9C72B8-8622-4F9C-A154-BF8DEE7D8E25";
paths = (
{
closed = 1;
nodes = (
"880 1421 OFFCURVE",
"701 1600 OFFCURVE",
"480 1600 CURVE SMOOTH",
"259 1600 OFFCURVE",
"80 1421 OFFCURVE",
"80 1200 CURVE SMOOTH",
"80 979 OFFCURVE",
"259 800 OFFCURVE",
"480 800 CURVE SMOOTH",
"701 800 OFFCURVE",
"880 979 OFFCURVE",
"880 1200 CURVE SMOOTH"
);
},
{
closed = 1;
nodes = (
"612 1440 OFFCURVE",
"720 1332 OFFCURVE",
"720 1200 CURVE SMOOTH",
"720 1068 OFFCURVE",
"612 960 OFFCURVE",
"480 960 CURVE SMOOTH",
"348 960 OFFCURVE",
"240 1068 OFFCURVE",
"240 1200 CURVE SMOOTH",
"240 1332 OFFCURVE",
"348 1440 OFFCURVE",
"480 1440 CURVE SMOOTH"
);
}
);
width = 960;
}
);
note = "\012    degree\012  ";
unicode = 00B0;
},
{
color = 4;
glyphname = plusminus;
lastChange = "2016-08-01 02:22:36 +0000";
layers = (
{
layerId = "4B9C72B8-8622-4F9C-A154-BF8DEE7D8E25";
paths = (
{
closed = 1;
nodes = (
"160 880 LINE SMOOTH",
"116 880 OFFCURVE",
"80 844 OFFCURVE",
"80 800 CURVE SMOOTH",
"80 756 OFFCURVE",
"116 720 OFFCURVE",
"160 720 CURVE SMOOTH",
"480 720 LINE",
"480 400 LINE SMOOTH",
"480 356 OFFCURVE",
"516 320 OFFCURVE",
"560 320 CURVE SMOOTH",
"604 320 OFFCURVE",
"640 356 OFFCURVE",
"640 400 CURVE SMOOTH",
"640 720 LINE",
"960 720 LINE SMOOTH",
"1004 720 OFFCURVE",
"1040 756 OFFCURVE",
"1040 800 CURVE SMOOTH",
"1040 844 OFFCURVE",
"1004 880 OFFCURVE",
"960 880 CURVE SMOOTH",
"640 880 LINE",
"640 1200 LINE SMOOTH",
"640 1244 OFFCURVE",
"604 1280 OFFCURVE",
"560 1280 CURVE SMOOTH",
"516 1280 OFFCURVE",
"480 1244 OFFCURVE",
"480 1200 CURVE SMOOTH",
"480 880 LINE"
);
},
{
closed = 1;
nodes = (
"1004 0 OFFCURVE",
"1040 36 OFFCURVE",
"1040 80 CURVE SMOOTH",
"1040 124 OFFCURVE",
"1004 160 OFFCURVE",
"960 160 CURVE SMOOTH",
"160 160 LINE SMOOTH",
"116 160 OFFCURVE",
"80 124 OFFCURVE",
"80 80 CURVE SMOOTH",
"80 36 OFFCURVE",
"116 0 OFFCURVE",
"160 0 CURVE SMOOTH",
"960 0 LINE SMOOTH"
);
}
);
width = 1120;
}
);
note = "\012    plusminus\012  ";
unicode = 00B1;
},
{
color = 4;
glyphname = acute;
lastChange = "2016-08-01 02:22:36 +0000";
layers = (
{
layerId = "4B9C72B8-8622-4F9C-A154-BF8DEE7D8E25";
paths = (
{
closed = 1;
nodes = (
"473 1480 OFFCURVE",
"480 1499 OFFCURVE",
"480 1520 CURVE SMOOTH",
"480 1564 OFFCURVE",
"444 1600 OFFCURVE",
"400 1600 CURVE SMOOTH",
"378 1600 OFFCURVE",
"359 1592 OFFCURVE",
"343 1577 CURVE SMOOTH",
"100 1334 LINE",
"87 1319 OFFCURVE",
"80 1301 OFFCURVE",
"80 1280 CURVE SMOOTH",
"80 1236 OFFCURVE",
"116 1200 OFFCURVE",
"160 1200 CURVE SMOOTH",
"181 1200 OFFCURVE",
"200 1207 OFFCURVE",
"215 1221 CURVE SMOOTH",
"458 1464 LINE SMOOTH"
);
}
);
width = 560;
}
);
note = "\012    acute\012  ";
unicode = 00B4;
},
{
color = 4;
glyphname = paragraph;
lastChange = "2016-08-01 02:22:36 +0000";
layers = (
{
layerId = "4B9C72B8-8622-4F9C-A154-BF8DEE7D8E25";
paths = (
{
closed = 1;
nodes = (
"1004 1440 OFFCURVE",
"1040 1476 OFFCURVE",
"1040 1520 CURVE SMOOTH",
"1040 1564 OFFCURVE",
"1004 1600 OFFCURVE",
"960 1600 CURVE SMOOTH",
"480 1600 LINE SMOOTH",
"259 1600 OFFCURVE",
"80 1421 OFFCURVE",
"80 1200 CURVE SMOOTH",
"80 979 OFFCURVE",
"259 800 OFFCURVE",
"480 800 CURVE",
"480 80 LINE SMOOTH",
"480 36 OFFCURVE",
"516 0 OFFCURVE",
"560 0 CURVE SMOOTH",
"604 0 OFFCURVE",
"640 36 OFFCURVE",
"640 80 CURVE SMOOTH",
"640 1440 LINE",
"800 1440 LINE",
"800 80 LINE SMOOTH",
"800 36 OFFCURVE",
"836 0 OFFCURVE",
"880 0 CURVE SMOOTH",
"924 0 OFFCURVE",
"960 36 OFFCURVE",
"960 80 CURVE SMOOTH",
"960 1440 LINE"
);
}
);
width = 1120;
}
);
note = "\012    paragraph\012  ";
unicode = 00B6;
},
{
color = 4;
glyphname = periodcentered;
lastChange = "2016-08-01 02:22:36 +0000";
layers = (
{
layerId = "4B9C72B8-8622-4F9C-A154-BF8DEE7D8E25";
paths = (
{
closed = 1;
nodes = (
"320 827 OFFCURVE",
"267 880 OFFCURVE",
"200 880 CURVE SMOOTH",
"133 880 OFFCURVE",
"80 827 OFFCURVE",
"80 760 CURVE SMOOTH",
"80 693 OFFCURVE",
"133 640 OFFCURVE",
"200 640 CURVE SMOOTH",
"267 640 OFFCURVE",
"320 693 OFFCURVE",
"320 760 CURVE SMOOTH"
);
}
);
width = 400;
}
);
note = "\012    periodcentered\012  ";
unicode = 00B7;
},
{
color = 4;
glyphname = cedilla;
lastChange = "2016-08-01 02:22:36 +0000";
layers = (
{
layerId = "4B9C72B8-8622-4F9C-A154-BF8DEE7D8E25";
paths = (
{
closed = 1;
nodes = (
"294 47 OFFCURVE",
"287 36 OFFCURVE",
"283 23 CURVE SMOOTH",
"244 -114 LINE",
"241 -122 OFFCURVE",
"240 -131 OFFCURVE",
"240 -140 CURVE SMOOTH",
"240 -184 OFFCURVE",
"276 -220 OFFCURVE",
"320 -220 CURVE SMOOTH",
"364 -220 OFFCURVE",
"400 -239 OFFCURVE",
"400 -270 CURVE SMOOTH",
"400 -301 OFFCURVE",
"364 -320 OFFCURVE",
"320 -320 CURVE SMOOTH",
"307 -320 OFFCURVE",
"294 -317 OFFCURVE",
"281 -310 CURVE",
"203 -262 LINE SMOOTH",
"190 -254 OFFCURVE",
"176 -250 OFFCURVE",
"160 -250 CURVE SMOOTH",
"116 -250 OFFCURVE",
"80 -286 OFFCURVE",
"80 -330 CURVE SMOOTH",
"80 -355 OFFCURVE",
"92 -378 OFFCURVE",
"115 -397 CURVE",
"206 -451 LINE",
"243 -470 OFFCURVE",
"281 -480 OFFCURVE",
"320 -480 CURVE SMOOTH",
"452 -480 OFFCURVE",
"560 -389 OFFCURVE",
"560 -270 CURVE SMOOTH",
"560 -211 OFFCURVE",
"537 -161 OFFCURVE",
"490 -120 CURVE",
"469 -103 OFFCURVE",
"446 -89 OFFCURVE",
"421 -79 CURVE",
"438 -19 LINE",
"439 -13 OFFCURVE",
"440 -7 OFFCURVE",
"440 0 CURVE SMOOTH",
"440 44 OFFCURVE",
"404 80 OFFCURVE",
"360 80 CURVE SMOOTH",
"338 80 OFFCURVE",
"319 72 OFFCURVE",
"304 57 CURVE SMOOTH"
);
}
);
width = 640;
}
);
note = "\012    cedilla\012  ";
unicode = 00B8;
},
{
color = 4;
glyphname = ordmasculine;
lastChange = "2016-08-01 02:22:36 +0000";
layers = (
{
layerId = "4B9C72B8-8622-4F9C-A154-BF8DEE7D8E25";
paths = (
{
closed = 1;
nodes = (
"80 1044 OFFCURVE",
"113 930 OFFCURVE",
"178 863 CURVE SMOOTH",
"217 824 OFFCURVE",
"264 805 OFFCURVE",
"319 805 CURVE SMOOTH",
"374 805 OFFCURVE",
"420 824 OFFCURVE",
"459 863 CURVE SMOOTH",
"524 930 OFFCURVE",
"557 1044 OFFCURVE",
"557 1203 CURVE SMOOTH",
"557 1362 OFFCURVE",
"524 1475 OFFCURVE",
"459 1542 CURVE SMOOTH",
"420 1581 OFFCURVE",
"374 1600 OFFCURVE",
"319 1600 CURVE SMOOTH",
"264 1600 OFFCURVE",
"217 1581 OFFCURVE",
"178 1542 CURVE SMOOTH",
"113 1475 OFFCURVE",
"80 1362 OFFCURVE",
"80 1203 CURVE SMOOTH"
);
},
{
closed = 1;
nodes = (
"352 1521 OFFCURVE",
"380 1509 OFFCURVE",
"403 1485 CURVE",
"453 1429 OFFCURVE",
"478 1335 OFFCURVE",
"478 1203 CURVE SMOOTH",
"478 1070 OFFCURVE",
"453 976 OFFCURVE",
"403 920 CURVE",
"380 897 OFFCURVE",
"352 885 OFFCURVE",
"319 885 CURVE SMOOTH",
"286 885 OFFCURVE",
"257 897 OFFCURVE",
"234 920 CURVE",
"185 976 OFFCURVE",
"160 1070 OFFCURVE",
"160 1203 CURVE SMOOTH",
"160 1335 OFFCURVE",
"185 1429 OFFCURVE",
"234 1485 CURVE",
"257 1509 OFFCURVE",
"286 1521 OFFCURVE",
"319 1521 CURVE SMOOTH"
);
}
);
width = 640;
}
);
note = "\012    ordmasculine\012  ";
unicode = 00BA;
},
{
color = 4;
glyphname = onequarter;
lastChange = "2016-08-01 02:22:36 +0000";
layers = (
{
layerId = "4B9C72B8-8622-4F9C-A154-BF8DEE7D8E25";
paths = (
{
closed = 1;
nodes = (
"320 1580 OFFCURVE",
"299 1601 OFFCURVE",
"272 1601 CURVE SMOOTH",
"266 1601 OFFCURVE",
"260 1600 OFFCURVE",
"255 1598 CURVE",
"111 1550 LINE",
"105 1547 OFFCURVE",
"99 1544 OFFCURVE",
"94 1539 CURVE SMOOTH",
"85 1530 OFFCURVE",
"80 1518 OFFCURVE",
"80 1505 CURVE SMOOTH",
"80 1478 OFFCURVE",
"101 1457 OFFCURVE",
"128 1457 CURVE SMOOTH",
"135 1457 OFFCURVE",
"141 1458 OFFCURVE",
"147 1460 CURVE SMOOTH",
"224 1486 LINE",
"224 688 LINE SMOOTH",
"224 661 OFFCURVE",
"245 640 OFFCURVE",
"272 640 CURVE SMOOTH",
"299 640 OFFCURVE",
"320 661 OFFCURVE",
"320 688 CURVE SMOOTH",
"320 1553 LINE SMOOTH"
);
},
{
closed = 1;
nodes = (
"1171 1600 OFFCURVE",
"1150 1590 OFFCURVE",
"1136 1569 CURVE SMOOTH",
"172 123 LINE",
"164 110 OFFCURVE",
"160 96 OFFCURVE",
"160 80 CURVE SMOOTH",
"160 36 OFFCURVE",
"196 0 OFFCURVE",
"240 0 CURVE SMOOTH",
"269 0 OFFCURVE",
"292 14 OFFCURVE",
"310 41 CURVE SMOOTH",
"1268 1477 LINE",
"1276 1490 OFFCURVE",
"1280 1504 OFFCURVE",
"1280 1520 CURVE SMOOTH",
"1280 1564 OFFCURVE",
"1244 1600 OFFCURVE",
"1200 1600 CURVE SMOOTH"
);
},
{
closed = 1;
nodes = (
"1120 48 LINE SMOOTH",
"1120 21 OFFCURVE",
"1141 0 OFFCURVE",
"1168 0 CURVE SMOOTH",
"1195 0 OFFCURVE",
"1216 21 OFFCURVE",
"1216 48 CURVE SMOOTH",
"1216 240 LINE",
"1312 240 LINE SMOOTH",
"1339 240 OFFCURVE",
"1360 261 OFFCURVE",
"1360 288 CURVE SMOOTH",
"1360 315 OFFCURVE",
"1339 336 OFFCURVE",
"1312 336 CURVE SMOOTH",
"1216 336 LINE",
"1216 912 LINE SMOOTH",
"1216 939 OFFCURVE",
"1195 960 OFFCURVE",
"1168 960 CURVE SMOOTH",
"1155 960 OFFCURVE",
"1143 955 OFFCURVE",
"1134 946 CURVE SMOOTH",
"1132 944 OFFCURVE",
"1130 942 OFFCURVE",
"1129 940 CURVE",
"697 316 LINE",
"691 308 OFFCURVE",
"688 299 OFFCURVE",
"688 288 CURVE SMOOTH",
"688 261 OFFCURVE",
"709 240 OFFCURVE",
"736 240 CURVE SMOOTH",
"1120 240 LINE"
);
},
{
closed = 1;
nodes = (
"1120 758 LINE",
"1120 336 LINE",
"828 336 LINE"
);
}
);
width = 1440;
}
);
note = "\012    onequarter\012  ";
unicode = 00BC;
},
{
color = 4;
glyphname = onehalf;
lastChange = "2016-08-01 02:22:36 +0000";
layers = (
{
layerId = "4B9C72B8-8622-4F9C-A154-BF8DEE7D8E25";
paths = (
{
closed = 1;
nodes = (
"320 1580 OFFCURVE",
"299 1601 OFFCURVE",
"272 1601 CURVE SMOOTH",
"266 1601 OFFCURVE",
"260 1600 OFFCURVE",
"255 1598 CURVE",
"111 1550 LINE",
"105 1547 OFFCURVE",
"99 1544 OFFCURVE",
"94 1539 CURVE SMOOTH",
"85 1530 OFFCURVE",
"80 1518 OFFCURVE",
"80 1505 CURVE SMOOTH",
"80 1478 OFFCURVE",
"101 1457 OFFCURVE",
"128 1457 CURVE SMOOTH",
"135 1457 OFFCURVE",
"141 1458 OFFCURVE",
"147 1460 CURVE SMOOTH",
"224 1486 LINE",
"224 688 LINE SMOOTH",
"224 661 OFFCURVE",
"245 640 OFFCURVE",
"272 640 CURVE SMOOTH",
"299 640 OFFCURVE",
"320 661 OFFCURVE",
"320 688 CURVE SMOOTH",
"320 1553 LINE SMOOTH"
);
},
{
closed = 1;
nodes = (
"1171 1600 OFFCURVE",
"1150 1590 OFFCURVE",
"1136 1569 CURVE SMOOTH",
"172 123 LINE",
"164 110 OFFCURVE",
"160 96 OFFCURVE",
"160 80 CURVE SMOOTH",
"160 36 OFFCURVE",
"196 0 OFFCURVE",
"240 0 CURVE SMOOTH",
"269 0 OFFCURVE",
"292 14 OFFCURVE",
"310 41 CURVE SMOOTH",
"1268 1477 LINE",
"1276 1490 OFFCURVE",
"1280 1504 OFFCURVE",
"1280 1520 CURVE SMOOTH",
"1280 1564 OFFCURVE",
"1244 1600 OFFCURVE",
"1200 1600 CURVE SMOOTH"
);
},
{
closed = 1;
nodes = (
"1435 468 LINE",
"1492 525 OFFCURVE",
"1520 593 OFFCURVE",
"1520 673 CURVE SMOOTH",
"1520 832 OFFCURVE",
"1391 961 OFFCURVE",
"1231 961 CURVE SMOOTH",
"1072 961 OFFCURVE",
"943 832 OFFCURVE",
"943 673 CURVE SMOOTH",
"943 646 OFFCURVE",
"964 625 OFFCURVE",
"991 625 CURVE SMOOTH",
"1018 625 OFFCURVE",
"1039 646 OFFCURVE",
"1039 673 CURVE SMOOTH",
"1039 780 OFFCURVE",
"1124 865 OFFCURVE",
"1231 865 CURVE SMOOTH",
"1338 865 OFFCURVE",
"1424 780 OFFCURVE",
"1424 673 CURVE SMOOTH",
"1424 620 OFFCURVE",
"1405 574 OFFCURVE",
"1367 536 CURVE",
"957 82 LINE",
"948 73 OFFCURVE",
"943 61 OFFCURVE",
"943 48 CURVE SMOOTH",
"943 21 OFFCURVE",
"964 0 OFFCURVE",
"991 0 CURVE SMOOTH",
"1472 0 LINE SMOOTH",
"1497 0 OFFCURVE",
"1520 21 OFFCURVE",
"1520 48 CURVE SMOOTH",
"1520 75 OFFCURVE",
"1497 96 OFFCURVE",
"1472 96 CURVE SMOOTH",
"1100 96 LINE"
);
}
);
width = 1600;
}
);
note = "\012    onehalf\012  ";
unicode = 00BD;
},
{
color = 4;
glyphname = threequarters;
lastChange = "2016-08-01 02:22:36 +0000";
layers = (
{
layerId = "4B9C72B8-8622-4F9C-A154-BF8DEE7D8E25";
paths = (
{
closed = 1;
nodes = (
"1331 1600 OFFCURVE",
"1310 1590 OFFCURVE",
"1296 1569 CURVE SMOOTH",
"332 123 LINE",
"324 110 OFFCURVE",
"320 96 OFFCURVE",
"320 80 CURVE SMOOTH",
"320 36 OFFCURVE",
"356 0 OFFCURVE",
"400 0 CURVE SMOOTH",
"429 0 OFFCURVE",
"452 14 OFFCURVE",
"470 41 CURVE SMOOTH",
"1428 1477 LINE",
"1436 1490 OFFCURVE",
"1440 1504 OFFCURVE",
"1440 1520 CURVE SMOOTH",
"1440 1564 OFFCURVE",
"1404 1600 OFFCURVE",
"1360 1600 CURVE SMOOTH"
);
},
{
closed = 1;
nodes = (
"474 1119 OFFCURVE",
"558 1034 OFFCURVE",
"558 927 CURVE SMOOTH",
"558 822 OFFCURVE",
"474 736 OFFCURVE",
"367 736 CURVE SMOOTH",
"260 736 OFFCURVE",
"176 822 OFFCURVE",
"176 927 CURVE SMOOTH",
"176 954 OFFCURVE",
"155 975 OFFCURVE",
"128 975 CURVE SMOOTH",
"101 975 OFFCURVE",
"80 954 OFFCURVE",
"80 927 CURVE SMOOTH",
"80 768 OFFCURVE",
"208 640 OFFCURVE",
"367 640 CURVE SMOOTH",
"526 640 OFFCURVE",
"654 768 OFFCURVE",
"654 927 CURVE SMOOTH",
"654 1006 OFFCURVE",
"626 1074 OFFCURVE",
"570 1131 CURVE SMOOTH",
"554 1147 OFFCURVE",
"537 1161 OFFCURVE",
"518 1172 CURVE",
"524 1177 OFFCURVE",
"530 1183 OFFCURVE",
"536 1189 CURVE SMOOTH",
"583 1236 OFFCURVE",
"606 1292 OFFCURVE",
"606 1358 CURVE SMOOTH",
"606 1490 OFFCURVE",
"499 1597 OFFCURVE",
"367 1597 CURVE SMOOTH",
"235 1597 OFFCURVE",
"128 1490 OFFCURVE",
"128 1358 CURVE SMOOTH",
"128 1331 OFFCURVE",
"149 1310 OFFCURVE",
"176 1310 CURVE SMOOTH",
"201 1310 OFFCURVE",
"224 1331 OFFCURVE",
"224 1358 CURVE SMOOTH",
"224 1437 OFFCURVE",
"288 1501 OFFCURVE",
"367 1501 CURVE SMOOTH",
"446 1501 OFFCURVE",
"511 1437 OFFCURVE",
"511 1358 CURVE SMOOTH",
"511 1279 OFFCURVE",
"446 1214 OFFCURVE",
"367 1214 CURVE SMOOTH",
"340 1214 OFFCURVE",
"319 1192 OFFCURVE",
"319 1167 CURVE SMOOTH",
"319 1140 OFFCURVE",
"340 1119 OFFCURVE",
"367 1119 CURVE SMOOTH"
);
},
{
closed = 1;
nodes = (
"1280 48 LINE SMOOTH",
"1280 21 OFFCURVE",
"1301 0 OFFCURVE",
"1328 0 CURVE SMOOTH",
"1355 0 OFFCURVE",
"1376 21 OFFCURVE",
"1376 48 CURVE SMOOTH",
"1376 240 LINE",
"1472 240 LINE SMOOTH",
"1499 240 OFFCURVE",
"1520 261 OFFCURVE",
"1520 288 CURVE SMOOTH",
"1520 315 OFFCURVE",
"1499 336 OFFCURVE",
"1472 336 CURVE SMOOTH",
"1376 336 LINE",
"1376 912 LINE SMOOTH",
"1376 939 OFFCURVE",
"1355 960 OFFCURVE",
"1328 960 CURVE SMOOTH",
"1315 960 OFFCURVE",
"1303 955 OFFCURVE",
"1294 946 CURVE SMOOTH",
"1292 944 OFFCURVE",
"1290 942 OFFCURVE",
"1289 940 CURVE",
"857 316 LINE",
"851 308 OFFCURVE",
"848 299 OFFCURVE",
"848 288 CURVE SMOOTH",
"848 261 OFFCURVE",
"869 240 OFFCURVE",
"896 240 CURVE SMOOTH",
"1280 240 LINE"
);
},
{
closed = 1;
nodes = (
"1280 758 LINE",
"1280 336 LINE",
"988 336 LINE"
);
}
);
width = 1600;
}
);
note = "\012    threequarters\012  ";
unicode = 00BE;
},
{
color = 4;
glyphname = questiondown;
lastChange = "2016-08-01 02:22:36 +0000";
layers = (
{
layerId = "4B9C72B8-8622-4F9C-A154-BF8DEE7D8E25";
paths = (
{
closed = 1;
nodes = (
"627 879 OFFCURVE",
"680 932 OFFCURVE",
"680 999 CURVE SMOOTH",
"680 1066 OFFCURVE",
"627 1119 OFFCURVE",
"560 1119 CURVE SMOOTH",
"493 1119 OFFCURVE",
"440 1066 OFFCURVE",
"440 999 CURVE SMOOTH",
"440 932 OFFCURVE",
"493 879 OFFCURVE",
"560 879 CURVE SMOOTH"
);
},
{
closed = 1;
nodes = (
"383 -320 OFFCURVE",
"240 -177 OFFCURVE",
"240 0 CURVE SMOOTH",
"240 89 OFFCURVE",
"271 164 OFFCURVE",
"334 227 CURVE",
"499 380 LINE",
"593 474 OFFCURVE",
"640 587 OFFCURVE",
"640 720 CURVE SMOOTH",
"640 764 OFFCURVE",
"604 800 OFFCURVE",
"560 800 CURVE SMOOTH",
"516 800 OFFCURVE",
"480 764 OFFCURVE",
"480 720 CURVE SMOOTH",
"480 631 OFFCURVE",
"449 556 OFFCURVE",
"386 493 CURVE",
"221 340 LINE",
"127 246 OFFCURVE",
"80 133 OFFCURVE",
"80 0 CURVE SMOOTH",
"80 -265 OFFCURVE",
"295 -480 OFFCURVE",
"560 -480 CURVE SMOOTH",
"825 -480 OFFCURVE",
"1040 -265 OFFCURVE",
"1040 0 CURVE SMOOTH",
"1040 44 OFFCURVE",
"1004 80 OFFCURVE",
"960 80 CURVE SMOOTH",
"916 80 OFFCURVE",
"880 44 OFFCURVE",
"880 0 CURVE SMOOTH",
"880 -177 OFFCURVE",
"737 -320 OFFCURVE",
"560 -320 CURVE SMOOTH"
);
}
);
width = 1120;
}
);
note = "\012    questiondown\012  ";
unicode = 00BF;
},
{
color = 4;
glyphname = AE;
lastChange = "2016-08-01 02:22:36 +0000";
layers = (
{
layerId = "4B9C72B8-8622-4F9C-A154-BF8DEE7D8E25";
paths = (
{
closed = 1;
nodes = (
"930 1600 OFFCURVE",
"907 1588 OFFCURVE",
"892 1563 CURVE SMOOTH",
"90 119 LINE",
"83 108 OFFCURVE",
"80 95 OFFCURVE",
"80 80 CURVE SMOOTH",
"80 36 OFFCURVE",
"116 0 OFFCURVE",
"160 0 CURVE SMOOTH",
"189 0 OFFCURVE",
"211 12 OFFCURVE",
"228 37 CURVE",
"563 640 LINE",
"880 640 LINE",
"880 80 LINE SMOOTH",
"880 36 OFFCURVE",
"916 0 OFFCURVE",
"960 0 CURVE SMOOTH",
"1600 0 LINE SMOOTH",
"1644 0 OFFCURVE",
"1680 36 OFFCURVE",
"1680 80 CURVE SMOOTH",
"1680 124 OFFCURVE",
"1644 160 OFFCURVE",
"1600 160 CURVE SMOOTH",
"1040 160 LINE",
"1040 640 LINE",
"1440 640 LINE SMOOTH",
"1484 640 OFFCURVE",
"1520 676 OFFCURVE",
"1520 720 CURVE SMOOTH",
"1520 764 OFFCURVE",
"1484 800 OFFCURVE",
"1440 800 CURVE SMOOTH",
"1040 800 LINE",
"1040 1440 LINE",
"1600 1440 LINE SMOOTH",
"1644 1440 OFFCURVE",
"1680 1476 OFFCURVE",
"1680 1520 CURVE SMOOTH",
"1680 1564 OFFCURVE",
"1644 1600 OFFCURVE",
"1600 1600 CURVE SMOOTH",
"960 1600 LINE SMOOTH"
);
},
{
closed = 1;
nodes = (
"652 800 LINE",
"880 1210 LINE",
"880 800 LINE"
);
}
);
width = 1760;
}
);
note = "\012    AE\012  ";
unicode = 00C6;
},
{
color = 4;
glyphname = Eth;
lastChange = "2016-08-01 02:22:36 +0000";
layers = (
{
layerId = "4B9C72B8-8622-4F9C-A154-BF8DEE7D8E25";
paths = (
{
closed = 1;
nodes = (
"36 880 OFFCURVE",
"0 844 OFFCURVE",
"0 800 CURVE SMOOTH",
"0 756 OFFCURVE",
"36 720 OFFCURVE",
"80 720 CURVE SMOOTH",
"239 720 LINE",
"239 80 LINE SMOOTH",
"239 36 OFFCURVE",
"275 0 OFFCURVE",
"319 0 CURVE SMOOTH",
"639 0 LINE SMOOTH",
"1080 0 OFFCURVE",
"1439 359 OFFCURVE",
"1439 800 CURVE SMOOTH",
"1439 1241 OFFCURVE",
"1080 1600 OFFCURVE",
"639 1600 CURVE SMOOTH",
"319 1600 LINE SMOOTH",
"275 1600 OFFCURVE",
"239 1564 OFFCURVE",
"239 1520 CURVE SMOOTH",
"239 880 LINE",
"80 880 LINE SMOOTH"
);
},
{
closed = 1;
nodes = (
"639 1440 LINE SMOOTH",
"992 1440 OFFCURVE",
"1279 1153 OFFCURVE",
"1279 800 CURVE SMOOTH",
"1279 447 OFFCURVE",
"992 160 OFFCURVE",
"639 160 CURVE SMOOTH",
"399 160 LINE",
"399 720 LINE",
"719 720 LINE SMOOTH",
"763 720 OFFCURVE",
"799 756 OFFCURVE",
"799 800 CURVE SMOOTH",
"799 844 OFFCURVE",
"763 880 OFFCURVE",
"719 880 CURVE SMOOTH",
"399 880 LINE",
"399 1440 LINE"
);
}
);
width = 1520;
}
);
note = "\012    Eth\012  ";
unicode = 00D0;
},
{
color = 4;
glyphname = multiply;
lastChange = "2016-08-01 02:22:36 +0000";
layers = (
{
layerId = "4B9C72B8-8622-4F9C-A154-BF8DEE7D8E25";
paths = (
{
closed = 1;
nodes = (
"87 440 OFFCURVE",
"80 421 OFFCURVE",
"80 400 CURVE SMOOTH",
"80 356 OFFCURVE",
"116 320 OFFCURVE",
"160 320 CURVE SMOOTH",
"181 320 OFFCURVE",
"200 327 OFFCURVE",
"215 341 CURVE SMOOTH",
"480 606 LINE",
"745 341 LINE SMOOTH",
"760 327 OFFCURVE",
"779 320 OFFCURVE",
"800 320 CURVE SMOOTH",
"844 320 OFFCURVE",
"880 356 OFFCURVE",
"880 400 CURVE SMOOTH",
"880 421 OFFCURVE",
"873 440 OFFCURVE",
"858 456 CURVE SMOOTH",
"594 720 LINE",
"858 984 LINE SMOOTH",
"873 1000 OFFCURVE",
"880 1019 OFFCURVE",
"880 1040 CURVE SMOOTH",
"880 1084 OFFCURVE",
"844 1120 OFFCURVE",
"800 1120 CURVE SMOOTH",
"778 1120 OFFCURVE",
"759 1112 OFFCURVE",
"742 1096 CURVE SMOOTH",
"480 834 LINE",
"218 1096 LINE SMOOTH",
"201 1112 OFFCURVE",
"182 1120 OFFCURVE",
"160 1120 CURVE SMOOTH",
"116 1120 OFFCURVE",
"80 1084 OFFCURVE",
"80 1040 CURVE SMOOTH",
"80 1019 OFFCURVE",
"87 1000 OFFCURVE",
"102 984 CURVE SMOOTH",
"366 720 LINE",
"102 456 LINE SMOOTH"
);
}
);
width = 960;
}
);
note = "\012    multiply\012  ";
unicode = 00D7;
},
{
color = 4;
glyphname = Oslash;
lastChange = "2016-08-01 02:22:36 +0000";
layers = (
{
layerId = "4B9C72B8-8622-4F9C-A154-BF8DEE7D8E25";
paths = (
{
closed = 1;
nodes = (
"1674 1484 OFFCURVE",
"1680 1501 OFFCURVE",
"1680 1520 CURVE SMOOTH",
"1680 1564 OFFCURVE",
"1644 1600 OFFCURVE",
"1600 1600 CURVE SMOOTH",
"1578 1600 OFFCURVE",
"1559 1592 OFFCURVE",
"1543 1577 CURVE SMOOTH",
"1386 1420 LINE",
"1242 1540 OFFCURVE",
"1073 1600 OFFCURVE",
"880 1600 CURVE SMOOTH",
"439 1600 OFFCURVE",
"80 1241 OFFCURVE",
"80 800 CURVE SMOOTH",
"80 607 OFFCURVE",
"140 438 OFFCURVE",
"260 294 CURVE",
"101 135 LINE SMOOTH",
"87 120 OFFCURVE",
"80 101 OFFCURVE",
"80 80 CURVE SMOOTH",
"80 36 OFFCURVE",
"116 0 OFFCURVE",
"160 0 CURVE SMOOTH",
"182 0 OFFCURVE",
"201 8 OFFCURVE",
"217 23 CURVE SMOOTH",
"374 180 LINE",
"518 60 OFFCURVE",
"687 0 OFFCURVE",
"880 0 CURVE SMOOTH",
"1321 0 OFFCURVE",
"1680 359 OFFCURVE",
"1680 800 CURVE SMOOTH",
"1680 993 OFFCURVE",
"1620 1162 OFFCURVE",
"1500 1306 CURVE",
"1662 1469 LINE"
);
},
{
closed = 1;
nodes = (
"285 520 OFFCURVE",
"240 651 OFFCURVE",
"240 800 CURVE SMOOTH",
"240 1153 OFFCURVE",
"527 1440 OFFCURVE",
"880 1440 CURVE SMOOTH",
"1029 1440 OFFCURVE",
"1160 1395 OFFCURVE",
"1272 1306 CURVE",
"374 408 LINE"
);
},
{
closed = 1;
nodes = (
"1475 1080 OFFCURVE",
"1520 949 OFFCURVE",
"1520 800 CURVE SMOOTH",
"1520 447 OFFCURVE",
"1233 160 OFFCURVE",
"880 160 CURVE SMOOTH",
"731 160 OFFCURVE",
"600 205 OFFCURVE",
"488 294 CURVE",
"1386 1193 LINE"
);
}
);
width = 1760;
}
);
note = "\012    Oslash\012  ";
unicode = 00D8;
},
{
color = 4;
glyphname = Thorn;
lastChange = "2016-08-01 02:22:36 +0000";
layers = (
{
layerId = "4B9C72B8-8622-4F9C-A154-BF8DEE7D8E25";
paths = (
{
closed = 1;
nodes = (
"80 36 OFFCURVE",
"116 0 OFFCURVE",
"160 0 CURVE SMOOTH",
"204 0 OFFCURVE",
"240 36 OFFCURVE",
"240 80 CURVE SMOOTH",
"240 320 LINE",
"720 320 LINE SMOOTH",
"985 320 OFFCURVE",
"1200 535 OFFCURVE",
"1200 800 CURVE SMOOTH",
"1200 1065 OFFCURVE",
"985 1280 OFFCURVE",
"720 1280 CURVE SMOOTH",
"240 1280 LINE",
"240 1520 LINE SMOOTH",
"240 1564 OFFCURVE",
"204 1600 OFFCURVE",
"160 1600 CURVE SMOOTH",
"116 1600 OFFCURVE",
"80 1564 OFFCURVE",
"80 1520 CURVE SMOOTH",
"80 80 LINE SMOOTH"
);
},
{
closed = 1;
nodes = (
"240 1120 LINE",
"720 1120 LINE SMOOTH",
"897 1120 OFFCURVE",
"1040 977 OFFCURVE",
"1040 800 CURVE SMOOTH",
"1040 623 OFFCURVE",
"897 480 OFFCURVE",
"720 480 CURVE SMOOTH",
"240 480 LINE"
);
}
);
width = 1280;
}
);
note = "\012    Thorn\012  ";
unicode = 00DE;
},
{
color = 4;
glyphname = germandbls;
lastChange = "2016-08-01 02:22:36 +0000";
layers = (
{
layerId = "4B9C72B8-8622-4F9C-A154-BF8DEE7D8E25";
paths = (
{
closed = 1;
nodes = (
"240 1332 OFFCURVE",
"348 1440 OFFCURVE",
"480 1440 CURVE SMOOTH",
"612 1440 OFFCURVE",
"720 1332 OFFCURVE",
"720 1200 CURVE SMOOTH",
"720 1145 OFFCURVE",
"704 1097 OFFCURVE",
"672 1056 CURVE",
"624 1002 OFFCURVE",
"600 939 OFFCURVE",
"600 868 CURVE SMOOTH",
"600 789 OFFCURVE",
"628 722 OFFCURVE",
"684 667 CURVE SMOOTH",
"704 646 OFFCURVE",
"725 630 OFFCURVE",
"748 617 CURVE SMOOTH",
"770 604 OFFCURVE",
"791 589 OFFCURVE",
"810 570 CURVE SMOOTH",
"857 523 OFFCURVE",
"880 466 OFFCURVE",
"880 400 CURVE SMOOTH",
"880 268 OFFCURVE",
"772 160 OFFCURVE",
"640 160 CURVE SMOOTH",
"574 160 OFFCURVE",
"518 184 OFFCURVE",
"471 231 CURVE SMOOTH",
"453 248 OFFCURVE",
"433 256 OFFCURVE",
"411 256 CURVE SMOOTH",
"367 256 OFFCURVE",
"331 220 OFFCURVE",
"331 176 CURVE SMOOTH",
"331 154 OFFCURVE",
"340 134 OFFCURVE",
"357 117 CURVE SMOOTH",
"435 39 OFFCURVE",
"529 0 OFFCURVE",
"640 0 CURVE SMOOTH",
"861 0 OFFCURVE",
"1040 179 OFFCURVE",
"1040 400 CURVE SMOOTH",
"1040 511 OFFCURVE",
"1001 605 OFFCURVE",
"923 683 CURVE SMOOTH",
"891 715 OFFCURVE",
"856 740 OFFCURVE",
"819 759 CURVE",
"782 780 OFFCURVE",
"763 816 OFFCURVE",
"763 867 CURVE SMOOTH",
"763 896 OFFCURVE",
"771 922 OFFCURVE",
"788 945 CURVE",
"849 1017 OFFCURVE",
"880 1102 OFFCURVE",
"880 1200 CURVE SMOOTH",
"880 1421 OFFCURVE",
"701 1600 OFFCURVE",
"480 1600 CURVE SMOOTH",
"259 1600 OFFCURVE",
"80 1421 OFFCURVE",
"80 1200 CURVE SMOOTH",
"80 80 LINE SMOOTH",
"80 36 OFFCURVE",
"116 0 OFFCURVE",
"160 0 CURVE SMOOTH",
"204 0 OFFCURVE",
"240 36 OFFCURVE",
"240 80 CURVE SMOOTH",
"240 1200 LINE SMOOTH"
);
}
);
width = 1120;
}
);
note = "\012    germandbls\012  ";
unicode = 00DF;
},
{
color = 4;
glyphname = ae;
lastChange = "2016-08-01 02:22:36 +0000";
layers = (
{
layerId = "4B9C72B8-8622-4F9C-A154-BF8DEE7D8E25";
paths = (
{
closed = 1;
nodes = (
"1312 56 OFFCURVE",
"1445 0 OFFCURVE",
"1600 0 CURVE SMOOTH",
"1740 0 OFFCURVE",
"1862 45 OFFCURVE",
"1965 135 CURVE",
"1980 151 OFFCURVE",
"1988 170 OFFCURVE",
"1988 192 CURVE SMOOTH",
"1988 236 OFFCURVE",
"1952 272 OFFCURVE",
"1908 272 CURVE SMOOTH",
"1889 272 OFFCURVE",
"1873 266 OFFCURVE",
"1858 255 CURVE",
"1786 192 OFFCURVE",
"1700 160 OFFCURVE",
"1600 160 CURVE SMOOTH",
"1379 160 OFFCURVE",
"1236 327 OFFCURVE",
"1207 480 CURVE",
"2080 480 LINE SMOOTH",
"2124 480 OFFCURVE",
"2160 516 OFFCURVE",
"2160 560 CURVE SMOOTH",
"2160 869 OFFCURVE",
"1909 1120 OFFCURVE",
"1600 1120 CURVE SMOOTH",
"1445 1120 OFFCURVE",
"1313 1065 OFFCURVE",
"1204 956 CURVE SMOOTH",
"1171 923 OFFCURVE",
"1143 888 OFFCURVE",
"1120 851 CURVE",
"1097 888 OFFCURVE",
"1069 923 OFFCURVE",
"1036 956 CURVE SMOOTH",
"927 1065 OFFCURVE",
"795 1120 OFFCURVE",
"640 1120 CURVE SMOOTH",
"331 1120 OFFCURVE",
"80 869 OFFCURVE",
"80 560 CURVE SMOOTH",
"80 251 OFFCURVE",
"331 0 OFFCURVE",
"640 0 CURVE SMOOTH",
"795 0 OFFCURVE",
"928 56 OFFCURVE",
"1040 168 CURVE",
"1040 80 LINE SMOOTH",
"1040 36 OFFCURVE",
"1076 0 OFFCURVE",
"1120 0 CURVE SMOOTH",
"1164 0 OFFCURVE",
"1200 36 OFFCURVE",
"1200 80 CURVE SMOOTH",
"1200 168 LINE"
);
},
{
closed = 1;
nodes = (
"861 960 OFFCURVE",
"1040 781 OFFCURVE",
"1040 560 CURVE SMOOTH",
"1040 339 OFFCURVE",
"861 160 OFFCURVE",
"640 160 CURVE SMOOTH",
"419 160 OFFCURVE",
"240 339 OFFCURVE",
"240 560 CURVE SMOOTH",
"240 781 OFFCURVE",
"419 960 OFFCURVE",
"640 960 CURVE SMOOTH"
);
},
{
closed = 1;
nodes = (
"1236 793 OFFCURVE",
"1379 960 OFFCURVE",
"1600 960 CURVE SMOOTH",
"1821 960 OFFCURVE",
"1964 793 OFFCURVE",
"1993 640 CURVE",
"1207 640 LINE"
);
}
);
width = 2240;
}
);
note = "\012    ae\012  ";
unicode = 00E6;
},
{
color = 4;
glyphname = eth;
lastChange = "2016-08-01 02:22:36 +0000";
layers = (
{
layerId = "4B9C72B8-8622-4F9C-A154-BF8DEE7D8E25";
paths = (
{
closed = 1;
nodes = (
"429 1314 OFFCURVE",
"415 1266 OFFCURVE",
"438 1227 CURVE SMOOTH",
"459 1190 OFFCURVE",
"510 1176 OFFCURVE",
"547 1199 CURVE SMOOTH",
"686 1280 LINE",
"790 1101 LINE",
"743 1114 OFFCURVE",
"693 1120 OFFCURVE",
"640 1120 CURVE SMOOTH",
"331 1120 OFFCURVE",
"80 869 OFFCURVE",
"80 560 CURVE SMOOTH",
"80 251 OFFCURVE",
"331 0 OFFCURVE",
"640 0 CURVE SMOOTH",
"949 0 OFFCURVE",
"1200 251 OFFCURVE",
"1200 560 CURVE SMOOTH",
"1200 659 OFFCURVE",
"1178 748 OFFCURVE",
"1133 829 CURVE SMOOTH",
"825 1361 LINE",
"962 1441 LINE SMOOTH",
"999 1464 OFFCURVE",
"1013 1512 OFFCURVE",
"990 1551 CURVE SMOOTH",
"969 1588 OFFCURVE",
"918 1602 OFFCURVE",
"881 1579 CURVE SMOOTH",
"745 1500 LINE",
"708 1563 LINE SMOOTH",
"693 1588 OFFCURVE",
"671 1600 OFFCURVE",
"640 1600 CURVE SMOOTH",
"596 1600 OFFCURVE",
"560 1564 OFFCURVE",
"560 1520 CURVE SMOOTH",
"560 1505 OFFCURVE",
"564 1491 OFFCURVE",
"572 1476 CURVE",
"606 1418 LINE",
"466 1337 LINE SMOOTH"
);
},
{
closed = 1;
nodes = (
"861 960 OFFCURVE",
"1040 781 OFFCURVE",
"1040 560 CURVE SMOOTH",
"1040 339 OFFCURVE",
"861 160 OFFCURVE",
"640 160 CURVE SMOOTH",
"419 160 OFFCURVE",
"240 339 OFFCURVE",
"240 560 CURVE SMOOTH",
"240 781 OFFCURVE",
"419 960 OFFCURVE",
"640 960 CURVE SMOOTH"
);
}
);
width = 1280;
}
);
note = "\012    eth\012  ";
unicode = 00F0;
},
{
color = 4;
glyphname = divide;
lastChange = "2016-08-01 02:22:36 +0000";
layers = (
{
layerId = "4B9C72B8-8622-4F9C-A154-BF8DEE7D8E25";
paths = (
{
closed = 1;
nodes = (
"580 1075 OFFCURVE",
"535 1120 OFFCURVE",
"480 1120 CURVE SMOOTH",
"425 1120 OFFCURVE",
"380 1075 OFFCURVE",
"380 1020 CURVE SMOOTH",
"380 965 OFFCURVE",
"425 920 OFFCURVE",
"480 920 CURVE SMOOTH",
"535 920 OFFCURVE",
"580 965 OFFCURVE",
"580 1020 CURVE SMOOTH"
);
},
{
closed = 1;
nodes = (
"844 640 OFFCURVE",
"880 676 OFFCURVE",
"880 720 CURVE SMOOTH",
"880 764 OFFCURVE",
"844 800 OFFCURVE",
"800 800 CURVE SMOOTH",
"160 800 LINE SMOOTH",
"116 800 OFFCURVE",
"80 764 OFFCURVE",
"80 720 CURVE SMOOTH",
"80 676 OFFCURVE",
"116 640 OFFCURVE",
"160 640 CURVE SMOOTH",
"800 640 LINE SMOOTH"
);
},
{
closed = 1;
nodes = (
"580 475 OFFCURVE",
"535 520 OFFCURVE",
"480 520 CURVE SMOOTH",
"425 520 OFFCURVE",
"380 475 OFFCURVE",
"380 420 CURVE SMOOTH",
"380 365 OFFCURVE",
"425 320 OFFCURVE",
"480 320 CURVE SMOOTH",
"535 320 OFFCURVE",
"580 365 OFFCURVE",
"580 420 CURVE SMOOTH"
);
}
);
width = 960;
}
);
note = "\012    divide\012  ";
unicode = 00F7;
},
{
color = 4;
glyphname = oslash;
lastChange = "2016-08-01 02:22:36 +0000";
layers = (
{
layerId = "4B9C72B8-8622-4F9C-A154-BF8DEE7D8E25";
paths = (
{
closed = 1;
nodes = (
"879 1083 OFFCURVE",
"767 1120 OFFCURVE",
"640 1120 CURVE SMOOTH",
"331 1120 OFFCURVE",
"80 869 OFFCURVE",
"80 560 CURVE SMOOTH",
"80 433 OFFCURVE",
"117 321 OFFCURVE",
"191 225 CURVE",
"102 136 LINE SMOOTH",
"87 120 OFFCURVE",
"80 101 OFFCURVE",
"80 80 CURVE SMOOTH",
"80 36 OFFCURVE",
"116 0 OFFCURVE",
"160 0 CURVE SMOOTH",
"182 0 OFFCURVE",
"201 8 OFFCURVE",
"217 23 CURVE SMOOTH",
"305 111 LINE",
"401 37 OFFCURVE",
"513 0 OFFCURVE",
"640 0 CURVE SMOOTH",
"949 0 OFFCURVE",
"1200 251 OFFCURVE",
"1200 560 CURVE SMOOTH",
"1200 687 OFFCURVE",
"1163 799 OFFCURVE",
"1089 895 CURVE",
"1178 984 LINE SMOOTH",
"1193 1000 OFFCURVE",
"1200 1019 OFFCURVE",
"1200 1040 CURVE SMOOTH",
"1200 1084 OFFCURVE",
"1164 1120 OFFCURVE",
"1120 1120 CURVE SMOOTH",
"1098 1120 OFFCURVE",
"1078 1111 OFFCURVE",
"1061 1094 CURVE SMOOTH",
"976 1009 LINE"
);
},
{
closed = 1;
nodes = (
"262 404 OFFCURVE",
"240 477 OFFCURVE",
"240 560 CURVE SMOOTH",
"240 781 OFFCURVE",
"419 960 OFFCURVE",
"640 960 CURVE SMOOTH",
"723 960 OFFCURVE",
"796 938 OFFCURVE",
"861 894 CURVE",
"305 339 LINE"
);
},
{
closed = 1;
nodes = (
"1018 716 OFFCURVE",
"1040 643 OFFCURVE",
"1040 560 CURVE SMOOTH",
"1040 339 OFFCURVE",
"861 160 OFFCURVE",
"640 160 CURVE SMOOTH",
"557 160 OFFCURVE",
"484 182 OFFCURVE",
"419 225 CURVE",
"975 781 LINE"
);
}
);
width = 1280;
}
);
note = "\012    oslash\012  ";
unicode = 00F8;
},
{
color = 4;
glyphname = thorn;
lastChange = "2016-08-01 02:22:36 +0000";
layers = (
{
layerId = "4B9C72B8-8622-4F9C-A154-BF8DEE7D8E25";
paths = (
{
closed = 1;
nodes = (
"240 1566 OFFCURVE",
"204 1602 OFFCURVE",
"160 1602 CURVE SMOOTH",
"116 1602 OFFCURVE",
"80 1566 OFFCURVE",
"80 1522 CURVE SMOOTH",
"80 -400 LINE SMOOTH",
"80 -444 OFFCURVE",
"116 -480 OFFCURVE",
"160 -480 CURVE SMOOTH",
"204 -480 OFFCURVE",
"240 -444 OFFCURVE",
"240 -400 CURVE SMOOTH",
"240 170 LINE",
"352 58 OFFCURVE",
"485 2 OFFCURVE",
"640 2 CURVE SMOOTH",
"949 2 OFFCURVE",
"1200 253 OFFCURVE",
"1200 562 CURVE SMOOTH",
"1200 871 OFFCURVE",
"949 1122 OFFCURVE",
"640 1122 CURVE SMOOTH",
"485 1122 OFFCURVE",
"352 1066 OFFCURVE",
"240 954 CURVE",
"240 1522 LINE SMOOTH"
);
},
{
closed = 1;
nodes = (
"240 783 OFFCURVE",
"419 962 OFFCURVE",
"640 962 CURVE SMOOTH",
"861 962 OFFCURVE",
"1040 783 OFFCURVE",
"1040 562 CURVE SMOOTH",
"1040 341 OFFCURVE",
"861 162 OFFCURVE",
"640 162 CURVE SMOOTH",
"419 162 OFFCURVE",
"240 341 OFFCURVE",
"240 562 CURVE SMOOTH"
);
}
);
width = 1280;
}
);
note = "\012    thorn\012  ";
unicode = 00FE;
},
{
color = 4;
glyphname = circumflex;
lastChange = "2016-08-01 02:22:36 +0000";
layers = (
{
layerId = "4B9C72B8-8622-4F9C-A154-BF8DEE7D8E25";
paths = (
{
closed = 1;
nodes = (
"429 1556 OFFCURVE",
"415 1560 OFFCURVE",
"400 1560 CURVE SMOOTH",
"385 1560 OFFCURVE",
"371 1556 OFFCURVE",
"359 1549 CURVE",
"120 1390 LINE",
"93 1370 OFFCURVE",
"80 1347 OFFCURVE",
"80 1320 CURVE SMOOTH",
"80 1276 OFFCURVE",
"116 1240 OFFCURVE",
"160 1240 CURVE SMOOTH",
"179 1240 OFFCURVE",
"196 1246 OFFCURVE",
"210 1257 CURVE",
"400 1383 LINE",
"590 1257 LINE",
"604 1246 OFFCURVE",
"621 1240 OFFCURVE",
"640 1240 CURVE SMOOTH",
"684 1240 OFFCURVE",
"720 1276 OFFCURVE",
"720 1320 CURVE SMOOTH",
"720 1347 OFFCURVE",
"707 1370 OFFCURVE",
"680 1390 CURVE",
"441 1549 LINE"
);
}
);
width = 800;
}
);
note = "\012    circumflex\012  ";
unicode = 02C6;
},
{
color = 4;
glyphname = caron;
lastChange = "2016-08-01 02:22:36 +0000";
layers = (
{
layerId = "4B9C72B8-8622-4F9C-A154-BF8DEE7D8E25";
paths = (
{
closed = 1;
nodes = (
"415 1240 OFFCURVE",
"429 1244 OFFCURVE",
"441 1251 CURVE",
"680 1410 LINE",
"707 1430 OFFCURVE",
"720 1453 OFFCURVE",
"720 1480 CURVE SMOOTH",
"720 1524 OFFCURVE",
"684 1560 OFFCURVE",
"640 1560 CURVE SMOOTH",
"621 1560 OFFCURVE",
"604 1554 OFFCURVE",
"590 1543 CURVE",
"400 1417 LINE",
"210 1543 LINE",
"196 1554 OFFCURVE",
"179 1560 OFFCURVE",
"160 1560 CURVE SMOOTH",
"116 1560 OFFCURVE",
"80 1524 OFFCURVE",
"80 1480 CURVE SMOOTH",
"80 1453 OFFCURVE",
"93 1430 OFFCURVE",
"120 1410 CURVE",
"359 1251 LINE",
"371 1244 OFFCURVE",
"385 1240 OFFCURVE",
"400 1240 CURVE SMOOTH"
);
}
);
width = 800;
}
);
note = "\012    caron\012  ";
unicode = 02C7;
},
{
color = 4;
glyphname = breve;
lastChange = "2016-08-01 02:22:36 +0000";
layers = (
{
layerId = "4B9C72B8-8622-4F9C-A154-BF8DEE7D8E25";
paths = (
{
closed = 1;
nodes = (
"80 1348 OFFCURVE",
"223 1240 OFFCURVE",
"400 1240 CURVE SMOOTH",
"489 1240 OFFCURVE",
"564 1264 OFFCURVE",
"627 1311 CURVE SMOOTH",
"686 1354 OFFCURVE",
"718 1410 OFFCURVE",
"721 1480 CURVE",
"721 1524 OFFCURVE",
"685 1560 OFFCURVE",
"641 1560 CURVE SMOOTH",
"597 1560 OFFCURVE",
"561 1524 OFFCURVE",
"561 1480 CURVE SMOOTH",
"561 1436 OFFCURVE",
"488 1400 OFFCURVE",
"400 1400 CURVE SMOOTH",
"312 1400 OFFCURVE",
"240 1436 OFFCURVE",
"240 1480 CURVE SMOOTH",
"240 1524 OFFCURVE",
"204 1560 OFFCURVE",
"160 1560 CURVE SMOOTH",
"116 1560 OFFCURVE",
"80 1524 OFFCURVE",
"80 1480 CURVE SMOOTH"
);
}
);
width = 800;
}
);
note = "\012    breve\012  ";
unicode = 02D8;
},
{
color = 4;
glyphname = dotaccent;
lastChange = "2016-08-01 02:22:36 +0000";
layers = (
{
layerId = "4B9C72B8-8622-4F9C-A154-BF8DEE7D8E25";
paths = (
{
closed = 1;
nodes = (
"320 1428 OFFCURVE",
"267 1481 OFFCURVE",
"200 1481 CURVE SMOOTH",
"133 1481 OFFCURVE",
"80 1428 OFFCURVE",
"80 1361 CURVE SMOOTH",
"80 1294 OFFCURVE",
"133 1241 OFFCURVE",
"200 1241 CURVE SMOOTH",
"267 1241 OFFCURVE",
"320 1294 OFFCURVE",
"320 1361 CURVE SMOOTH"
);
}
);
width = 400;
}
);
note = "\012    dotaccent\012  ";
unicode = 02D9;
},
{
color = 4;
glyphname = ring;
lastChange = "2016-08-01 02:22:36 +0000";
layers = (
{
layerId = "4B9C72B8-8622-4F9C-A154-BF8DEE7D8E25";
paths = (
{
closed = 1;
nodes = (
"483 1510 OFFCURVE",
"393 1600 OFFCURVE",
"282 1600 CURVE SMOOTH",
"170 1600 OFFCURVE",
"80 1510 OFFCURVE",
"80 1399 CURVE SMOOTH",
"80 1287 OFFCURVE",
"170 1197 OFFCURVE",
"282 1197 CURVE SMOOTH",
"393 1197 OFFCURVE",
"483 1287 OFFCURVE",
"483 1399 CURVE SMOOTH"
);
},
{
closed = 1;
nodes = (
"337 1499 OFFCURVE",
"382 1454 OFFCURVE",
"382 1399 CURVE SMOOTH",
"382 1343 OFFCURVE",
"337 1298 OFFCURVE",
"282 1298 CURVE SMOOTH",
"226 1298 OFFCURVE",
"181 1343 OFFCURVE",
"181 1399 CURVE SMOOTH",
"181 1454 OFFCURVE",
"226 1499 OFFCURVE",
"282 1499 CURVE SMOOTH"
);
}
);
width = 560;
}
);
note = "\012    ring\012  ";
unicode = 02DA;
},
{
color = 4;
glyphname = ogonek;
lastChange = "2016-08-01 02:22:36 +0000";
layers = (
{
layerId = "4B9C72B8-8622-4F9C-A154-BF8DEE7D8E25";
paths = (
{
closed = 1;
nodes = (
"240 12 OFFCURVE",
"217 -15 OFFCURVE",
"182 -44 CURVE SMOOTH",
"114 -97 OFFCURVE",
"80 -163 OFFCURVE",
"80 -240 CURVE SMOOTH",
"80 -372 OFFCURVE",
"188 -480 OFFCURVE",
"320 -480 CURVE SMOOTH",
"367 -480 OFFCURVE",
"411 -466 OFFCURVE",
"452 -438 CURVE SMOOTH",
"532 -382 LINE",
"551 -367 OFFCURVE",
"560 -347 OFFCURVE",
"560 -320 CURVE SMOOTH",
"560 -276 OFFCURVE",
"524 -240 OFFCURVE",
"480 -240 CURVE SMOOTH",
"462 -240 OFFCURVE",
"446 -245 OFFCURVE",
"432 -256 CURVE SMOOTH",
"363 -307 LINE SMOOTH",
"350 -316 OFFCURVE",
"336 -320 OFFCURVE",
"320 -320 CURVE SMOOTH",
"276 -320 OFFCURVE",
"240 -284 OFFCURVE",
"240 -240 CURVE SMOOTH",
"240 -215 OFFCURVE",
"252 -193 OFFCURVE",
"275 -174 CURVE",
"347 -122 OFFCURVE",
"388 -72 OFFCURVE",
"398 -23 CURVE",
"399 -16 OFFCURVE",
"400 -9 OFFCURVE",
"400 0 CURVE",
"399 21 OFFCURVE",
"392 39 OFFCURVE",
"377 54 CURVE SMOOTH",
"345 85 OFFCURVE",
"277 89 OFFCURVE",
"250 36 CURVE"
);
}
);
width = 640;
}
);
note = "\012    ogonek\012  ";
unicode = 02DB;
},
{
color = 4;
glyphname = tilde;
lastChange = "2016-08-01 02:22:36 +0000";
layers = (
{
layerId = "4B9C72B8-8622-4F9C-A154-BF8DEE7D8E25";
paths = (
{
closed = 1;
nodes = (
"561 1344 OFFCURVE",
"594 1356 OFFCURVE",
"632 1356 CURVE SMOOTH",
"676 1356 OFFCURVE",
"714 1340 OFFCURVE",
"745 1308 CURVE",
"761 1293 OFFCURVE",
"780 1286 OFFCURVE",
"801 1286 CURVE SMOOTH",
"845 1286 OFFCURVE",
"881 1322 OFFCURVE",
"881 1366 CURVE SMOOTH",
"881 1387 OFFCURVE",
"874 1406 OFFCURVE",
"859 1422 CURVE SMOOTH",
"796 1485 OFFCURVE",
"721 1516 OFFCURVE",
"632 1516 CURVE SMOOTH",
"550 1516 OFFCURVE",
"479 1489 OFFCURVE",
"420 1436 CURVE",
"391 1413 OFFCURVE",
"357 1401 OFFCURVE",
"320 1401 CURVE SMOOTH",
"276 1401 OFFCURVE",
"238 1417 OFFCURVE",
"207 1449 CURVE",
"191 1464 OFFCURVE",
"172 1471 OFFCURVE",
"151 1471 CURVE SMOOTH",
"107 1471 OFFCURVE",
"71 1435 OFFCURVE",
"71 1391 CURVE SMOOTH",
"71 1370 OFFCURVE",
"78 1351 OFFCURVE",
"93 1335 CURVE SMOOTH",
"156 1272 OFFCURVE",
"231 1241 OFFCURVE",
"320 1241 CURVE SMOOTH",
"401 1241 OFFCURVE",
"472 1268 OFFCURVE",
"532 1321 CURVE"
);
}
);
width = 960;
}
);
note = "\012    tilde\012  ";
unicode = 02DC;
},
{
color = 4;
glyphname = hungarumlaut;
lastChange = "2016-08-01 02:22:36 +0000";
layers = (
{
layerId = "4B9C72B8-8622-4F9C-A154-BF8DEE7D8E25";
paths = (
{
closed = 1;
nodes = (
"340 1532 OFFCURVE",
"320 1579 OFFCURVE",
"279 1595 CURVE",
"269 1598 OFFCURVE",
"259 1600 OFFCURVE",
"249 1600 CURVE SMOOTH",
"239 1600 OFFCURVE",
"229 1598 OFFCURVE",
"218 1594 CURVE",
"197 1585 OFFCURVE",
"183 1570 OFFCURVE",
"175 1550 CURVE",
"84 1263 LINE",
"81 1256 OFFCURVE",
"80 1248 OFFCURVE",
"80 1241 CURVE SMOOTH",
"80 1233 OFFCURVE",
"82 1225 OFFCURVE",
"85 1217 CURVE",
"109 1169 OFFCURVE",
"173 1171 OFFCURVE",
"196 1219 CURVE SMOOTH",
"324 1491 LINE"
);
},
{
closed = 1;
nodes = (
"650 1532 OFFCURVE",
"630 1579 OFFCURVE",
"589 1595 CURVE",
"579 1598 OFFCURVE",
"569 1600 OFFCURVE",
"559 1600 CURVE SMOOTH",
"549 1600 OFFCURVE",
"539 1598 OFFCURVE",
"528 1594 CURVE",
"507 1585 OFFCURVE",
"493 1570 OFFCURVE",
"485 1550 CURVE",
"394 1263 LINE",
"391 1256 OFFCURVE",
"390 1248 OFFCURVE",
"390 1241 CURVE SMOOTH",
"390 1233 OFFCURVE",
"392 1225 OFFCURVE",
"395 1217 CURVE",
"419 1169 OFFCURVE",
"483 1171 OFFCURVE",
"506 1219 CURVE SMOOTH",
"634 1491 LINE"
);
}
);
width = 720;
}
);
note = "\012    hungarumlaut\012  ";
unicode = 02DD;
},
{
color = 4;
glyphname = endash;
lastChange = "2016-08-01 02:22:36 +0000";
layers = (
{
layerId = "4B9C72B8-8622-4F9C-A154-BF8DEE7D8E25";
paths = (
{
closed = 1;
nodes = (
"844 480 OFFCURVE",
"880 516 OFFCURVE",
"880 560 CURVE SMOOTH",
"880 604 OFFCURVE",
"844 640 OFFCURVE",
"800 640 CURVE SMOOTH",
"0 640 LINE SMOOTH",
"-44 640 OFFCURVE",
"-80 604 OFFCURVE",
"-80 560 CURVE SMOOTH",
"-80 516 OFFCURVE",
"-44 480 OFFCURVE",
"0 480 CURVE SMOOTH",
"800 480 LINE SMOOTH"
);
}
);
width = 800;
}
);
note = "\012    endash\012  ";
unicode = 2013;
},
{
color = 4;
glyphname = emdash;
lastChange = "2016-08-01 02:22:36 +0000";
layers = (
{
layerId = "4B9C72B8-8622-4F9C-A154-BF8DEE7D8E25";
paths = (
{
closed = 1;
nodes = (
"1964 480 OFFCURVE",
"2000 516 OFFCURVE",
"2000 560 CURVE SMOOTH",
"2000 604 OFFCURVE",
"1964 640 OFFCURVE",
"1920 640 CURVE SMOOTH",
"0 640 LINE SMOOTH",
"-44 640 OFFCURVE",
"-80 604 OFFCURVE",
"-80 560 CURVE SMOOTH",
"-80 516 OFFCURVE",
"-44 480 OFFCURVE",
"0 480 CURVE SMOOTH",
"1920 480 LINE SMOOTH"
);
}
);
width = 1920;
}
);
note = "\012    emdash\012  ";
unicode = 2014;
},
{
color = 4;
glyphname = quoteleft;
lastChange = "2016-08-01 02:22:36 +0000";
layers = (
{
layerId = "4B9C72B8-8622-4F9C-A154-BF8DEE7D8E25";
paths = (
{
closed = 1;
nodes = (
"373 1055 OFFCURVE",
"370 1068 OFFCURVE",
"365 1080 CURVE",
"302 1212 OFFCURVE",
"303 1357 OFFCURVE",
"368 1515 CURVE SMOOTH",
"371 1523 OFFCURVE",
"373 1532 OFFCURVE",
"373 1541 CURVE SMOOTH",
"373 1573 OFFCURVE",
"346 1600 OFFCURVE",
"314 1600 CURVE SMOOTH",
"297 1600 OFFCURVE",
"283 1594 OFFCURVE",
"272 1583 CURVE",
"171 1461 OFFCURVE",
"120 1342 OFFCURVE",
"120 1225 CURVE SMOOTH",
"120 1148 OFFCURVE",
"141 1073 OFFCURVE",
"183 998 CURVE",
"202 959 OFFCURVE",
"232 940 OFFCURVE",
"273 940 CURVE SMOOTH",
"328 940 OFFCURVE",
"373 985 OFFCURVE",
"373 1040 CURVE SMOOTH"
);
}
);
width = 480;
}
);
note = "\012    quoteleft\012  ";
unicode = 2018;
},
{
color = 4;
glyphname = quoteright;
lastChange = "2016-08-01 02:22:36 +0000";
layers = (
{
layerId = "4B9C72B8-8622-4F9C-A154-BF8DEE7D8E25";
paths = (
{
closed = 1;
nodes = (
"120 1485 OFFCURVE",
"123 1472 OFFCURVE",
"128 1460 CURVE",
"191 1328 OFFCURVE",
"190 1183 OFFCURVE",
"125 1025 CURVE SMOOTH",
"122 1017 OFFCURVE",
"120 1008 OFFCURVE",
"120 999 CURVE SMOOTH",
"120 967 OFFCURVE",
"147 940 OFFCURVE",
"179 940 CURVE SMOOTH",
"196 940 OFFCURVE",
"210 946 OFFCURVE",
"221 957 CURVE",
"322 1079 OFFCURVE",
"373 1198 OFFCURVE",
"373 1315 CURVE SMOOTH",
"373 1392 OFFCURVE",
"352 1467 OFFCURVE",
"310 1542 CURVE",
"291 1581 OFFCURVE",
"261 1600 OFFCURVE",
"220 1600 CURVE SMOOTH",
"165 1600 OFFCURVE",
"120 1555 OFFCURVE",
"120 1500 CURVE SMOOTH"
);
}
);
width = 480;
}
);
note = "\012    quoteright\012  ";
unicode = 2019;
},
{
color = 4;
glyphname = quotesinglbase;
lastChange = "2016-08-01 02:22:36 +0000";
layers = (
{
layerId = "4B9C72B8-8622-4F9C-A154-BF8DEE7D8E25";
paths = (
{
closed = 1;
nodes = (
"120 204 OFFCURVE",
"123 191 OFFCURVE",
"128 179 CURVE",
"191 47 OFFCURVE",
"190 -98 OFFCURVE",
"125 -256 CURVE SMOOTH",
"122 -264 OFFCURVE",
"120 -273 OFFCURVE",
"120 -282 CURVE SMOOTH",
"120 -314 OFFCURVE",
"147 -341 OFFCURVE",
"179 -341 CURVE SMOOTH",
"196 -341 OFFCURVE",
"210 -335 OFFCURVE",
"221 -324 CURVE",
"322 -202 OFFCURVE",
"373 -83 OFFCURVE",
"373 34 CURVE SMOOTH",
"373 111 OFFCURVE",
"352 186 OFFCURVE",
"310 261 CURVE",
"291 300 OFFCURVE",
"261 319 OFFCURVE",
"220 319 CURVE SMOOTH",
"165 319 OFFCURVE",
"120 274 OFFCURVE",
"120 219 CURVE SMOOTH"
);
}
);
width = 480;
}
);
note = "\012    quotesinglbase\012  ";
unicode = 201A;
},
{
color = 4;
glyphname = quotedblleft;
lastChange = "2016-08-01 02:22:36 +0000";
layers = (
{
layerId = "4B9C72B8-8622-4F9C-A154-BF8DEE7D8E25";
paths = (
{
closed = 1;
nodes = (
"333 1057 OFFCURVE",
"330 1070 OFFCURVE",
"325 1082 CURVE",
"262 1214 OFFCURVE",
"263 1359 OFFCURVE",
"328 1517 CURVE SMOOTH",
"331 1525 OFFCURVE",
"333 1534 OFFCURVE",
"333 1543 CURVE SMOOTH",
"333 1575 OFFCURVE",
"306 1602 OFFCURVE",
"274 1602 CURVE SMOOTH",
"257 1602 OFFCURVE",
"243 1596 OFFCURVE",
"232 1585 CURVE",
"131 1463 OFFCURVE",
"80 1344 OFFCURVE",
"80 1227 CURVE SMOOTH",
"80 1150 OFFCURVE",
"101 1075 OFFCURVE",
"143 1000 CURVE",
"162 961 OFFCURVE",
"192 942 OFFCURVE",
"233 942 CURVE SMOOTH",
"288 942 OFFCURVE",
"333 987 OFFCURVE",
"333 1042 CURVE SMOOTH"
);
},
{
closed = 1;
nodes = (
"680 1057 OFFCURVE",
"677 1070 OFFCURVE",
"672 1082 CURVE",
"609 1214 OFFCURVE",
"610 1359 OFFCURVE",
"675 1517 CURVE SMOOTH",
"678 1525 OFFCURVE",
"680 1534 OFFCURVE",
"680 1543 CURVE SMOOTH",
"680 1575 OFFCURVE",
"653 1602 OFFCURVE",
"621 1602 CURVE SMOOTH",
"604 1602 OFFCURVE",
"590 1596 OFFCURVE",
"579 1585 CURVE",
"478 1463 OFFCURVE",
"427 1344 OFFCURVE",
"427 1227 CURVE SMOOTH",
"427 1150 OFFCURVE",
"448 1075 OFFCURVE",
"490 1000 CURVE",
"509 961 OFFCURVE",
"539 942 OFFCURVE",
"580 942 CURVE SMOOTH",
"635 942 OFFCURVE",
"680 987 OFFCURVE",
"680 1042 CURVE SMOOTH"
);
}
);
width = 760;
}
);
note = "\012    quotedblleft\012  ";
unicode = 201C;
},
{
color = 4;
glyphname = quotedblright;
lastChange = "2016-08-01 02:22:36 +0000";
layers = (
{
layerId = "4B9C72B8-8622-4F9C-A154-BF8DEE7D8E25";
paths = (
{
closed = 1;
nodes = (
"80 1487 OFFCURVE",
"83 1474 OFFCURVE",
"88 1462 CURVE",
"151 1330 OFFCURVE",
"150 1185 OFFCURVE",
"85 1027 CURVE SMOOTH",
"82 1019 OFFCURVE",
"80 1010 OFFCURVE",
"80 1001 CURVE SMOOTH",
"80 969 OFFCURVE",
"107 942 OFFCURVE",
"139 942 CURVE SMOOTH",
"156 942 OFFCURVE",
"170 948 OFFCURVE",
"181 959 CURVE",
"282 1081 OFFCURVE",
"333 1200 OFFCURVE",
"333 1317 CURVE SMOOTH",
"333 1394 OFFCURVE",
"312 1469 OFFCURVE",
"270 1544 CURVE",
"251 1583 OFFCURVE",
"221 1602 OFFCURVE",
"180 1602 CURVE SMOOTH",
"125 1602 OFFCURVE",
"80 1557 OFFCURVE",
"80 1502 CURVE SMOOTH"
);
},
{
closed = 1;
nodes = (
"427 1487 OFFCURVE",
"430 1474 OFFCURVE",
"435 1462 CURVE",
"498 1330 OFFCURVE",
"497 1185 OFFCURVE",
"432 1027 CURVE SMOOTH",
"429 1019 OFFCURVE",
"427 1010 OFFCURVE",
"427 1001 CURVE SMOOTH",
"427 969 OFFCURVE",
"454 942 OFFCURVE",
"486 942 CURVE SMOOTH",
"503 942 OFFCURVE",
"517 948 OFFCURVE",
"528 959 CURVE",
"629 1081 OFFCURVE",
"680 1200 OFFCURVE",
"680 1317 CURVE SMOOTH",
"680 1394 OFFCURVE",
"659 1469 OFFCURVE",
"617 1544 CURVE",
"598 1583 OFFCURVE",
"568 1602 OFFCURVE",
"527 1602 CURVE SMOOTH",
"472 1602 OFFCURVE",
"427 1557 OFFCURVE",
"427 1502 CURVE SMOOTH"
);
}
);
width = 760;
}
);
note = "\012    quotedblright\012  ";
unicode = 201D;
},
{
color = 4;
glyphname = quotedblbase;
lastChange = "2016-08-01 02:22:36 +0000";
layers = (
{
layerId = "4B9C72B8-8622-4F9C-A154-BF8DEE7D8E25";
paths = (
{
closed = 1;
nodes = (
"80 205 OFFCURVE",
"83 192 OFFCURVE",
"88 180 CURVE",
"151 48 OFFCURVE",
"150 -97 OFFCURVE",
"85 -255 CURVE SMOOTH",
"82 -263 OFFCURVE",
"80 -272 OFFCURVE",
"80 -281 CURVE SMOOTH",
"80 -313 OFFCURVE",
"107 -340 OFFCURVE",
"139 -340 CURVE SMOOTH",
"156 -340 OFFCURVE",
"170 -334 OFFCURVE",
"181 -323 CURVE",
"282 -201 OFFCURVE",
"333 -82 OFFCURVE",
"333 35 CURVE SMOOTH",
"333 112 OFFCURVE",
"312 187 OFFCURVE",
"270 262 CURVE",
"251 301 OFFCURVE",
"221 320 OFFCURVE",
"180 320 CURVE SMOOTH",
"125 320 OFFCURVE",
"80 275 OFFCURVE",
"80 220 CURVE SMOOTH"
);
},
{
closed = 1;
nodes = (
"427 205 OFFCURVE",
"430 192 OFFCURVE",
"435 180 CURVE",
"498 48 OFFCURVE",
"497 -97 OFFCURVE",
"432 -255 CURVE SMOOTH",
"429 -263 OFFCURVE",
"427 -272 OFFCURVE",
"427 -281 CURVE SMOOTH",
"427 -313 OFFCURVE",
"454 -340 OFFCURVE",
"486 -340 CURVE SMOOTH",
"503 -340 OFFCURVE",
"517 -334 OFFCURVE",
"528 -323 CURVE",
"629 -201 OFFCURVE",
"680 -82 OFFCURVE",
"680 35 CURVE SMOOTH",
"680 112 OFFCURVE",
"659 187 OFFCURVE",
"617 262 CURVE",
"598 301 OFFCURVE",
"568 320 OFFCURVE",
"527 320 CURVE SMOOTH",
"472 320 OFFCURVE",
"427 275 OFFCURVE",
"427 220 CURVE SMOOTH"
);
}
);
width = 760;
}
);
note = "\012    quotedblbase\012  ";
unicode = 201E;
},
{
color = 4;
glyphname = dagger;
lastChange = "2016-08-01 02:22:36 +0000";
layers = (
{
layerId = "4B9C72B8-8622-4F9C-A154-BF8DEE7D8E25";
paths = (
{
closed = 1;
nodes = (
"480 -400 LINE SMOOTH",
"480 -443 OFFCURVE",
"516 -479 OFFCURVE",
"560 -479 CURVE SMOOTH",
"604 -479 OFFCURVE",
"640 -443 OFFCURVE",
"640 -400 CURVE SMOOTH",
"640 960 LINE",
"960 960 LINE SMOOTH",
"1004 960 OFFCURVE",
"1040 996 OFFCURVE",
"1040 1040 CURVE SMOOTH",
"1040 1084 OFFCURVE",
"1004 1120 OFFCURVE",
"960 1120 CURVE SMOOTH",
"640 1120 LINE",
"640 1520 LINE SMOOTH",
"640 1564 OFFCURVE",
"604 1600 OFFCURVE",
"560 1600 CURVE SMOOTH",
"516 1600 OFFCURVE",
"480 1564 OFFCURVE",
"480 1520 CURVE SMOOTH",
"480 1120 LINE",
"160 1120 LINE SMOOTH",
"116 1120 OFFCURVE",
"80 1084 OFFCURVE",
"80 1040 CURVE SMOOTH",
"80 996 OFFCURVE",
"116 960 OFFCURVE",
"160 960 CURVE SMOOTH",
"480 960 LINE"
);
}
);
width = 1120;
}
);
note = "\012    dagger\012  ";
unicode = 2020;
},
{
color = 4;
glyphname = daggerdbl;
lastChange = "2016-08-01 02:22:36 +0000";
layers = (
{
layerId = "4B9C72B8-8622-4F9C-A154-BF8DEE7D8E25";
paths = (
{
closed = 1;
nodes = (
"116 160 OFFCURVE",
"80 124 OFFCURVE",
"80 80 CURVE SMOOTH",
"80 36 OFFCURVE",
"116 0 OFFCURVE",
"160 0 CURVE SMOOTH",
"480 0 LINE",
"480 -400 LINE SMOOTH",
"480 -443 OFFCURVE",
"516 -479 OFFCURVE",
"560 -479 CURVE SMOOTH",
"604 -479 OFFCURVE",
"640 -443 OFFCURVE",
"640 -400 CURVE SMOOTH",
"640 0 LINE",
"960 0 LINE SMOOTH",
"1004 0 OFFCURVE",
"1040 36 OFFCURVE",
"1040 80 CURVE SMOOTH",
"1040 124 OFFCURVE",
"1004 160 OFFCURVE",
"960 160 CURVE SMOOTH",
"640 160 LINE",
"640 960 LINE",
"960 960 LINE SMOOTH",
"1004 960 OFFCURVE",
"1040 996 OFFCURVE",
"1040 1040 CURVE SMOOTH",
"1040 1084 OFFCURVE",
"1004 1120 OFFCURVE",
"960 1120 CURVE SMOOTH",
"640 1120 LINE",
"640 1520 LINE SMOOTH",
"640 1564 OFFCURVE",
"604 1600 OFFCURVE",
"560 1600 CURVE SMOOTH",
"516 1600 OFFCURVE",
"480 1564 OFFCURVE",
"480 1520 CURVE SMOOTH",
"480 1120 LINE",
"160 1120 LINE SMOOTH",
"116 1120 OFFCURVE",
"80 1084 OFFCURVE",
"80 1040 CURVE SMOOTH",
"80 996 OFFCURVE",
"116 960 OFFCURVE",
"160 960 CURVE SMOOTH",
"480 960 LINE",
"480 160 LINE",
"160 160 LINE SMOOTH"
);
}
);
width = 1120;
}
);
note = "\012    daggerdbl\012  ";
unicode = 2021;
},
{
color = 4;
glyphname = bullet;
lastChange = "2016-08-01 02:22:36 +0000";
layers = (
{
layerId = "4B9C72B8-8622-4F9C-A154-BF8DEE7D8E25";
paths = (
{
closed = 1;
nodes = (
"640 932 OFFCURVE",
"532 1040 OFFCURVE",
"400 1040 CURVE SMOOTH",
"268 1040 OFFCURVE",
"160 932 OFFCURVE",
"160 800 CURVE SMOOTH",
"160 668 OFFCURVE",
"268 560 OFFCURVE",
"400 560 CURVE SMOOTH",
"532 560 OFFCURVE",
"640 668 OFFCURVE",
"640 800 CURVE SMOOTH"
);
}
);
width = 800;
}
);
note = "\012    bullet\012  ";
unicode = 2022;
},
{
color = 4;
glyphname = ellipsis;
lastChange = "2016-08-01 02:22:36 +0000";
layers = (
{
layerId = "4B9C72B8-8622-4F9C-A154-BF8DEE7D8E25";
paths = (
{
closed = 1;
nodes = (
"320 187 OFFCURVE",
"267 240 OFFCURVE",
"200 240 CURVE SMOOTH",
"133 240 OFFCURVE",
"80 187 OFFCURVE",
"80 120 CURVE SMOOTH",
"80 53 OFFCURVE",
"133 0 OFFCURVE",
"200 0 CURVE SMOOTH",
"267 0 OFFCURVE",
"320 53 OFFCURVE",
"320 120 CURVE SMOOTH"
);
},
{
closed = 1;
nodes = (
"800 187 OFFCURVE",
"747 240 OFFCURVE",
"680 240 CURVE SMOOTH",
"613 240 OFFCURVE",
"560 187 OFFCURVE",
"560 120 CURVE SMOOTH",
"560 53 OFFCURVE",
"613 0 OFFCURVE",
"680 0 CURVE SMOOTH",
"747 0 OFFCURVE",
"800 53 OFFCURVE",
"800 120 CURVE SMOOTH"
);
},
{
closed = 1;
nodes = (
"1280 187 OFFCURVE",
"1227 240 OFFCURVE",
"1160 240 CURVE SMOOTH",
"1093 240 OFFCURVE",
"1040 187 OFFCURVE",
"1040 120 CURVE SMOOTH",
"1040 53 OFFCURVE",
"1093 0 OFFCURVE",
"1160 0 CURVE SMOOTH",
"1227 0 OFFCURVE",
"1280 53 OFFCURVE",
"1280 120 CURVE SMOOTH"
);
}
);
width = 1440;
}
);
note = "\012    ellipsis\012  ";
unicode = 2026;
},
{
color = 4;
glyphname = guilsinglleft;
lastChange = "2016-08-01 02:22:36 +0000";
layers = (
{
layerId = "4B9C72B8-8622-4F9C-A154-BF8DEE7D8E25";
paths = (
{
closed = 1;
nodes = (
"83 585 OFFCURVE",
"80 572 OFFCURVE",
"80 559 CURVE SMOOTH",
"80 545 OFFCURVE",
"84 531 OFFCURVE",
"92 516 CURVE SMOOTH",
"326 49 LINE",
"330 40 OFFCURVE",
"336 31 OFFCURVE",
"344 24 CURVE",
"359 8 OFFCURVE",
"378 0 OFFCURVE",
"400 0 CURVE SMOOTH",
"444 0 OFFCURVE",
"480 36 OFFCURVE",
"480 80 CURVE SMOOTH",
"480 92 OFFCURVE",
"478 103 OFFCURVE",
"473 114 CURVE",
"250 560 LINE",
"473 1005 LINE",
"478 1016 OFFCURVE",
"480 1027 OFFCURVE",
"480 1039 CURVE SMOOTH",
"480 1083 OFFCURVE",
"444 1119 OFFCURVE",
"400 1119 CURVE SMOOTH",
"378 1119 OFFCURVE",
"359 1111 OFFCURVE",
"344 1096 CURVE SMOOTH",
"336 1088 OFFCURVE",
"330 1079 OFFCURVE",
"326 1070 CURVE",
"90 598 LINE SMOOTH"
);
}
);
width = 560;
}
);
note = "\012    guilsinglleft\012  ";
unicode = 2039;
},
{
color = 4;
glyphname = guilsinglright;
lastChange = "2016-08-01 02:22:36 +0000";
layers = (
{
layerId = "4B9C72B8-8622-4F9C-A154-BF8DEE7D8E25";
paths = (
{
closed = 1;
nodes = (
"480 572 OFFCURVE",
"477 585 OFFCURVE",
"470 598 CURVE SMOOTH",
"234 1070 LINE",
"230 1079 OFFCURVE",
"224 1088 OFFCURVE",
"216 1096 CURVE SMOOTH",
"201 1111 OFFCURVE",
"182 1119 OFFCURVE",
"160 1119 CURVE SMOOTH",
"116 1119 OFFCURVE",
"80 1083 OFFCURVE",
"80 1039 CURVE SMOOTH",
"80 1027 OFFCURVE",
"82 1016 OFFCURVE",
"87 1005 CURVE",
"310 560 LINE",
"87 114 LINE",
"82 103 OFFCURVE",
"80 92 OFFCURVE",
"80 80 CURVE SMOOTH",
"80 36 OFFCURVE",
"116 0 OFFCURVE",
"160 0 CURVE SMOOTH",
"182 0 OFFCURVE",
"201 8 OFFCURVE",
"216 24 CURVE",
"224 31 OFFCURVE",
"230 40 OFFCURVE",
"234 49 CURVE",
"468 516 LINE SMOOTH",
"476 531 OFFCURVE",
"480 545 OFFCURVE",
"480 559 CURVE SMOOTH"
);
}
);
width = 560;
}
);
note = "\012    guilsinglright\012  ";
unicode = 203A;
},
{
color = 4;
glyphname = fraction;
lastChange = "2016-08-01 02:22:36 +0000";
layers = (
{
layerId = "4B9C72B8-8622-4F9C-A154-BF8DEE7D8E25";
paths = (
{
closed = 1;
nodes = (
"937 1600 OFFCURVE",
"916 1590 OFFCURVE",
"898 1571 CURVE SMOOTH",
"-382 132 LINE",
"-394 117 OFFCURVE",
"-400 99 OFFCURVE",
"-400 80 CURVE SMOOTH",
"-400 36 OFFCURVE",
"-364 0 OFFCURVE",
"-320 0 CURVE SMOOTH",
"-296 0 OFFCURVE",
"-275 10 OFFCURVE",
"-258 29 CURVE SMOOTH",
"1024 1471 LINE",
"1035 1485 OFFCURVE",
"1040 1501 OFFCURVE",
"1040 1520 CURVE SMOOTH",
"1040 1564 OFFCURVE",
"1004 1600 OFFCURVE",
"960 1600 CURVE SMOOTH"
);
}
);
width = 640;
}
);
note = "\012    fraction\012  ";
unicode = 2044;
},
{
color = 4;
glyphname = franc;
lastChange = "2016-08-01 02:22:36 +0000";
layers = (
{
layerId = "4B9C72B8-8622-4F9C-A154-BF8DEE7D8E25";
paths = (
{
closed = 1;
nodes = (
"116 480 OFFCURVE",
"80 444 OFFCURVE",
"80 400 CURVE SMOOTH",
"80 356 OFFCURVE",
"116 320 OFFCURVE",
"160 320 CURVE SMOOTH",
"320 320 LINE",
"320 80 LINE SMOOTH",
"320 36 OFFCURVE",
"356 0 OFFCURVE",
"400 0 CURVE SMOOTH",
"444 0 OFFCURVE",
"480 36 OFFCURVE",
"480 80 CURVE SMOOTH",
"480 320 LINE",
"640 320 LINE SMOOTH",
"684 320 OFFCURVE",
"720 356 OFFCURVE",
"720 400 CURVE SMOOTH",
"720 444 OFFCURVE",
"684 480 OFFCURVE",
"640 480 CURVE SMOOTH",
"480 480 LINE",
"480 720 LINE",
"1120 720 LINE SMOOTH",
"1164 720 OFFCURVE",
"1200 756 OFFCURVE",
"1200 800 CURVE SMOOTH",
"1200 844 OFFCURVE",
"1164 880 OFFCURVE",
"1120 880 CURVE SMOOTH",
"480 880 LINE",
"480 1440 LINE",
"1360 1440 LINE SMOOTH",
"1404 1440 OFFCURVE",
"1440 1476 OFFCURVE",
"1440 1520 CURVE SMOOTH",
"1440 1564 OFFCURVE",
"1404 1600 OFFCURVE",
"1360 1600 CURVE SMOOTH",
"400 1600 LINE SMOOTH",
"356 1600 OFFCURVE",
"320 1564 OFFCURVE",
"320 1520 CURVE SMOOTH",
"320 480 LINE",
"160 480 LINE SMOOTH"
);
}
);
width = 1520;
}
);
note = "\012    franc\012  ";
unicode = 20A3;
},
{
color = 4;
glyphname = lira;
lastChange = "2016-08-01 02:22:36 +0000";
layers = (
{
layerId = "4B9C72B8-8622-4F9C-A154-BF8DEE7D8E25";
paths = (
{
closed = 1;
nodes = (
"116 930 OFFCURVE",
"80 894 OFFCURVE",
"80 850 CURVE SMOOTH",
"80 806 OFFCURVE",
"116 770 OFFCURVE",
"160 770 CURVE SMOOTH",
"259 770 LINE",
"263 738 OFFCURVE",
"267 703 OFFCURVE",
"268 670 CURVE",
"160 670 LINE SMOOTH",
"116 670 OFFCURVE",
"80 634 OFFCURVE",
"80 590 CURVE SMOOTH",
"80 546 OFFCURVE",
"116 510 OFFCURVE",
"160 510 CURVE SMOOTH",
"267 510 LINE",
"257 368 OFFCURVE",
"223 235 OFFCURVE",
"166 112 CURVE",
"162 102 OFFCURVE",
"160 91 OFFCURVE",
"160 80 CURVE SMOOTH",
"160 36 OFFCURVE",
"196 0 OFFCURVE",
"240 0 CURVE SMOOTH",
"800 0 LINE SMOOTH",
"822 0 OFFCURVE",
"841 8 OFFCURVE",
"857 24 CURVE SMOOTH",
"864 31 OFFCURVE",
"870 39 OFFCURVE",
"874 48 CURVE",
"951 202 LINE",
"957 213 OFFCURVE",
"960 226 OFFCURVE",
"960 240 CURVE SMOOTH",
"960 284 OFFCURVE",
"924 320 OFFCURVE",
"880 320 CURVE SMOOTH",
"849 320 OFFCURVE",
"825 307 OFFCURVE",
"810 280 CURVE",
"750 160 LINE",
"356 160 LINE",
"397 267 OFFCURVE",
"422 384 OFFCURVE",
"429 510 CURVE",
"720 510 LINE SMOOTH",
"764 510 OFFCURVE",
"800 546 OFFCURVE",
"800 590 CURVE SMOOTH",
"800 634 OFFCURVE",
"764 670 OFFCURVE",
"720 670 CURVE SMOOTH",
"430 670 LINE",
"429 703 OFFCURVE",
"426 737 OFFCURVE",
"422 770 CURVE",
"720 770 LINE SMOOTH",
"764 770 OFFCURVE",
"800 806 OFFCURVE",
"800 850 CURVE SMOOTH",
"800 894 OFFCURVE",
"764 930 OFFCURVE",
"720 930 CURVE SMOOTH",
"395 930 LINE",
"380 998 OFFCURVE",
"362 1058 OFFCURVE",
"339 1110 CURVE SMOOTH",
"326 1140 OFFCURVE",
"320 1170 OFFCURVE",
"320 1200 CURVE SMOOTH",
"320 1332 OFFCURVE",
"428 1440 OFFCURVE",
"560 1440 CURVE SMOOTH",
"626 1440 OFFCURVE",
"683 1417 OFFCURVE",
"730 1370 CURVE",
"741 1358 OFFCURVE",
"756 1340 OFFCURVE",
"774 1316 CURVE",
"789 1300 OFFCURVE",
"808 1292 OFFCURVE",
"830 1292 CURVE SMOOTH",
"874 1292 OFFCURVE",
"910 1328 OFFCURVE",
"910 1372 CURVE SMOOTH",
"910 1409 OFFCURVE",
"882 1444 OFFCURVE",
"843 1483 CURVE SMOOTH",
"765 1561 OFFCURVE",
"671 1600 OFFCURVE",
"560 1600 CURVE SMOOTH",
"339 1600 OFFCURVE",
"160 1421 OFFCURVE",
"160 1200 CURVE SMOOTH",
"160 1150 OFFCURVE",
"170 1100 OFFCURVE",
"191 1050 CURVE",
"190 1050 LINE",
"205 1015 OFFCURVE",
"219 975 OFFCURVE",
"230 930 CURVE",
"160 930 LINE SMOOTH"
);
}
);
width = 1040;
}
);
note = "\012    lira\012  ";
unicode = 20A4;
},
{
color = 4;
glyphname = peseta;
lastChange = "2016-08-01 02:22:36 +0000";
layers = (
{
layerId = "4B9C72B8-8622-4F9C-A154-BF8DEE7D8E25";
paths = (
{
closed = 1;
nodes = (
"1271 925 OFFCURVE",
"1359 960 OFFCURVE",
"1470 960 CURVE SMOOTH",
"1581 960 OFFCURVE",
"1675 921 OFFCURVE",
"1753 843 CURVE SMOOTH",
"1759 837 OFFCURVE",
"1769 827 OFFCURVE",
"1782 813 CURVE SMOOTH",
"1795 799 OFFCURVE",
"1813 792 OFFCURVE",
"1835 792 CURVE SMOOTH",
"1879 792 OFFCURVE",
"1915 828 OFFCURVE",
"1915 872 CURVE SMOOTH",
"1915 889 OFFCURVE",
"1910 905 OFFCURVE",
"1900 919 CURVE",
"1889 932 OFFCURVE",
"1878 944 OFFCURVE",
"1866 956 CURVE SMOOTH",
"1759 1063 OFFCURVE",
"1631 1117 OFFCURVE",
"1480 1120 CURVE SMOOTH",
"960 1120 LINE",
"960 1520 LINE SMOOTH",
"960 1564 OFFCURVE",
"924 1600 OFFCURVE",
"880 1600 CURVE SMOOTH",
"836 1600 OFFCURVE",
"800 1564 OFFCURVE",
"800 1520 CURVE SMOOTH",
"800 1413 LINE",
"696 1538 OFFCURVE",
"576 1600 OFFCURVE",
"440 1600 CURVE SMOOTH",
"152 1600 LINE SMOOTH",
"112 1600 OFFCURVE",
"80 1564 OFFCURVE",
"80 1520 CURVE SMOOTH",
"80 80 LINE SMOOTH",
"80 36 OFFCURVE",
"112 0 OFFCURVE",
"152 0 CURVE SMOOTH",
"192 0 OFFCURVE",
"224 36 OFFCURVE",
"224 80 CURVE SMOOTH",
"224 560 LINE",
"440 560 LINE SMOOTH",
"576 560 OFFCURVE",
"696 622 OFFCURVE",
"800 747 CURVE",
"800 400 LINE SMOOTH",
"800 133 OFFCURVE",
"933 0 OFFCURVE",
"1200 0 CURVE SMOOTH",
"1470 0 LINE SMOOTH",
"1625 0 OFFCURVE",
"1750 49 OFFCURVE",
"1846 147 CURVE SMOOTH",
"1895 196 OFFCURVE",
"1920 254 OFFCURVE",
"1920 320 CURVE SMOOTH",
"1920 452 OFFCURVE",
"1843 515 OFFCURVE",
"1722 560 CURVE",
"1230 723 LINE SMOOTH",
"1199 734 OFFCURVE",
"1183 756 OFFCURVE",
"1181 787 CURVE",
"1181 814 OFFCURVE",
"1189 837 OFFCURVE",
"1205 856 CURVE"
);
},
{
closed = 1;
nodes = (
"619 1440 OFFCURVE",
"764 1279 OFFCURVE",
"764 1080 CURVE SMOOTH",
"764 881 OFFCURVE",
"619 720 OFFCURVE",
"440 720 CURVE SMOOTH",
"224 720 LINE",
"224 1440 LINE",
"440 1440 LINE SMOOTH"
);
},
{
closed = 1;
nodes = (
"1040 160 OFFCURVE",
"960 240 OFFCURVE",
"960 400 CURVE SMOOTH",
"960 960 LINE",
"1082 960 LINE",
"1041 913 OFFCURVE",
"1020 860 OFFCURVE",
"1020 800 CURVE SMOOTH",
"1020 668 OFFCURVE",
"1097 605 OFFCURVE",
"1218 560 CURVE",
"1710 397 LINE SMOOTH",
"1741 386 OFFCURVE",
"1757 364 OFFCURVE",
"1759 333 CURVE",
"1759 306 OFFCURVE",
"1751 283 OFFCURVE",
"1735 264 CURVE",
"1669 195 OFFCURVE",
"1581 160 OFFCURVE",
"1470 160 CURVE SMOOTH",
"1200 160 LINE SMOOTH"
);
}
);
width = 2000;
}
);
note = "\012    peseta\012  ";
unicode = 20A7;
},
{
color = 4;
glyphname = trademark;
lastChange = "2016-08-01 02:22:36 +0000";
layers = (
{
layerId = "4B9C72B8-8622-4F9C-A154-BF8DEE7D8E25";
paths = (
{
closed = 1;
nodes = (
"314 992 LINE SMOOTH",
"314 974 OFFCURVE",
"330 960 OFFCURVE",
"350 960 CURVE SMOOTH",
"370 960 OFFCURVE",
"386 974 OFFCURVE",
"386 992 CURVE SMOOTH",
"386 1536 LINE",
"584 1536 LINE SMOOTH",
"604 1536 OFFCURVE",
"620 1550 OFFCURVE",
"620 1568 CURVE SMOOTH",
"620 1586 OFFCURVE",
"604 1600 OFFCURVE",
"584 1600 CURVE SMOOTH",
"116 1600 LINE SMOOTH",
"96 1600 OFFCURVE",
"80 1586 OFFCURVE",
"80 1568 CURVE SMOOTH",
"80 1550 OFFCURVE",
"96 1536 OFFCURVE",
"116 1536 CURVE SMOOTH",
"314 1536 LINE"
);
},
{
closed = 1;
nodes = (
"1014 966 OFFCURVE",
"1025 960 OFFCURVE",
"1040 960 CURVE SMOOTH",
"1054 960 OFFCURVE",
"1065 965 OFFCURVE",
"1071 976 CURVE SMOOTH",
"1328 1432 LINE",
"1328 992 LINE SMOOTH",
"1328 974 OFFCURVE",
"1344 960 OFFCURVE",
"1364 960 CURVE SMOOTH",
"1384 960 OFFCURVE",
"1400 974 OFFCURVE",
"1400 992 CURVE SMOOTH",
"1400 1568 LINE SMOOTH",
"1400 1586 OFFCURVE",
"1384 1600 OFFCURVE",
"1364 1600 CURVE SMOOTH",
"1350 1600 OFFCURVE",
"1339 1594 OFFCURVE",
"1332 1583 CURVE",
"1040 1064 LINE",
"748 1583 LINE",
"741 1594 OFFCURVE",
"730 1600 OFFCURVE",
"716 1600 CURVE SMOOTH",
"696 1600 OFFCURVE",
"680 1586 OFFCURVE",
"680 1568 CURVE SMOOTH",
"680 992 LINE SMOOTH",
"680 974 OFFCURVE",
"696 960 OFFCURVE",
"716 960 CURVE SMOOTH",
"736 960 OFFCURVE",
"752 974 OFFCURVE",
"752 992 CURVE SMOOTH",
"752 1432 LINE",
"1007 980 LINE"
);
}
);
width = 1500;
}
);
note = "\012    trademark\012  ";
unicode = 2122;
},
{
glyphname = partialdiff;
lastChange = "2016-07-05 19:21:56 +0000";
layers = (
{
layerId = "4B9C72B8-8622-4F9C-A154-BF8DEE7D8E25";
paths = (
{
closed = 1;
nodes = (
"1200 1277 OFFCURVE",
"877 1600 OFFCURVE",
"480 1600 CURVE SMOOTH",
"400 1600 OFFCURVE",
"325 1589 OFFCURVE",
"255 1567 CURVE",
"223 1559 OFFCURVE",
"190 1531 OFFCURVE",
"190 1487 CURVE SMOOTH",
"190 1443 OFFCURVE",
"226 1407 OFFCURVE",
"270 1407 CURVE SMOOTH",
"281 1407 OFFCURVE",
"291 1409 OFFCURVE",
"300 1413 CURVE",
"357 1431 OFFCURVE",
"417 1440 OFFCURVE",
"480 1440 CURVE SMOOTH",
"789 1440 OFFCURVE",
"1004 1201 OFFCURVE",
"1035 957 CURVE",
"926 1066 OFFCURVE",
"795 1120 OFFCURVE",
"640 1120 CURVE SMOOTH",
"331 1120 OFFCURVE",
"80 869 OFFCURVE",
"80 560 CURVE SMOOTH",
"80 251 OFFCURVE",
"331 0 OFFCURVE",
"640 0 CURVE SMOOTH",
"949 0 OFFCURVE",
"1200 251 OFFCURVE",
"1200 560 CURVE SMOOTH",
"1200 880 LINE SMOOTH"
);
},
{
closed = 1;
nodes = (
"861 960 OFFCURVE",
"1040 781 OFFCURVE",
"1040 560 CURVE SMOOTH",
"1040 339 OFFCURVE",
"861 160 OFFCURVE",
"640 160 CURVE SMOOTH",
"419 160 OFFCURVE",
"240 339 OFFCURVE",
"240 560 CURVE SMOOTH",
"240 781 OFFCURVE",
"419 960 OFFCURVE",
"640 960 CURVE SMOOTH"
);
}
);
width = 1280;
}
);
note = "\012    partialdiff\012  ";
unicode = 2202;
},
{
glyphname = product;
lastChange = "2016-07-05 19:21:56 +0000";
layers = (
{
layerId = "4B9C72B8-8622-4F9C-A154-BF8DEE7D8E25";
paths = (
{
closed = 1;
nodes = (
"116 1600 OFFCURVE",
"80 1564 OFFCURVE",
"80 1520 CURVE SMOOTH",
"80 -400 LINE SMOOTH",
"80 -444 OFFCURVE",
"116 -480 OFFCURVE",
"160 -480 CURVE SMOOTH",
"204 -480 OFFCURVE",
"240 -444 OFFCURVE",
"240 -400 CURVE SMOOTH",
"240 1440 LINE",
"1200 1440 LINE",
"1200 -400 LINE SMOOTH",
"1200 -444 OFFCURVE",
"1236 -480 OFFCURVE",
"1280 -480 CURVE SMOOTH",
"1324 -480 OFFCURVE",
"1360 -444 OFFCURVE",
"1360 -400 CURVE SMOOTH",
"1360 1520 LINE SMOOTH",
"1360 1564 OFFCURVE",
"1324 1600 OFFCURVE",
"1280 1600 CURVE SMOOTH",
"160 1600 LINE SMOOTH"
);
}
);
width = 1440;
}
);
note = "\012    product\012  ";
unicode = 220F;
},
{
glyphname = summation;
lastChange = "2016-07-05 19:21:56 +0000";
layers = (
{
layerId = "4B9C72B8-8622-4F9C-A154-BF8DEE7D8E25";
paths = (
{
closed = 1;
nodes = (
"1022 509 LINE SMOOTH",
"1034 524 OFFCURVE",
"1040 541 OFFCURVE",
"1040 560 CURVE SMOOTH",
"1040 579 OFFCURVE",
"1034 596 OFFCURVE",
"1022 611 CURVE SMOOTH",
"330 1440 LINE",
"1280 1440 LINE SMOOTH",
"1324 1440 OFFCURVE",
"1360 1476 OFFCURVE",
"1360 1520 CURVE SMOOTH",
"1360 1564 OFFCURVE",
"1324 1600 OFFCURVE",
"1280 1600 CURVE SMOOTH",
"160 1600 LINE SMOOTH",
"116 1600 OFFCURVE",
"80 1564 OFFCURVE",
"80 1520 CURVE SMOOTH",
"80 1501 OFFCURVE",
"86 1485 OFFCURVE",
"97 1470 CURVE",
"856 560 LINE",
"97 -350 LINE",
"86 -365 OFFCURVE",
"80 -381 OFFCURVE",
"80 -400 CURVE SMOOTH",
"80 -444 OFFCURVE",
"112 -480 OFFCURVE",
"173 -480 CURVE SMOOTH",
"1280 -480 LINE SMOOTH",
"1324 -480 OFFCURVE",
"1360 -444 OFFCURVE",
"1360 -400 CURVE SMOOTH",
"1360 -356 OFFCURVE",
"1324 -320 OFFCURVE",
"1280 -320 CURVE SMOOTH",
"331 -320 LINE"
);
}
);
width = 1440;
}
);
note = "\012    summation\012  ";
unicode = 2211;
},
{
color = 4;
glyphname = minus;
lastChange = "2016-08-01 02:22:36 +0000";
layers = (
{
layerId = "4B9C72B8-8622-4F9C-A154-BF8DEE7D8E25";
paths = (
{
closed = 1;
nodes = (
"1004 640 OFFCURVE",
"1040 676 OFFCURVE",
"1040 720 CURVE SMOOTH",
"1040 764 OFFCURVE",
"1004 800 OFFCURVE",
"960 800 CURVE SMOOTH",
"160 800 LINE SMOOTH",
"116 800 OFFCURVE",
"80 764 OFFCURVE",
"80 720 CURVE SMOOTH",
"80 676 OFFCURVE",
"116 640 OFFCURVE",
"160 640 CURVE SMOOTH",
"960 640 LINE SMOOTH"
);
}
);
width = 1120;
}
);
note = "\012    minus\012  ";
unicode = 2212;
},
{
glyphname = radical;
lastChange = "2016-07-05 19:21:56 +0000";
layers = (
{
layerId = "4B9C72B8-8622-4F9C-A154-BF8DEE7D8E25";
paths = (
{
closed = 1;
nodes = (
"1258 1760 OFFCURVE",
"1239 1752 OFFCURVE",
"1224 1737 CURVE",
"1217 1729 OFFCURVE",
"1211 1720 OFFCURVE",
"1206 1711 CURVE",
"480 260 LINE",
"234 752 LINE",
"230 761 OFFCURVE",
"224 769 OFFCURVE",
"217 777 CURVE",
"201 792 OFFCURVE",
"182 800 OFFCURVE",
"160 800 CURVE SMOOTH",
"116 800 OFFCURVE",
"80 764 OFFCURVE",
"80 720 CURVE SMOOTH",
"80 705 OFFCURVE",
"83 692 OFFCURVE",
"90 681 CURVE",
"410 41 LINE SMOOTH",
"413 35 OFFCURVE",
"418 29 OFFCURVE",
"424 24 CURVE",
"439 8 OFFCURVE",
"458 0 OFFCURVE",
"480 0 CURVE SMOOTH",
"502 0 OFFCURVE",
"521 8 OFFCURVE",
"537 24 CURVE SMOOTH",
"543 30 OFFCURVE",
"548 37 OFFCURVE",
"552 45 CURVE SMOOTH",
"1330 1600 LINE",
"1440 1600 LINE SMOOTH",
"1484 1600 OFFCURVE",
"1520 1636 OFFCURVE",
"1520 1680 CURVE SMOOTH",
"1520 1724 OFFCURVE",
"1484 1760 OFFCURVE",
"1440 1760 CURVE SMOOTH",
"1280 1760 LINE SMOOTH"
);
}
);
width = 1600;
}
);
note = "\012    radical\012  ";
unicode = 221A;
},
{
glyphname = infinity;
lastChange = "2016-07-05 19:21:56 +0000";
layers = (
{
layerId = "4B9C72B8-8622-4F9C-A154-BF8DEE7D8E25";
paths = (
{
closed = 1;
nodes = (
"811 464 OFFCURVE",
"824 450 OFFCURVE",
"837 437 CURVE SMOOTH",
"915 359 OFFCURVE",
"1009 320 OFFCURVE",
"1120 320 CURVE SMOOTH",
"1341 320 OFFCURVE",
"1520 499 OFFCURVE",
"1520 720 CURVE SMOOTH",
"1520 941 OFFCURVE",
"1341 1120 OFFCURVE",
"1120 1120 CURVE SMOOTH",
"1009 1120 OFFCURVE",
"915 1081 OFFCURVE",
"837 1003 CURVE SMOOTH",
"824 990 OFFCURVE",
"811 976 OFFCURVE",
"800 961 CURVE",
"789 976 OFFCURVE",
"776 990 OFFCURVE",
"763 1003 CURVE SMOOTH",
"685 1081 OFFCURVE",
"591 1120 OFFCURVE",
"480 1120 CURVE SMOOTH",
"259 1120 OFFCURVE",
"80 941 OFFCURVE",
"80 720 CURVE SMOOTH",
"80 499 OFFCURVE",
"259 320 OFFCURVE",
"480 320 CURVE SMOOTH",
"591 320 OFFCURVE",
"685 359 OFFCURVE",
"763 437 CURVE SMOOTH",
"776 450 OFFCURVE",
"789 464 OFFCURVE",
"800 479 CURVE"
);
},
{
closed = 1;
nodes = (
"612 960 OFFCURVE",
"720 852 OFFCURVE",
"720 720 CURVE SMOOTH",
"720 588 OFFCURVE",
"612 480 OFFCURVE",
"480 480 CURVE SMOOTH",
"348 480 OFFCURVE",
"240 588 OFFCURVE",
"240 720 CURVE SMOOTH",
"240 852 OFFCURVE",
"348 960 OFFCURVE",
"480 960 CURVE SMOOTH"
);
},
{
closed = 1;
nodes = (
"1252 960 OFFCURVE",
"1360 852 OFFCURVE",
"1360 720 CURVE SMOOTH",
"1360 588 OFFCURVE",
"1252 480 OFFCURVE",
"1120 480 CURVE SMOOTH",
"988 480 OFFCURVE",
"880 588 OFFCURVE",
"880 720 CURVE SMOOTH",
"880 852 OFFCURVE",
"988 960 OFFCURVE",
"1120 960 CURVE SMOOTH"
);
}
);
width = 1600;
}
);
note = "\012    infinity\012  ";
unicode = 221E;
},
{
glyphname = integral;
lastChange = "2016-07-05 19:21:56 +0000";
layers = (
{
layerId = "4B9C72B8-8622-4F9C-A154-BF8DEE7D8E25";
paths = (
{
closed = 1;
nodes = (
"1000 1531 OFFCURVE",
"1036 1564 OFFCURVE",
"1036 1620 CURVE",
"1027 1705 OFFCURVE",
"961 1823 OFFCURVE",
"797 1830 CURVE",
"689 1830 OFFCURVE",
"575 1749 OFFCURVE",
"559 1617 CURVE SMOOTH",
"400 12 LINE SMOOTH",
"396 -31 OFFCURVE",
"355 -63 OFFCURVE",
"312 -58 CURVE SMOOTH",
"268 -53 OFFCURVE",
"245 -17 OFFCURVE",
"241 12 CURVE SMOOTH",
"237 45 OFFCURVE",
"206 80 OFFCURVE",
"162 80 CURVE SMOOTH",
"118 80 OFFCURVE",
"82 47 OFFCURVE",
"82 -9 CURVE",
"93 -94 OFFCURVE",
"170 -219 OFFCURVE",
"322 -219 CURVE SMOOTH",
"430 -219 OFFCURVE",
"544 -138 OFFCURVE",
"559 -6 CURVE SMOOTH",
"718 1599 LINE SMOOTH",
"723 1642 OFFCURVE",
"763 1674 OFFCURVE",
"807 1669 CURVE SMOOTH",
"851 1664 OFFCURVE",
"872 1630 OFFCURVE",
"876 1605 CURVE",
"885 1560 OFFCURVE",
"912 1531 OFFCURVE",
"956 1531 CURVE SMOOTH"
);
}
);
width = 1120;
}
);
note = "\012    integral\012  ";
unicode = 222B;
},
{
glyphname = uniF001;
lastChange = "2016-07-05 19:21:56 +0000";
layers = (
{
layerId = "4B9C72B8-8622-4F9C-A154-BF8DEE7D8E25";
paths = (
{
closed = 1;
nodes = (
"800 1440 OFFCURVE",
"860 1413 OFFCURVE",
"860 1360 CURVE SMOOTH",
"860 1305 OFFCURVE",
"905 1260 OFFCURVE",
"960 1260 CURVE SMOOTH",
"1015 1260 OFFCURVE",
"1060 1305 OFFCURVE",
"1060 1360 CURVE SMOOTH",
"1060 1520 OFFCURVE",
"933 1600 OFFCURVE",
"680 1600 CURVE SMOOTH",
"387 1600 OFFCURVE",
"240 1440 OFFCURVE",
"240 1120 CURVE SMOOTH",
"240 1060 LINE",
"160 1060 LINE SMOOTH",
"116 1060 OFFCURVE",
"80 1024 OFFCURVE",
"80 980 CURVE SMOOTH",
"80 936 OFFCURVE",
"116 900 OFFCURVE",
"160 900 CURVE SMOOTH",
"240 900 LINE",
"240 80 LINE SMOOTH",
"240 36 OFFCURVE",
"276 0 OFFCURVE",
"320 0 CURVE SMOOTH",
"364 0 OFFCURVE",
"400 36 OFFCURVE",
"400 80 CURVE SMOOTH",
"400 900 LINE",
"641 900 LINE SMOOTH",
"685 900 OFFCURVE",
"721 936 OFFCURVE",
"721 980 CURVE SMOOTH",
"721 1024 OFFCURVE",
"685 1060 OFFCURVE",
"641 1060 CURVE SMOOTH",
"400 1060 LINE",
"400 1120 LINE SMOOTH",
"400 1333 OFFCURVE",
"493 1440 OFFCURVE",
"680 1440 CURVE SMOOTH"
);
},
{
closed = 1;
nodes = (
"880 36 OFFCURVE",
"916 0 OFFCURVE",
"960 0 CURVE SMOOTH",
"1004 0 OFFCURVE",
"1040 36 OFFCURVE",
"1040 80 CURVE SMOOTH",
"1040 1040 LINE SMOOTH",
"1040 1084 OFFCURVE",
"1004 1120 OFFCURVE",
"960 1120 CURVE SMOOTH",
"916 1120 OFFCURVE",
"880 1084 OFFCURVE",
"880 1040 CURVE SMOOTH",
"880 80 LINE SMOOTH"
);
}
);
width = 1120;
}
);
note = "\012    uniF001\012  ";
unicode = F001;
},
{
glyphname = uniF002;
lastChange = "2016-07-05 19:21:56 +0000";
layers = (
{
layerId = "4B9C72B8-8622-4F9C-A154-BF8DEE7D8E25";
paths = (
{
closed = 1;
nodes = (
"800 36 OFFCURVE",
"836 0 OFFCURVE",
"880 0 CURVE SMOOTH",
"1040 0 LINE SMOOTH",
"1084 0 OFFCURVE",
"1120 36 OFFCURVE",
"1120 80 CURVE SMOOTH",
"1120 124 OFFCURVE",
"1084 160 OFFCURVE",
"1040 160 CURVE SMOOTH",
"960 160 LINE",
"960 1360 LINE SMOOTH",
"960 1520 OFFCURVE",
"880 1600 OFFCURVE",
"720 1600 CURVE SMOOTH",
"400 1600 OFFCURVE",
"240 1440 OFFCURVE",
"240 1120 CURVE SMOOTH",
"240 1060 LINE",
"160 1060 LINE SMOOTH",
"116 1060 OFFCURVE",
"80 1024 OFFCURVE",
"80 980 CURVE SMOOTH",
"80 936 OFFCURVE",
"116 900 OFFCURVE",
"160 900 CURVE SMOOTH",
"240 900 LINE",
"240 80 LINE SMOOTH",
"240 36 OFFCURVE",
"276 0 OFFCURVE",
"320 0 CURVE SMOOTH",
"364 0 OFFCURVE",
"400 36 OFFCURVE",
"400 80 CURVE SMOOTH",
"400 900 LINE",
"641 900 LINE SMOOTH",
"685 900 OFFCURVE",
"721 936 OFFCURVE",
"721 980 CURVE SMOOTH",
"721 1024 OFFCURVE",
"685 1060 OFFCURVE",
"641 1060 CURVE SMOOTH",
"400 1060 LINE",
"400 1120 LINE SMOOTH",
"400 1333 OFFCURVE",
"507 1440 OFFCURVE",
"720 1440 CURVE SMOOTH",
"773 1440 OFFCURVE",
"800 1413 OFFCURVE",
"800 1360 CURVE SMOOTH",
"800 80 LINE SMOOTH"
);
}
);
width = 1200;
}
);
note = "\012    uniF002\012  ";
unicode = F002;
},
{
color = 4;
glyphname = dcroat;
lastChange = "2016-08-01 02:22:36 +0000";
layers = (
{
layerId = "4B9C72B8-8622-4F9C-A154-BF8DEE7D8E25";
paths = (
{
closed = 1;
nodes = (
"676 1440 OFFCURVE",
"640 1404 OFFCURVE",
"640 1360 CURVE SMOOTH",
"640 1316 OFFCURVE",
"676 1280 OFFCURVE",
"720 1280 CURVE SMOOTH",
"1040 1280 LINE",
"1040 952 LINE",
"1036 956 LINE SMOOTH",
"927 1065 OFFCURVE",
"795 1120 OFFCURVE",
"640 1120 CURVE SMOOTH",
"331 1120 OFFCURVE",
"80 869 OFFCURVE",
"80 560 CURVE SMOOTH",
"80 251 OFFCURVE",
"331 0 OFFCURVE",
"640 0 CURVE SMOOTH",
"949 0 OFFCURVE",
"1200 251 OFFCURVE",
"1200 560 CURVE SMOOTH",
"1200 1280 LINE",
"1280 1280 LINE SMOOTH",
"1324 1280 OFFCURVE",
"1360 1316 OFFCURVE",
"1360 1360 CURVE SMOOTH",
"1360 1404 OFFCURVE",
"1324 1440 OFFCURVE",
"1280 1440 CURVE SMOOTH",
"1200 1440 LINE",
"1200 1522 LINE SMOOTH",
"1200 1566 OFFCURVE",
"1164 1602 OFFCURVE",
"1120 1602 CURVE SMOOTH",
"1076 1602 OFFCURVE",
"1040 1566 OFFCURVE",
"1040 1522 CURVE SMOOTH",
"1040 1440 LINE",
"720 1440 LINE SMOOTH"
);
},
{
closed = 1;
nodes = (
"1040 339 OFFCURVE",
"861 160 OFFCURVE",
"640 160 CURVE SMOOTH",
"419 160 OFFCURVE",
"240 339 OFFCURVE",
"240 560 CURVE SMOOTH",
"240 781 OFFCURVE",
"419 960 OFFCURVE",
"640 960 CURVE SMOOTH",
"861 960 OFFCURVE",
"1040 781 OFFCURVE",
"1040 560 CURVE SMOOTH"
);
}
);
width = 1440;
}
);
note = "\012    dcroat\012  ";
unicode = 0111;
},
{
color = 4;
glyphname = Hbar;
lastChange = "2016-08-01 02:22:36 +0000";
layers = (
{
layerId = "4B9C72B8-8622-4F9C-A154-BF8DEE7D8E25";
paths = (
{
closed = 1;
nodes = (
"116 1320 OFFCURVE",
"80 1284 OFFCURVE",
"80 1240 CURVE SMOOTH",
"80 1196 OFFCURVE",
"116 1160 OFFCURVE",
"160 1160 CURVE SMOOTH",
"240 1160 LINE",
"240 80 LINE SMOOTH",
"240 36 OFFCURVE",
"276 0 OFFCURVE",
"320 0 CURVE SMOOTH",
"364 0 OFFCURVE",
"400 36 OFFCURVE",
"400 80 CURVE SMOOTH",
"400 720 LINE",
"1200 720 LINE",
"1200 80 LINE SMOOTH",
"1200 36 OFFCURVE",
"1236 0 OFFCURVE",
"1280 0 CURVE SMOOTH",
"1324 0 OFFCURVE",
"1360 36 OFFCURVE",
"1360 80 CURVE SMOOTH",
"1360 1160 LINE",
"1440 1160 LINE SMOOTH",
"1484 1160 OFFCURVE",
"1520 1196 OFFCURVE",
"1520 1240 CURVE SMOOTH",
"1520 1284 OFFCURVE",
"1484 1320 OFFCURVE",
"1440 1320 CURVE SMOOTH",
"1360 1320 LINE",
"1360 1520 LINE SMOOTH",
"1360 1564 OFFCURVE",
"1324 1600 OFFCURVE",
"1280 1600 CURVE SMOOTH",
"1236 1600 OFFCURVE",
"1200 1564 OFFCURVE",
"1200 1520 CURVE SMOOTH",
"1200 1320 LINE",
"400 1320 LINE",
"400 1520 LINE SMOOTH",
"400 1564 OFFCURVE",
"364 1600 OFFCURVE",
"320 1600 CURVE SMOOTH",
"276 1600 OFFCURVE",
"240 1564 OFFCURVE",
"240 1520 CURVE SMOOTH",
"240 1320 LINE",
"160 1320 LINE SMOOTH"
);
},
{
closed = 1;
nodes = (
"1200 880 LINE",
"400 880 LINE",
"400 1160 LINE",
"1200 1160 LINE"
);
}
);
width = 1600;
}
);
note = "\012    Hbar\012  ";
unicode = 0126;
},
{
color = 4;
glyphname = hbar;
lastChange = "2016-08-01 02:22:36 +0000";
layers = (
{
layerId = "4B9C72B8-8622-4F9C-A154-BF8DEE7D8E25";
paths = (
{
closed = 1;
nodes = (
"76 1440 OFFCURVE",
"40 1404 OFFCURVE",
"40 1360 CURVE SMOOTH",
"40 1316 OFFCURVE",
"76 1280 OFFCURVE",
"120 1280 CURVE SMOOTH",
"200 1280 LINE",
"200 80 LINE SMOOTH",
"200 36 OFFCURVE",
"236 0 OFFCURVE",
"280 0 CURVE SMOOTH",
"324 0 OFFCURVE",
"360 36 OFFCURVE",
"360 80 CURVE SMOOTH",
"360 600 LINE SMOOTH",
"360 799 OFFCURVE",
"521 960 OFFCURVE",
"720 960 CURVE SMOOTH",
"919 960 OFFCURVE",
"1080 799 OFFCURVE",
"1080 600 CURVE SMOOTH",
"1080 80 LINE SMOOTH",
"1080 36 OFFCURVE",
"1116 0 OFFCURVE",
"1160 0 CURVE SMOOTH",
"1204 0 OFFCURVE",
"1240 36 OFFCURVE",
"1240 80 CURVE SMOOTH",
"1240 600 LINE SMOOTH",
"1240 887 OFFCURVE",
"1007 1120 OFFCURVE",
"720 1120 CURVE SMOOTH",
"580 1120 OFFCURVE",
"460 1072 OFFCURVE",
"360 975 CURVE",
"360 1280 LINE",
"680 1280 LINE SMOOTH",
"724 1280 OFFCURVE",
"760 1316 OFFCURVE",
"760 1360 CURVE SMOOTH",
"760 1404 OFFCURVE",
"724 1440 OFFCURVE",
"680 1440 CURVE SMOOTH",
"360 1440 LINE",
"360 1520 LINE SMOOTH",
"360 1564 OFFCURVE",
"324 1600 OFFCURVE",
"280 1600 CURVE SMOOTH",
"236 1600 OFFCURVE",
"200 1564 OFFCURVE",
"200 1520 CURVE SMOOTH",
"200 1440 LINE",
"120 1440 LINE SMOOTH"
);
}
);
width = 1320;
}
);
note = "\012    hbar\012  ";
unicode = 0127;
},
